<svg width="1650" height="990" xmlns="http://www.w3.org/2000/svg" xmlns:xlink="http://www.w3.org/1999/xlink" overflow="hidden"><defs><clipPath id="clip0"><rect x="1320" y="1078" width="1650" height="990"/></clipPath><clipPath id="clip1"><rect x="1320" y="1077" width="1650" height="990"/></clipPath><clipPath id="clip2"><rect x="1451" y="1128" width="1472" height="731"/></clipPath><clipPath id="clip3"><rect x="1451" y="1128" width="1472" height="731"/></clipPath><clipPath id="clip4"><rect x="1320" y="1077" width="1650" height="990"/></clipPath><clipPath id="clip5"><rect x="1320" y="1077" width="1650" height="990"/></clipPath><clipPath id="clip6"><rect x="1320" y="1077" width="1650" height="990"/></clipPath><clipPath id="clip7"><rect x="1320" y="1077" width="1650" height="990"/></clipPath><clipPath id="clip8"><rect x="1320" y="1077" width="1650" height="990"/></clipPath><clipPath id="clip9"><rect x="1320" y="1077" width="1650" height="990"/></clipPath><clipPath id="clip10"><rect x="1320" y="1077" width="1650" height="990"/></clipPath><clipPath id="clip11"><rect x="1320" y="1077" width="1650" height="990"/></clipPath><clipPath id="clip12"><rect x="1320" y="1077" width="1650" height="990"/></clipPath><clipPath id="clip13"><rect x="1320" y="1077" width="1650" height="990"/></clipPath><clipPath id="clip14"><rect x="1320" y="1077" width="1650" height="990"/></clipPath><clipPath id="clip15"><rect x="1320" y="1077" width="1650" height="990"/></clipPath><clipPath id="clip16"><rect x="1320" y="1077" width="1650" height="990"/></clipPath><clipPath id="clip17"><rect x="1320" y="1077" width="1650" height="990"/></clipPath><clipPath id="clip18"><rect x="1320" y="1077" width="1650" height="990"/></clipPath><clipPath id="clip19"><rect x="1320" y="1077" width="1650" height="990"/></clipPath><clipPath id="clip20"><rect x="1320" y="1077" width="1650" height="990"/></clipPath><clipPath id="clip21"><rect x="1320" y="1077" width="1650" height="990"/></clipPath><clipPath id="clip22"><rect x="1320" y="1077" width="1650" height="990"/></clipPath><clipPath id="clip23"><rect x="1320" y="1077" width="1650" height="990"/></clipPath><clipPath id="clip24"><rect x="1320" y="1077" width="1650" height="990"/></clipPath><clipPath id="clip25"><rect x="1320" y="1077" width="1650" height="990"/></clipPath><clipPath id="clip26"><rect x="1320" y="1077" width="1650" height="990"/></clipPath><clipPath id="clip27"><rect x="1320" y="1077" width="1650" height="990"/></clipPath><clipPath id="clip28"><rect x="1320" y="1077" width="1650" height="990"/></clipPath><clipPath id="clip29"><rect x="1320" y="1077" width="1650" height="990"/></clipPath><clipPath id="clip30"><rect x="1320" y="1077" width="1650" height="990"/></clipPath></defs><g clip-path="url(#clip0)" transform="translate(-1320 -1078)"><rect x="1320" y="1078" width="1650" height="990" fill="#FFFFFF"/><g clip-path="url(#clip1)"><path d="M1451.5 1856.5 2919.5 1856.5M1451.5 1752.56 2919.5 1752.56M1451.5 1648.55 2919.5 1648.55M1451.5 1440.55 2919.5 1440.55M1451.5 1336.54 2919.5 1336.54M1451.5 1232.54 2919.5 1232.54M1451.5 1128.5 2919.5 1128.5" stroke="#D9D9D9" stroke-width="3.4375" stroke-linejoin="round" stroke-miterlimit="10" fill="none"/></g><g clip-path="url(#clip2)"><path d="M1541.05 1281.04 1623.05 1281.04 1623.05 1544.05 1541.05 1544.05ZM1908.06 1304.04 1991.07 1304.04 1991.07 1544.05 1908.06 1544.05ZM2275.07 1182.04 2358.08 1182.04 2358.08 1544.05 2275.07 1544.05ZM2643.09 1305.04 2725.09 1305.04 2725.09 1544.05 2643.09 1544.05Z" fill="#4472C4"/></g><g clip-path="url(#clip3)"><path d="M1646.05 1662.05 1728.06 1662.05 1728.06 1544.05 1646.05 1544.05ZM2013.07 1715.06 2095.07 1715.06 2095.07 1544.05 2013.07 1544.05ZM2380.08 1512.05 2462.08 1512.05 2462.08 1544.05 2380.08 1544.05ZM2747.09 1535.05 2829.09 1535.05 2829.09 1544.05 2747.09 1544.05Z" fill="#92D050"/></g><g clip-path="url(#clip4)"><path d="M1451.5 1544.5 2919.5 1544.5" stroke="#D9D9D9" stroke-width="3.4375" stroke-linejoin="round" stroke-miterlimit="10" fill="none" fill-rule="evenodd"/></g><g clip-path="url(#clip5)"><text fill="#404040" font-family="Calibri,Calibri_MSFontService,sans-serif" font-weight="400" font-size="41" transform="matrix(1 0 0 1 1531.13 1249)">2,53%</text></g><g clip-path="url(#clip6)"><text fill="#404040" font-family="Calibri,Calibri_MSFontService,sans-serif" font-weight="400" font-size="41" transform="matrix(1 0 0 1 1898.26 1272)">2,31%</text></g><g clip-path="url(#clip7)"><text fill="#404040" font-family="Calibri,Calibri_MSFontService,sans-serif" font-weight="400" font-size="41" transform="matrix(1 0 0 1 2265.38 1150)">3,48%</text></g><g clip-path="url(#clip8)"><text fill="#404040" font-family="Calibri,Calibri_MSFontService,sans-serif" font-weight="400" font-size="41" transform="matrix(1 0 0 1 2632.51 1273)">2,30%</text></g><g clip-path="url(#clip9)"><text fill="#404040" font-family="Calibri,Calibri_MSFontService,sans-serif" font-weight="400" font-size="41" transform="matrix(1 0 0 1 1629.36 1721)">-</text></g><g clip-path="url(#clip10)"><text fill="#404040" font-family="Calibri,Calibri_MSFontService,sans-serif" font-weight="400" font-size="41" transform="matrix(1 0 0 1 1641.98 1721)">1,13%</text></g><g clip-path="url(#clip11)"><text fill="#404040" font-family="Calibri,Calibri_MSFontService,sans-serif" font-weight="400" font-size="41" transform="matrix(1 0 0 1 1996.48 1775)">-</text></g><g clip-path="url(#clip12)"><text fill="#404040" font-family="Calibri,Calibri_MSFontService,sans-serif" font-weight="400" font-size="41" transform="matrix(1 0 0 1 2009.11 1775)">1,64%</text></g><g clip-path="url(#clip13)"><text fill="#404040" font-family="Calibri,Calibri_MSFontService,sans-serif" font-weight="400" font-size="41" transform="matrix(1 0 0 1 2369.92 1480)">0,31%</text></g><g clip-path="url(#clip14)"><text fill="#404040" font-family="Calibri,Calibri_MSFontService,sans-serif" font-weight="400" font-size="41" transform="matrix(1 0 0 1 2737.05 1503)">0,09%</text></g><g clip-path="url(#clip15)"><text fill="#595959" font-family="Calibri,Calibri_MSFontService,sans-serif" font-weight="400" font-size="41" transform="matrix(1 0 0 1 1349.79 1868)">-3%</text></g><g clip-path="url(#clip16)"><text fill="#595959" font-family="Calibri,Calibri_MSFontService,sans-serif" font-weight="400" font-size="41" transform="matrix(1 0 0 1 1349.79 1764)">-2%</text></g><g clip-path="url(#clip17)"><text fill="#595959" font-family="Calibri,Calibri_MSFontService,sans-serif" font-weight="400" font-size="41" transform="matrix(1 0 0 1 1349.79 1660)">-1%</text></g><g clip-path="url(#clip18)"><text fill="#595959" font-family="Calibri,Calibri_MSFontService,sans-serif" font-weight="400" font-size="41" transform="matrix(1 0 0 1 1362.42 1556)">0%</text></g><g clip-path="url(#clip19)"><text fill="#595959" font-family="Calibri,Calibri_MSFontService,sans-serif" font-weight="400" font-size="41" transform="matrix(1 0 0 1 1362.42 1452)">1%</text></g><g clip-path="url(#clip20)"><text fill="#595959" font-family="Calibri,Calibri_MSFontService,sans-serif" font-weight="400" font-size="41" transform="matrix(1 0 0 1 1362.42 1348)">2%</text></g><g clip-path="url(#clip21)"><text fill="#595959" font-family="Calibri,Calibri_MSFontService,sans-serif" font-weight="400" font-size="41" transform="matrix(1 0 0 1 1362.42 1244)">3%</text></g><g clip-path="url(#clip22)"><text fill="#595959" font-family="Calibri,Calibri_MSFontService,sans-serif" font-weight="400" font-size="41" transform="matrix(1 0 0 1 1362.42 1140)">4%</text></g><g clip-path="url(#clip23)"><text fill="#595959" font-family="Calibri,Calibri_MSFontService,sans-serif" font-weight="400" font-size="41" transform="matrix(1 0 0 1 1562.47 1922)">getNode</text></g><g clip-path="url(#clip24)"><text fill="#595959" font-family="Calibri,Calibri_MSFontService,sans-serif" font-weight="400" font-size="41" transform="matrix(1 0 0 1 1941.27 1922)">getLink</text></g><g clip-path="url(#clip25)"><text fill="#595959" font-family="Calibri,Calibri_MSFontService,sans-serif" font-weight="400" font-size="41" transform="matrix(1 0 0 1 2287.09 1922)">countLink</text></g><g clip-path="url(#clip26)"><text fill="#595959" font-family="Calibri,Calibri_MSFontService,sans-serif" font-weight="400" font-size="41" transform="matrix(1 0 0 1 2647.14 1922)">getLinkList</text></g><g clip-path="url(#clip27)"><rect x="1872" y="1990" width="23" height="23" fill="#4472C4"/></g><g clip-path="url(#clip28)"><text fill="#595959" font-family="Calibri,Calibri_MSFontService,sans-serif" font-weight="400" font-size="41" transform="matrix(1 0 0 1 1904.26 2013)">Db2 Graph V11.5.6.0</text></g><g clip-path="url(#clip29)"><rect x="2303" y="1990" width="22" height="23" fill="#92D050"/></g><g clip-path="url(#clip30)"><text fill="#595959" font-family="Calibri,Calibri_MSFontService,sans-serif" font-weight="400" font-size="41" transform="matrix(1 0 0 1 2334.8 2013)">Neo4j</text></g></g></svg>