<svg width="1650" height="990" xmlns="http://www.w3.org/2000/svg" xmlns:xlink="http://www.w3.org/1999/xlink" overflow="hidden"><defs><clipPath id="clip0"><rect x="1189" y="1066" width="1650" height="990"/></clipPath><clipPath id="clip1"><rect x="1189" y="1065" width="1650" height="990"/></clipPath><clipPath id="clip2"><rect x="1307" y="1116" width="1485" height="731"/></clipPath><clipPath id="clip3"><rect x="1307" y="1116" width="1485" height="731"/></clipPath><clipPath id="clip4"><rect x="1307" y="1116" width="1485" height="731"/></clipPath><clipPath id="clip5"><rect x="1189" y="1065" width="1650" height="990"/></clipPath><clipPath id="clip6"><rect x="1189" y="1065" width="1650" height="990"/></clipPath><clipPath id="clip7"><rect x="1189" y="1065" width="1650" height="990"/></clipPath><clipPath id="clip8"><rect x="1189" y="1065" width="1650" height="990"/></clipPath><clipPath id="clip9"><rect x="1189" y="1065" width="1650" height="990"/></clipPath><clipPath id="clip10"><rect x="1189" y="1065" width="1650" height="990"/></clipPath><clipPath id="clip11"><rect x="1189" y="1065" width="1650" height="990"/></clipPath><clipPath id="clip12"><rect x="1189" y="1065" width="1650" height="990"/></clipPath><clipPath id="clip13"><rect x="1189" y="1065" width="1650" height="990"/></clipPath><clipPath id="clip14"><rect x="1189" y="1065" width="1650" height="990"/></clipPath><clipPath id="clip15"><rect x="1189" y="1065" width="1650" height="990"/></clipPath><clipPath id="clip16"><rect x="1189" y="1065" width="1650" height="990"/></clipPath><clipPath id="clip17"><rect x="1189" y="1065" width="1650" height="990"/></clipPath><clipPath id="clip18"><rect x="1189" y="1065" width="1650" height="990"/></clipPath><clipPath id="clip19"><rect x="1189" y="1065" width="1650" height="990"/></clipPath><clipPath id="clip20"><rect x="1189" y="1065" width="1650" height="990"/></clipPath><clipPath id="clip21"><rect x="1189" y="1065" width="1650" height="990"/></clipPath><clipPath id="clip22"><rect x="1189" y="1065" width="1650" height="990"/></clipPath><clipPath id="clip23"><rect x="1189" y="1065" width="1650" height="990"/></clipPath><clipPath id="clip24"><rect x="1189" y="1065" width="1650" height="990"/></clipPath><clipPath id="clip25"><rect x="1189" y="1065" width="1650" height="990"/></clipPath><clipPath id="clip26"><rect x="1189" y="1065" width="1650" height="990"/></clipPath><clipPath id="clip27"><rect x="1189" y="1065" width="1650" height="990"/></clipPath><clipPath id="clip28"><rect x="1189" y="1065" width="1650" height="990"/></clipPath><clipPath id="clip29"><rect x="1189" y="1065" width="1650" height="990"/></clipPath><clipPath id="clip30"><rect x="1189" y="1065" width="1650" height="990"/></clipPath><clipPath id="clip31"><rect x="1189" y="1065" width="1650" height="990"/></clipPath><clipPath id="clip32"><rect x="1189" y="1065" width="1650" height="990"/></clipPath><clipPath id="clip33"><rect x="1189" y="1065" width="1650" height="990"/></clipPath><clipPath id="clip34"><rect x="1189" y="1065" width="1650" height="990"/></clipPath></defs><g clip-path="url(#clip0)" transform="translate(-1189 -1066)"><rect x="1189" y="1066" width="1650" height="990" fill="#FFFFFF"/><g clip-path="url(#clip1)"><path d="M1307.5 1722.56 2788.5 1722.56M1307.5 1601.55 2788.5 1601.55M1307.5 1480.55 2788.5 1480.55M1307.5 1358.54 2788.5 1358.54M1307.5 1237.54 2788.5 1237.54M1307.5 1116.5 2788.5 1116.5" stroke="#D9D9D9" stroke-width="3.4375" stroke-linejoin="round" stroke-miterlimit="10" fill="none"/></g><g clip-path="url(#clip2)"><path d="M1373.05 1492.05 1433.05 1492.05 1433.05 1844 1373.05 1844ZM1744.06 1210.04 1803.06 1210.04 1803.06 1844 1744.06 1844ZM2114.07 1586.05 2174.07 1586.05 2174.07 1844 2114.07 1844ZM2484.08 1407.05 2544.08 1407.05 2544.08 1844 2484.08 1844Z" fill="#ED7D31"/></g><g clip-path="url(#clip3)"><path d="M1463.05 1685.06 1523.05 1685.06 1523.05 1844 1463.05 1844ZM1833.06 1588.05 1893.06 1588.05 1893.06 1844 1833.06 1844ZM2204.07 1588.05 2263.07 1588.05 2263.07 1844 2204.07 1844ZM2574.08 1665.05 2634.09 1665.05 2634.09 1844 2574.08 1844Z" fill="#4472C4"/></g><g clip-path="url(#clip4)"><path d="M1553.05 1286.04 1613.05 1286.04 1613.05 1844 1553.05 1844ZM1923.06 1327.04 1983.07 1327.04 1983.07 1844 1923.06 1844ZM2293.08 1510.05 2353.08 1510.05 2353.08 1844 2293.08 1844ZM2664.09 1429.05 2723.09 1429.05 2723.09 1844 2664.09 1844Z" fill="#92D050"/></g><g clip-path="url(#clip5)"><path d="M1307.5 1844.5 2788.5 1844.5" stroke="#D9D9D9" stroke-width="3.4375" stroke-linejoin="round" stroke-miterlimit="10" fill="none" fill-rule="evenodd"/></g><g clip-path="url(#clip6)"><text fill="#404040" font-family="Calibri,Calibri_MSFontService,sans-serif" font-weight="400" font-size="41" transform="matrix(1 0 0 1 1352 1460)">2,91%</text></g><g clip-path="url(#clip7)"><text fill="#404040" font-family="Calibri,Calibri_MSFontService,sans-serif" font-weight="400" font-size="41" transform="matrix(1 0 0 1 1722.28 1178)">5,23%</text></g><g clip-path="url(#clip8)"><text fill="#404040" font-family="Calibri,Calibri_MSFontService,sans-serif" font-weight="400" font-size="41" transform="matrix(1 0 0 1 2078.81 1508)">2,13%</text></g><g clip-path="url(#clip9)"><text fill="#404040" font-family="Calibri,Calibri_MSFontService,sans-serif" font-weight="400" font-size="41" transform="matrix(1 0 0 1 2462.85 1375)">3,61%</text></g><g clip-path="url(#clip10)"><text fill="#404040" font-family="Calibri,Calibri_MSFontService,sans-serif" font-weight="400" font-size="41" transform="matrix(1 0 0 1 1441.73 1653)">1,31%</text></g><g clip-path="url(#clip11)"><text fill="#404040" font-family="Calibri,Calibri_MSFontService,sans-serif" font-weight="400" font-size="41" transform="matrix(1 0 0 1 1812.01 1556)">2,11%</text></g><g clip-path="url(#clip12)"><text fill="#404040" font-family="Calibri,Calibri_MSFontService,sans-serif" font-weight="400" font-size="41" transform="matrix(1 0 0 1 2182.29 1556)">2,12%</text></g><g clip-path="url(#clip13)"><text fill="#404040" font-family="Calibri,Calibri_MSFontService,sans-serif" font-weight="400" font-size="41" transform="matrix(1 0 0 1 2552.58 1633)">1,48%</text></g><g clip-path="url(#clip14)"><text fill="#404040" font-family="Calibri,Calibri_MSFontService,sans-serif" font-weight="400" font-size="41" transform="matrix(1 0 0 1 1531.46 1254)">4,60%</text></g><g clip-path="url(#clip15)"><text fill="#404040" font-family="Calibri,Calibri_MSFontService,sans-serif" font-weight="400" font-size="41" transform="matrix(1 0 0 1 1901.74 1295)">4,26%</text></g><g clip-path="url(#clip16)"><text fill="#404040" font-family="Calibri,Calibri_MSFontService,sans-serif" font-weight="400" font-size="41" transform="matrix(1 0 0 1 2272.02 1478)">2,75%</text></g><g clip-path="url(#clip17)"><text fill="#404040" font-family="Calibri,Calibri_MSFontService,sans-serif" font-weight="400" font-size="41" transform="matrix(1 0 0 1 2642.3 1397)">3,42%</text></g><g clip-path="url(#clip18)"><text fill="#595959" font-family="Calibri,Calibri_MSFontService,sans-serif" font-weight="400" font-size="41" transform="matrix(1 0 0 1 1219.17 1856)">0%</text></g><g clip-path="url(#clip19)"><text fill="#595959" font-family="Calibri,Calibri_MSFontService,sans-serif" font-weight="400" font-size="41" transform="matrix(1 0 0 1 1219.17 1735)">1%</text></g><g clip-path="url(#clip20)"><text fill="#595959" font-family="Calibri,Calibri_MSFontService,sans-serif" font-weight="400" font-size="41" transform="matrix(1 0 0 1 1219.17 1613)">2%</text></g><g clip-path="url(#clip21)"><text fill="#595959" font-family="Calibri,Calibri_MSFontService,sans-serif" font-weight="400" font-size="41" transform="matrix(1 0 0 1 1219.17 1492)">3%</text></g><g clip-path="url(#clip22)"><text fill="#595959" font-family="Calibri,Calibri_MSFontService,sans-serif" font-weight="400" font-size="41" transform="matrix(1 0 0 1 1219.17 1370)">4%</text></g><g clip-path="url(#clip23)"><text fill="#595959" font-family="Calibri,Calibri_MSFontService,sans-serif" font-weight="400" font-size="41" transform="matrix(1 0 0 1 1219.17 1249)">5%</text></g><g clip-path="url(#clip24)"><text fill="#595959" font-family="Calibri,Calibri_MSFontService,sans-serif" font-weight="400" font-size="41" transform="matrix(1 0 0 1 1219.17 1128)">6%</text></g><g clip-path="url(#clip25)"><text fill="#595959" font-family="Calibri,Calibri_MSFontService,sans-serif" font-weight="400" font-size="41" transform="matrix(1 0 0 1 1420.79 1910)">getNode</text></g><g clip-path="url(#clip26)"><text fill="#595959" font-family="Calibri,Calibri_MSFontService,sans-serif" font-weight="400" font-size="41" transform="matrix(1 0 0 1 1802.75 1910)">getLink</text></g><g clip-path="url(#clip27)"><text fill="#595959" font-family="Calibri,Calibri_MSFontService,sans-serif" font-weight="400" font-size="41" transform="matrix(1 0 0 1 2151.73 1910)">countLink</text></g><g clip-path="url(#clip28)"><text fill="#595959" font-family="Calibri,Calibri_MSFontService,sans-serif" font-weight="400" font-size="41" transform="matrix(1 0 0 1 2514.93 1910)">getLinkList</text></g><g clip-path="url(#clip29)"><rect x="1544" y="1978" width="23" height="23" fill="#ED7D31"/></g><g clip-path="url(#clip30)"><text fill="#595959" font-family="Calibri,Calibri_MSFontService,sans-serif" font-weight="400" font-size="41" transform="matrix(1 0 0 1 1576.42 2001)">Db2 Graph Beta 3</text></g><g clip-path="url(#clip31)"><rect x="1930" y="1978" width="22.9996" height="23" fill="#4472C4"/></g><g clip-path="url(#clip32)"><text fill="#595959" font-family="Calibri,Calibri_MSFontService,sans-serif" font-weight="400" font-size="41" transform="matrix(1 0 0 1 1962.73 2001)">Db2 Graph V11.5.6.0</text></g><g clip-path="url(#clip33)"><rect x="2369" y="1978" width="23" height="23" fill="#92D050"/></g><g clip-path="url(#clip34)"><text fill="#595959" font-family="Calibri,Calibri_MSFontService,sans-serif" font-weight="400" font-size="41" transform="matrix(1 0 0 1 2401.39 2001)">Neo4j</text></g></g></svg>