<svg width="1650" height="990" xmlns="http://www.w3.org/2000/svg" xmlns:xlink="http://www.w3.org/1999/xlink" overflow="hidden"><defs><clipPath id="clip0"><rect x="1751" y="1098" width="1650" height="990"/></clipPath><clipPath id="clip1"><rect x="1751" y="1098" width="1650" height="990"/></clipPath><clipPath id="clip2"><rect x="1890" y="1148" width="1464" height="732"/></clipPath><clipPath id="clip3"><rect x="1890" y="1148" width="1464" height="732"/></clipPath><clipPath id="clip4"><rect x="1751" y="1098" width="1650" height="990"/></clipPath><clipPath id="clip5"><rect x="1751" y="1098" width="1650" height="990"/></clipPath><clipPath id="clip6"><rect x="1751" y="1098" width="1650" height="990"/></clipPath><clipPath id="clip7"><rect x="1751" y="1098" width="1650" height="990"/></clipPath><clipPath id="clip8"><rect x="1751" y="1098" width="1650" height="990"/></clipPath><clipPath id="clip9"><rect x="1751" y="1098" width="1650" height="990"/></clipPath><clipPath id="clip10"><rect x="1751" y="1098" width="1650" height="990"/></clipPath><clipPath id="clip11"><rect x="1751" y="1098" width="1650" height="990"/></clipPath><clipPath id="clip12"><rect x="1751" y="1098" width="1650" height="990"/></clipPath><clipPath id="clip13"><rect x="1751" y="1098" width="1650" height="990"/></clipPath><clipPath id="clip14"><rect x="1751" y="1098" width="1650" height="990"/></clipPath><clipPath id="clip15"><rect x="1751" y="1098" width="1650" height="990"/></clipPath><clipPath id="clip16"><rect x="1751" y="1098" width="1650" height="990"/></clipPath><clipPath id="clip17"><rect x="1751" y="1098" width="1650" height="990"/></clipPath><clipPath id="clip18"><rect x="1751" y="1098" width="1650" height="990"/></clipPath><clipPath id="clip19"><rect x="1751" y="1098" width="1650" height="990"/></clipPath><clipPath id="clip20"><rect x="1751" y="1098" width="1650" height="990"/></clipPath><clipPath id="clip21"><rect x="1751" y="1098" width="1650" height="990"/></clipPath><clipPath id="clip22"><rect x="1751" y="1098" width="1650" height="990"/></clipPath><clipPath id="clip23"><rect x="1751" y="1098" width="1650" height="990"/></clipPath><clipPath id="clip24"><rect x="1751" y="1098" width="1650" height="990"/></clipPath><clipPath id="clip25"><rect x="1751" y="1098" width="1650" height="990"/></clipPath><clipPath id="clip26"><rect x="1751" y="1098" width="1650" height="990"/></clipPath><clipPath id="clip27"><rect x="1751" y="1098" width="1650" height="990"/></clipPath></defs><g clip-path="url(#clip0)" transform="translate(-1751 -1098)"><rect x="1751" y="1098" width="1650" height="990" fill="#FFFFFF"/><g clip-path="url(#clip1)"><path d="M1890.5 1755.56 3350.5 1755.56M1890.5 1634.55 3350.5 1634.55M1890.5 1512.55 3350.5 1512.55M1890.5 1391.55 3350.5 1391.55M1890.5 1270.54 3350.5 1270.54M1890.5 1148.5 3350.5 1148.5" stroke="#D9D9D9" stroke-width="3.4375" stroke-linejoin="round" stroke-miterlimit="10" fill="none"/></g><g clip-path="url(#clip2)"><path d="M1980.06 1696.06 2062.07 1696.06 2062.07 1877 1980.06 1877ZM2345.08 1769.06 2427.08 1769.06 2427.08 1877 2345.08 1877ZM2710.09 1810.06 2792.09 1810.06 2792.09 1877 2710.09 1877ZM3075.1 1710.06 3157.1 1710.06 3157.1 1877 3075.1 1877Z" fill="#4472C4"/></g><g clip-path="url(#clip3)"><path d="M2084.07 1814.06 2166.07 1814.06 2166.07 1877 2084.07 1877ZM2449.08 1241.04 2531.08 1241.04 2531.08 1877 2449.08 1877ZM2814.09 1328.04 2896.09 1328.04 2896.09 1877 2814.09 1877ZM3179.1 1444.05 3261.11 1444.05 3261.11 1877 3179.1 1877Z" fill="#92D050"/></g><g clip-path="url(#clip4)"><path d="M1890.5 1877.5 3350.5 1877.5" stroke="#D9D9D9" stroke-width="3.4375" stroke-linejoin="round" stroke-miterlimit="10" fill="none" fill-rule="evenodd"/></g><g clip-path="url(#clip5)"><text fill="#404040" font-family="Calibri,Calibri_MSFontService,sans-serif" font-weight="400" font-size="41" transform="matrix(1 0 0 1 1970.07 1664)">2,98%</text></g><g clip-path="url(#clip6)"><text fill="#404040" font-family="Calibri,Calibri_MSFontService,sans-serif" font-weight="400" font-size="41" transform="matrix(1 0 0 1 2335.13 1737)">1,79%</text></g><g clip-path="url(#clip7)"><text fill="#404040" font-family="Calibri,Calibri_MSFontService,sans-serif" font-weight="400" font-size="41" transform="matrix(1 0 0 1 2700.19 1778)">1,10%</text></g><g clip-path="url(#clip8)"><text fill="#404040" font-family="Calibri,Calibri_MSFontService,sans-serif" font-weight="400" font-size="41" transform="matrix(1 0 0 1 3065.24 1678)">2,76%</text></g><g clip-path="url(#clip9)"><text fill="#404040" font-family="Calibri,Calibri_MSFontService,sans-serif" font-weight="400" font-size="41" transform="matrix(1 0 0 1 2074.02 1782)">1,05%</text></g><g clip-path="url(#clip10)"><text fill="#404040" font-family="Calibri,Calibri_MSFontService,sans-serif" font-weight="400" font-size="41" transform="matrix(1 0 0 1 2428.63 1209)">10,48%</text></g><g clip-path="url(#clip11)"><text fill="#404040" font-family="Calibri,Calibri_MSFontService,sans-serif" font-weight="400" font-size="41" transform="matrix(1 0 0 1 2804.14 1296)">9,05%</text></g><g clip-path="url(#clip12)"><text fill="#404040" font-family="Calibri,Calibri_MSFontService,sans-serif" font-weight="400" font-size="41" transform="matrix(1 0 0 1 3169.19 1412)">7,14%</text></g><g clip-path="url(#clip13)"><text fill="#595959" font-family="Calibri,Calibri_MSFontService,sans-serif" font-weight="400" font-size="41" transform="matrix(1 0 0 1 1802.1 1889)">0%</text></g><g clip-path="url(#clip14)"><text fill="#595959" font-family="Calibri,Calibri_MSFontService,sans-serif" font-weight="400" font-size="41" transform="matrix(1 0 0 1 1802.1 1767)">2%</text></g><g clip-path="url(#clip15)"><text fill="#595959" font-family="Calibri,Calibri_MSFontService,sans-serif" font-weight="400" font-size="41" transform="matrix(1 0 0 1 1802.1 1646)">4%</text></g><g clip-path="url(#clip16)"><text fill="#595959" font-family="Calibri,Calibri_MSFontService,sans-serif" font-weight="400" font-size="41" transform="matrix(1 0 0 1 1802.1 1524)">6%</text></g><g clip-path="url(#clip17)"><text fill="#595959" font-family="Calibri,Calibri_MSFontService,sans-serif" font-weight="400" font-size="41" transform="matrix(1 0 0 1 1802.1 1403)">8%</text></g><g clip-path="url(#clip18)"><text fill="#595959" font-family="Calibri,Calibri_MSFontService,sans-serif" font-weight="400" font-size="41" transform="matrix(1 0 0 1 1781.2 1282)">10%</text></g><g clip-path="url(#clip19)"><text fill="#595959" font-family="Calibri,Calibri_MSFontService,sans-serif" font-weight="400" font-size="41" transform="matrix(1 0 0 1 1781.2 1160)">12%</text></g><g clip-path="url(#clip20)"><text fill="#595959" font-family="Calibri,Calibri_MSFontService,sans-serif" font-weight="400" font-size="41" transform="matrix(1 0 0 1 2001.11 1942)">getNode</text></g><g clip-path="url(#clip21)"><text fill="#595959" font-family="Calibri,Calibri_MSFontService,sans-serif" font-weight="400" font-size="41" transform="matrix(1 0 0 1 2377.84 1942)">getLink</text></g><g clip-path="url(#clip22)"><text fill="#595959" font-family="Calibri,Calibri_MSFontService,sans-serif" font-weight="400" font-size="41" transform="matrix(1 0 0 1 2721.6 1942)">countLink</text></g><g clip-path="url(#clip23)"><text fill="#595959" font-family="Calibri,Calibri_MSFontService,sans-serif" font-weight="400" font-size="41" transform="matrix(1 0 0 1 3079.58 1942)">getLinkList</text></g><g clip-path="url(#clip24)"><rect x="2303" y="2011" width="23" height="22" fill="#4472C4"/></g><g clip-path="url(#clip25)"><text fill="#595959" font-family="Calibri,Calibri_MSFontService,sans-serif" font-weight="400" font-size="41" transform="matrix(1 0 0 1 2335.67 2034)">Db2 Graph V11.5.6.0</text></g><g clip-path="url(#clip26)"><rect x="2734" y="2011" width="23" height="22" fill="#92D050"/></g><g clip-path="url(#clip27)"><text fill="#595959" font-family="Calibri,Calibri_MSFontService,sans-serif" font-weight="400" font-size="41" transform="matrix(1 0 0 1 2766.2 2034)">Neo4j</text></g></g></svg>