<svg width="1650" height="990" xmlns="http://www.w3.org/2000/svg" xmlns:xlink="http://www.w3.org/1999/xlink" overflow="hidden"><defs><clipPath id="clip0"><rect x="0" y="1088" width="1650" height="990"/></clipPath><clipPath id="clip1"><rect x="0" y="1087" width="1650" height="990"/></clipPath><clipPath id="clip2"><rect x="139" y="1138" width="1464" height="732"/></clipPath><clipPath id="clip3"><rect x="139" y="1138" width="1464" height="732"/></clipPath><clipPath id="clip4"><rect x="0" y="1087" width="1650" height="990"/></clipPath><clipPath id="clip5"><rect x="0" y="1087" width="1650" height="990"/></clipPath><clipPath id="clip6"><rect x="0" y="1087" width="1650" height="990"/></clipPath><clipPath id="clip7"><rect x="0" y="1087" width="1650" height="990"/></clipPath><clipPath id="clip8"><rect x="0" y="1087" width="1650" height="990"/></clipPath><clipPath id="clip9"><rect x="0" y="1087" width="1650" height="990"/></clipPath><clipPath id="clip10"><rect x="0" y="1087" width="1650" height="990"/></clipPath><clipPath id="clip11"><rect x="0" y="1087" width="1650" height="990"/></clipPath><clipPath id="clip12"><rect x="0" y="1087" width="1650" height="990"/></clipPath><clipPath id="clip13"><rect x="0" y="1087" width="1650" height="990"/></clipPath><clipPath id="clip14"><rect x="0" y="1087" width="1650" height="990"/></clipPath><clipPath id="clip15"><rect x="0" y="1087" width="1650" height="990"/></clipPath><clipPath id="clip16"><rect x="0" y="1087" width="1650" height="990"/></clipPath><clipPath id="clip17"><rect x="0" y="1087" width="1650" height="990"/></clipPath><clipPath id="clip18"><rect x="0" y="1087" width="1650" height="990"/></clipPath><clipPath id="clip19"><rect x="0" y="1087" width="1650" height="990"/></clipPath><clipPath id="clip20"><rect x="0" y="1087" width="1650" height="990"/></clipPath><clipPath id="clip21"><rect x="0" y="1087" width="1650" height="990"/></clipPath><clipPath id="clip22"><rect x="0" y="1087" width="1650" height="990"/></clipPath><clipPath id="clip23"><rect x="0" y="1087" width="1650" height="990"/></clipPath><clipPath id="clip24"><rect x="0" y="1087" width="1650" height="990"/></clipPath><clipPath id="clip25"><rect x="0" y="1087" width="1650" height="990"/></clipPath><clipPath id="clip26"><rect x="0" y="1087" width="1650" height="990"/></clipPath><clipPath id="clip27"><rect x="0" y="1087" width="1650" height="990"/></clipPath><clipPath id="clip28"><rect x="0" y="1087" width="1650" height="990"/></clipPath><clipPath id="clip29"><rect x="0" y="1087" width="1650" height="990"/></clipPath><clipPath id="clip30"><rect x="0" y="1087" width="1650" height="990"/></clipPath></defs><g clip-path="url(#clip0)" transform="matrix(1 0 0 1 0 -1088)"><rect x="0" y="1088" width="1650" height="990" fill="#FFFFFF"/><g clip-path="url(#clip1)"><path d="M139.5 1785.56 1599.5 1785.56M139.5 1704.56 1599.5 1704.56M139.5 1623.55 1599.5 1623.55M139.5 1543.55 1599.5 1543.55M139.5 1462.55 1599.5 1462.55M139.5 1381.55 1599.5 1381.55M139.5 1300.54 1599.5 1300.54M139.5 1219.54 1599.5 1219.54M139.5 1138.5 1599.5 1138.5" stroke="#D9D9D9" stroke-width="3.4375" stroke-linejoin="round" stroke-miterlimit="10" fill="none"/></g><g clip-path="url(#clip2)"><path d="M229.008 1835.06 311.01 1835.06 311.01 1867 229.008 1867ZM594.019 1514.05 676.022 1514.05 676.022 1867 594.019 1867ZM959.031 1605.05 1041.03 1605.05 1041.03 1867 959.031 1867ZM1324.04 1689.06 1406.05 1689.06 1406.05 1867 1324.04 1867Z" fill="#4472C4"/></g><g clip-path="url(#clip3)"><path d="M333.011 1640.05 415.014 1640.05 415.014 1867 333.011 1867ZM698.023 1194.04 780.026 1194.04 780.026 1867 698.023 1867ZM1063.03 1457.05 1145.04 1457.05 1145.04 1867 1063.03 1867ZM1428.05 1501.05 1510.05 1501.05 1510.05 1867 1428.05 1867Z" fill="#92D050"/></g><g clip-path="url(#clip4)"><path d="M139.5 1866.5 1599.5 1866.5" stroke="#D9D9D9" stroke-width="3.4375" stroke-linejoin="round" stroke-miterlimit="10" fill="none" fill-rule="evenodd"/></g><g clip-path="url(#clip5)"><text fill="#404040" font-family="Calibri,Calibri_MSFontService,sans-serif" font-weight="400" font-size="41" transform="matrix(1 0 0 1 218.664 1803)">0,79%</text></g><g clip-path="url(#clip6)"><text fill="#404040" font-family="Calibri,Calibri_MSFontService,sans-serif" font-weight="400" font-size="41" transform="matrix(1 0 0 1 583.721 1482)">8,71%</text></g><g clip-path="url(#clip7)"><text fill="#404040" font-family="Calibri,Calibri_MSFontService,sans-serif" font-weight="400" font-size="41" transform="matrix(1 0 0 1 948.779 1573)">6,47%</text></g><g clip-path="url(#clip8)"><text fill="#404040" font-family="Calibri,Calibri_MSFontService,sans-serif" font-weight="400" font-size="41" transform="matrix(1 0 0 1 1313.84 1657)">4,39%</text></g><g clip-path="url(#clip9)"><text fill="#404040" font-family="Calibri,Calibri_MSFontService,sans-serif" font-weight="400" font-size="41" transform="matrix(1 0 0 1 322.615 1608)">5,60%</text></g><g clip-path="url(#clip10)"><text fill="#404040" font-family="Calibri,Calibri_MSFontService,sans-serif" font-weight="400" font-size="41" transform="matrix(1 0 0 1 677.223 1162)">16,64%</text></g><g clip-path="url(#clip11)"><text fill="#404040" font-family="Calibri,Calibri_MSFontService,sans-serif" font-weight="400" font-size="41" transform="matrix(1 0 0 1 1042.28 1425)">10,13%</text></g><g clip-path="url(#clip12)"><text fill="#404040" font-family="Calibri,Calibri_MSFontService,sans-serif" font-weight="400" font-size="41" transform="matrix(1 0 0 1 1417.79 1469)">9,04%</text></g><g clip-path="url(#clip13)"><text fill="#595959" font-family="Calibri,Calibri_MSFontService,sans-serif" font-weight="400" font-size="41" transform="matrix(1 0 0 1 50.6917 1878)">0%</text></g><g clip-path="url(#clip14)"><text fill="#595959" font-family="Calibri,Calibri_MSFontService,sans-serif" font-weight="400" font-size="41" transform="matrix(1 0 0 1 50.6917 1797)">2%</text></g><g clip-path="url(#clip15)"><text fill="#595959" font-family="Calibri,Calibri_MSFontService,sans-serif" font-weight="400" font-size="41" transform="matrix(1 0 0 1 50.6917 1716)">4%</text></g><g clip-path="url(#clip16)"><text fill="#595959" font-family="Calibri,Calibri_MSFontService,sans-serif" font-weight="400" font-size="41" transform="matrix(1 0 0 1 50.6917 1636)">6%</text></g><g clip-path="url(#clip17)"><text fill="#595959" font-family="Calibri,Calibri_MSFontService,sans-serif" font-weight="400" font-size="41" transform="matrix(1 0 0 1 50.6917 1555)">8%</text></g><g clip-path="url(#clip18)"><text fill="#595959" font-family="Calibri,Calibri_MSFontService,sans-serif" font-weight="400" font-size="41" transform="matrix(1 0 0 1 29.7917 1474)">10%</text></g><g clip-path="url(#clip19)"><text fill="#595959" font-family="Calibri,Calibri_MSFontService,sans-serif" font-weight="400" font-size="41" transform="matrix(1 0 0 1 29.7917 1393)">12%</text></g><g clip-path="url(#clip20)"><text fill="#595959" font-family="Calibri,Calibri_MSFontService,sans-serif" font-weight="400" font-size="41" transform="matrix(1 0 0 1 29.7917 1312)">14%</text></g><g clip-path="url(#clip21)"><text fill="#595959" font-family="Calibri,Calibri_MSFontService,sans-serif" font-weight="400" font-size="41" transform="matrix(1 0 0 1 29.7917 1231)">16%</text></g><g clip-path="url(#clip22)"><text fill="#595959" font-family="Calibri,Calibri_MSFontService,sans-serif" font-weight="400" font-size="41" transform="matrix(1 0 0 1 29.7917 1150)">18%</text></g><g clip-path="url(#clip23)"><text fill="#595959" font-family="Calibri,Calibri_MSFontService,sans-serif" font-weight="400" font-size="41" transform="matrix(1 0 0 1 249.705 1932)">getNode</text></g><g clip-path="url(#clip24)"><text fill="#595959" font-family="Calibri,Calibri_MSFontService,sans-serif" font-weight="400" font-size="41" transform="matrix(1 0 0 1 626.439 1932)">getLink</text></g><g clip-path="url(#clip25)"><text fill="#595959" font-family="Calibri,Calibri_MSFontService,sans-serif" font-weight="400" font-size="41" transform="matrix(1 0 0 1 970.195 1932)">countLink</text></g><g clip-path="url(#clip26)"><text fill="#595959" font-family="Calibri,Calibri_MSFontService,sans-serif" font-weight="400" font-size="41" transform="matrix(1 0 0 1 1328.17 1932)">getLinkList</text></g><g clip-path="url(#clip27)"><rect x="552" y="2000" width="23.0001" height="23" fill="#4472C4"/></g><g clip-path="url(#clip28)"><text fill="#595959" font-family="Calibri,Calibri_MSFontService,sans-serif" font-weight="400" font-size="41" transform="matrix(1 0 0 1 584.263 2023)">Db2 Graph V11.5.6.0</text></g><g clip-path="url(#clip29)"><rect x="983" y="2000" width="22" height="23" fill="#92D050"/></g><g clip-path="url(#clip30)"><text fill="#595959" font-family="Calibri,Calibri_MSFontService,sans-serif" font-weight="400" font-size="41" transform="matrix(1 0 0 1 1014.8 2023)">Neo4j</text></g></g></svg>