<svg width="1650" height="990" xmlns="http://www.w3.org/2000/svg" xmlns:xlink="http://www.w3.org/1999/xlink" overflow="hidden"><defs><clipPath id="clip0"><rect x="34" y="3274" width="1650" height="990"/></clipPath><clipPath id="clip1"><rect x="34" y="3274" width="1650" height="990"/></clipPath><clipPath id="clip2"><rect x="220" y="3324" width="1417" height="732"/></clipPath><clipPath id="clip3"><rect x="220" y="3324" width="1417" height="732"/></clipPath><clipPath id="clip4"><rect x="34" y="3274" width="1650" height="990"/></clipPath><clipPath id="clip5"><rect x="34" y="3274" width="1650" height="990"/></clipPath><clipPath id="clip6"><rect x="34" y="3274" width="1650" height="990"/></clipPath><clipPath id="clip7"><rect x="34" y="3274" width="1650" height="990"/></clipPath><clipPath id="clip8"><rect x="34" y="3274" width="1650" height="990"/></clipPath><clipPath id="clip9"><rect x="34" y="3274" width="1650" height="990"/></clipPath><clipPath id="clip10"><rect x="34" y="3274" width="1650" height="990"/></clipPath><clipPath id="clip11"><rect x="34" y="3274" width="1650" height="990"/></clipPath><clipPath id="clip12"><rect x="34" y="3274" width="1650" height="990"/></clipPath><clipPath id="clip13"><rect x="34" y="3274" width="1650" height="990"/></clipPath><clipPath id="clip14"><rect x="34" y="3274" width="1650" height="990"/></clipPath><clipPath id="clip15"><rect x="34" y="3274" width="1650" height="990"/></clipPath><clipPath id="clip16"><rect x="34" y="3274" width="1650" height="990"/></clipPath><clipPath id="clip17"><rect x="34" y="3274" width="1650" height="990"/></clipPath><clipPath id="clip18"><rect x="34" y="3274" width="1650" height="990"/></clipPath><clipPath id="clip19"><rect x="34" y="3274" width="1650" height="990"/></clipPath><clipPath id="clip20"><rect x="34" y="3274" width="1650" height="990"/></clipPath><clipPath id="clip21"><rect x="34" y="3274" width="1650" height="990"/></clipPath><clipPath id="clip22"><rect x="34" y="3274" width="1650" height="990"/></clipPath><clipPath id="clip23"><rect x="34" y="3274" width="1650" height="990"/></clipPath></defs><g clip-path="url(#clip0)" transform="translate(-34 -3274)"><rect x="34" y="3274" width="1650" height="990" fill="#FFFFFF"/><g clip-path="url(#clip1)"><path d="M220.5 3948.63 1633.5 3948.63M220.5 3844.63 1633.5 3844.63M220.5 3740.62 1633.5 3740.62M220.5 3636.62 1633.5 3636.62M220.5 3532.62 1633.5 3532.62M220.5 3428.61 1633.5 3428.61M220.5 3324.5 1633.5 3324.5" stroke="#D9D9D9" stroke-width="3.4375" stroke-linejoin="round" stroke-miterlimit="10" fill="none"/></g><g clip-path="url(#clip2)"><path d="M394.013 3949.13 552.018 3949.13 552.018 4053 394.013 4053ZM1101.04 3949.13 1259.04 3949.13 1259.04 4053 1101.04 4053Z" fill="#4472C4"/></g><g clip-path="url(#clip3)"><path d="M595.02 3420.11 754.025 3420.11 754.025 4053 595.02 4053ZM1302.04 3399.11 1460.05 3399.11 1460.05 4053 1302.04 4053Z" fill="#92D050"/></g><g clip-path="url(#clip4)"><path d="M220.5 4053.5 1633.5 4053.5" stroke="#D9D9D9" stroke-width="3.4375" stroke-linejoin="round" stroke-miterlimit="10" fill="none" fill-rule="evenodd"/></g><g clip-path="url(#clip5)"><text fill="#404040" font-family="Calibri,Calibri_MSFontService,sans-serif" font-weight="400" font-size="41" transform="matrix(1 0 0 1 436.767 3917)">1,00</text></g><g clip-path="url(#clip6)"><text fill="#404040" font-family="Calibri,Calibri_MSFontService,sans-serif" font-weight="400" font-size="41" transform="matrix(1 0 0 1 1143.48 3917)">1,00</text></g><g clip-path="url(#clip7)"><text fill="#404040" font-family="Calibri,Calibri_MSFontService,sans-serif" font-weight="400" font-size="41" transform="matrix(1 0 0 1 638.007 3388)">6,08</text></g><g clip-path="url(#clip8)"><text fill="#404040" font-family="Calibri,Calibri_MSFontService,sans-serif" font-weight="400" font-size="41" transform="matrix(1 0 0 1 1344.72 3367)">6,29</text></g><g clip-path="url(#clip9)"><text fill="#595959" font-family="Calibri,Calibri_MSFontService,sans-serif" font-weight="400" font-size="41" transform="matrix(1 0 0 1 161.356 4065)">0</text></g><g clip-path="url(#clip10)"><text fill="#595959" font-family="Calibri,Calibri_MSFontService,sans-serif" font-weight="400" font-size="41" transform="matrix(1 0 0 1 161.356 3961)">1</text></g><g clip-path="url(#clip11)"><text fill="#595959" font-family="Calibri,Calibri_MSFontService,sans-serif" font-weight="400" font-size="41" transform="matrix(1 0 0 1 161.356 3856)">2</text></g><g clip-path="url(#clip12)"><text fill="#595959" font-family="Calibri,Calibri_MSFontService,sans-serif" font-weight="400" font-size="41" transform="matrix(1 0 0 1 161.356 3752)">3</text></g><g clip-path="url(#clip13)"><text fill="#595959" font-family="Calibri,Calibri_MSFontService,sans-serif" font-weight="400" font-size="41" transform="matrix(1 0 0 1 161.356 3648)">4</text></g><g clip-path="url(#clip14)"><text fill="#595959" font-family="Calibri,Calibri_MSFontService,sans-serif" font-weight="400" font-size="41" transform="matrix(1 0 0 1 161.356 3544)">5</text></g><g clip-path="url(#clip15)"><text fill="#595959" font-family="Calibri,Calibri_MSFontService,sans-serif" font-weight="400" font-size="41" transform="matrix(1 0 0 1 161.356 3440)">6</text></g><g clip-path="url(#clip16)"><text fill="#595959" font-family="Calibri,Calibri_MSFontService,sans-serif" font-weight="400" font-size="41" transform="matrix(1 0 0 1 161.356 3336)">7</text></g><g clip-path="url(#clip17)"><text fill="#595959" font-family="Calibri,Calibri_MSFontService,sans-serif" font-weight="400" font-size="41" transform="matrix(1 0 0 1 401.525 4118)">Linkbench-Real-10M</text></g><g clip-path="url(#clip18)"><text fill="#595959" font-family="Calibri,Calibri_MSFontService,sans-serif" font-weight="400" font-size="41" transform="matrix(1 0 0 1 1097.79 4118)">Linkbench-Real-100M</text></g><g clip-path="url(#clip19)"><text fill="#595959" font-family="Calibri,Calibri_MSFontService,sans-serif" font-weight="400" font-size="46" transform="matrix(6.12323e-17 -1 1 6.12323e-17 135.667 3749)">Faktor</text></g><g clip-path="url(#clip20)"><rect x="586" y="4187" width="23.0001" height="22" fill="#4472C4"/></g><g clip-path="url(#clip21)"><text fill="#595959" font-family="Calibri,Calibri_MSFontService,sans-serif" font-weight="400" font-size="41" transform="matrix(1 0 0 1 618.638 4210)">Db2 Graph V11.5.6.0</text></g><g clip-path="url(#clip22)"><rect x="1017" y="4187" width="22.9997" height="22" fill="#92D050"/></g><g clip-path="url(#clip23)"><text fill="#595959" font-family="Calibri,Calibri_MSFontService,sans-serif" font-weight="400" font-size="41" transform="matrix(1 0 0 1 1049.17 4210)">Neo4j</text></g></g></svg>