<svg width="1650" height="991" xmlns="http://www.w3.org/2000/svg" xmlns:xlink="http://www.w3.org/1999/xlink" overflow="hidden"><defs><clipPath id="clip0"><rect x="1416" y="2256" width="1650" height="991"/></clipPath><clipPath id="clip1"><rect x="1416" y="2256" width="1650" height="990"/></clipPath><clipPath id="clip2"><rect x="1602" y="2307" width="1417" height="731"/></clipPath><clipPath id="clip3"><rect x="1602" y="2307" width="1417" height="731"/></clipPath><clipPath id="clip4"><rect x="1602" y="2307" width="1417" height="731"/></clipPath><clipPath id="clip5"><rect x="1416" y="2256" width="1650" height="990"/></clipPath><clipPath id="clip6"><rect x="1416" y="2256" width="1650" height="990"/></clipPath><clipPath id="clip7"><rect x="1416" y="2256" width="1650" height="990"/></clipPath><clipPath id="clip8"><rect x="1416" y="2256" width="1650" height="990"/></clipPath><clipPath id="clip9"><rect x="1416" y="2256" width="1650" height="990"/></clipPath><clipPath id="clip10"><rect x="1416" y="2256" width="1650" height="990"/></clipPath><clipPath id="clip11"><rect x="1416" y="2256" width="1650" height="990"/></clipPath><clipPath id="clip12"><rect x="1416" y="2256" width="1650" height="990"/></clipPath><clipPath id="clip13"><rect x="1416" y="2256" width="1650" height="990"/></clipPath><clipPath id="clip14"><rect x="1416" y="2256" width="1650" height="990"/></clipPath><clipPath id="clip15"><rect x="1416" y="2256" width="1650" height="990"/></clipPath><clipPath id="clip16"><rect x="1416" y="2256" width="1650" height="990"/></clipPath><clipPath id="clip17"><rect x="1416" y="2256" width="1650" height="990"/></clipPath><clipPath id="clip18"><rect x="1416" y="2256" width="1650" height="990"/></clipPath><clipPath id="clip19"><rect x="1416" y="2256" width="1650" height="990"/></clipPath><clipPath id="clip20"><rect x="1416" y="2256" width="1650" height="990"/></clipPath><clipPath id="clip21"><rect x="1416" y="2256" width="1650" height="990"/></clipPath><clipPath id="clip22"><rect x="1416" y="2256" width="1650" height="990"/></clipPath><clipPath id="clip23"><rect x="1416" y="2256" width="1650" height="990"/></clipPath><clipPath id="clip24"><rect x="1416" y="2256" width="1650" height="990"/></clipPath><clipPath id="clip25"><rect x="1416" y="2256" width="1650" height="990"/></clipPath><clipPath id="clip26"><rect x="1416" y="2256" width="1650" height="990"/></clipPath><clipPath id="clip27"><rect x="1416" y="2256" width="1650" height="990"/></clipPath><clipPath id="clip28"><rect x="1416" y="2256" width="1650" height="990"/></clipPath></defs><g clip-path="url(#clip0)" transform="translate(-1416 -2256)"><rect x="1416" y="2257" width="1650" height="990" fill="#FFFFFF"/><g clip-path="url(#clip1)"><path d="M1602.5 2931.6 3015.5 2931.6M1602.5 2827.59 3015.5 2827.59M1602.5 2723.59 3015.5 2723.59M1602.5 2619.59 3015.5 2619.59M1602.5 2515.58 3015.5 2515.58M1602.5 2411.58 3015.5 2411.58M1602.5 2307.5 3015.5 2307.5" stroke="#D9D9D9" stroke-width="3.4375" stroke-linejoin="round" stroke-miterlimit="10" fill="none"/></g><g clip-path="url(#clip2)"><path d="M1737.06 2801.09 1861.06 2801.09 1861.06 3036 1737.06 3036ZM2444.08 2806.09 2567.08 2806.09 2567.08 3036 2444.08 3036Z" fill="#ED7D31"/></g><g clip-path="url(#clip3)"><path d="M1894.06 2931.1 2017.07 2931.1 2017.07 3036 1894.06 3036ZM2601.09 2931.1 2724.09 2931.1 2724.09 3036 2601.09 3036Z" fill="#4472C4"/></g><g clip-path="url(#clip4)"><path d="M2051.07 2334.08 2174.07 2334.08 2174.07 3036 2051.07 3036ZM2757.09 2348.08 2881.09 2348.08 2881.09 3036 2757.09 3036Z" fill="#92D050"/></g><g clip-path="url(#clip5)"><path d="M1602.5 3035.5 3015.5 3035.5" stroke="#D9D9D9" stroke-width="3.4375" stroke-linejoin="round" stroke-miterlimit="10" fill="none" fill-rule="evenodd"/></g><g clip-path="url(#clip6)"><text fill="#404040" font-family="Calibri,Calibri_MSFontService,sans-serif" font-weight="400" font-size="41" transform="matrix(1 0 0 1 1762.62 2769)">2,25</text></g><g clip-path="url(#clip7)"><text fill="#404040" font-family="Calibri,Calibri_MSFontService,sans-serif" font-weight="400" font-size="41" transform="matrix(1 0 0 1 2469.34 2774)">2,21</text></g><g clip-path="url(#clip8)"><text fill="#404040" font-family="Calibri,Calibri_MSFontService,sans-serif" font-weight="400" font-size="41" transform="matrix(1 0 0 1 1919.26 2900)">1,00</text></g><g clip-path="url(#clip9)"><text fill="#404040" font-family="Calibri,Calibri_MSFontService,sans-serif" font-weight="400" font-size="41" transform="matrix(1 0 0 1 2625.98 2900)">1,00</text></g><g clip-path="url(#clip10)"><text fill="#404040" font-family="Calibri,Calibri_MSFontService,sans-serif" font-weight="400" font-size="41" transform="matrix(1 0 0 1 2075.9 2303)">6,75</text></g><g clip-path="url(#clip11)"><text fill="#404040" font-family="Calibri,Calibri_MSFontService,sans-serif" font-weight="400" font-size="41" transform="matrix(1 0 0 1 2782.62 2316)">6,61</text></g><g clip-path="url(#clip12)"><text fill="#595959" font-family="Calibri,Calibri_MSFontService,sans-serif" font-weight="400" font-size="41" transform="matrix(1 0 0 1 1543.23 3047)">0</text></g><g clip-path="url(#clip13)"><text fill="#595959" font-family="Calibri,Calibri_MSFontService,sans-serif" font-weight="400" font-size="41" transform="matrix(1 0 0 1 1543.23 2943)">1</text></g><g clip-path="url(#clip14)"><text fill="#595959" font-family="Calibri,Calibri_MSFontService,sans-serif" font-weight="400" font-size="41" transform="matrix(1 0 0 1 1543.23 2839)">2</text></g><g clip-path="url(#clip15)"><text fill="#595959" font-family="Calibri,Calibri_MSFontService,sans-serif" font-weight="400" font-size="41" transform="matrix(1 0 0 1 1543.23 2735)">3</text></g><g clip-path="url(#clip16)"><text fill="#595959" font-family="Calibri,Calibri_MSFontService,sans-serif" font-weight="400" font-size="41" transform="matrix(1 0 0 1 1543.23 2631)">4</text></g><g clip-path="url(#clip17)"><text fill="#595959" font-family="Calibri,Calibri_MSFontService,sans-serif" font-weight="400" font-size="41" transform="matrix(1 0 0 1 1543.23 2527)">5</text></g><g clip-path="url(#clip18)"><text fill="#595959" font-family="Calibri,Calibri_MSFontService,sans-serif" font-weight="400" font-size="41" transform="matrix(1 0 0 1 1543.23 2423)">6</text></g><g clip-path="url(#clip19)"><text fill="#595959" font-family="Calibri,Calibri_MSFontService,sans-serif" font-weight="400" font-size="41" transform="matrix(1 0 0 1 1543.23 2319)">7</text></g><g clip-path="url(#clip20)"><text fill="#595959" font-family="Calibri,Calibri_MSFontService,sans-serif" font-weight="400" font-size="41" transform="matrix(1 0 0 1 1771.78 3101)">Linkbench-10M-Const</text></g><g clip-path="url(#clip21)"><text fill="#595959" font-family="Calibri,Calibri_MSFontService,sans-serif" font-weight="400" font-size="41" transform="matrix(1 0 0 1 2468.05 3101)">Linkbench-100M-Const</text></g><g clip-path="url(#clip22)"><text fill="#595959" font-family="Calibri,Calibri_MSFontService,sans-serif" font-weight="400" font-size="46" transform="matrix(6.12323e-17 -1 1 6.12323e-17 1517.54 2731)">Faktor</text></g><g clip-path="url(#clip23)"><rect x="1771" y="3169" width="23" height="23" fill="#ED7D31"/></g><g clip-path="url(#clip24)"><text fill="#595959" font-family="Calibri,Calibri_MSFontService,sans-serif" font-weight="400" font-size="41" transform="matrix(1 0 0 1 1803.3 3192)">Db2 Graph Beta 3</text></g><g clip-path="url(#clip25)"><rect x="2157" y="3169" width="23" height="23" fill="#4472C4"/></g><g clip-path="url(#clip26)"><text fill="#595959" font-family="Calibri,Calibri_MSFontService,sans-serif" font-weight="400" font-size="41" transform="matrix(1 0 0 1 2189.61 3192)">Db2 Graph V11.5.6.0</text></g><g clip-path="url(#clip27)"><rect x="2596" y="3169" width="23" height="23" fill="#92D050"/></g><g clip-path="url(#clip28)"><text fill="#595959" font-family="Calibri,Calibri_MSFontService,sans-serif" font-weight="400" font-size="41" transform="matrix(1 0 0 1 2628.26 3192)">Neo4j</text></g></g></svg>