<svg width="1650" height="990" xmlns="http://www.w3.org/2000/svg" xmlns:xlink="http://www.w3.org/1999/xlink" overflow="hidden"><defs><clipPath id="clip0"><rect x="1341" y="2167" width="1650" height="990"/></clipPath><clipPath id="clip1"><rect x="1340" y="2167" width="1650" height="990"/></clipPath><clipPath id="clip2"><rect x="1340" y="2167" width="1650" height="990"/></clipPath><clipPath id="clip3"><rect x="1500" y="2217" width="1443" height="635"/></clipPath><clipPath id="clip4"><rect x="1340" y="2167" width="1650" height="990"/></clipPath><clipPath id="clip5"><rect x="1500" y="2217" width="1443" height="635"/></clipPath><clipPath id="clip6"><rect x="1340" y="2167" width="1650" height="990"/></clipPath><clipPath id="clip7"><rect x="1340" y="2167" width="1650" height="990"/></clipPath><clipPath id="clip8"><rect x="1340" y="2167" width="1650" height="990"/></clipPath><clipPath id="clip9"><rect x="1340" y="2167" width="1650" height="990"/></clipPath><clipPath id="clip10"><rect x="1340" y="2167" width="1650" height="990"/></clipPath><clipPath id="clip11"><rect x="1340" y="2167" width="1650" height="990"/></clipPath><clipPath id="clip12"><rect x="1340" y="2167" width="1650" height="990"/></clipPath><clipPath id="clip13"><rect x="1340" y="2167" width="1650" height="990"/></clipPath><clipPath id="clip14"><rect x="1340" y="2167" width="1650" height="990"/></clipPath><clipPath id="clip15"><rect x="1340" y="2167" width="1650" height="990"/></clipPath><clipPath id="clip16"><rect x="1340" y="2167" width="1650" height="990"/></clipPath><clipPath id="clip17"><rect x="1340" y="2167" width="1650" height="990"/></clipPath><clipPath id="clip18"><rect x="1340" y="2167" width="1650" height="990"/></clipPath><clipPath id="clip19"><rect x="1340" y="2167" width="1650" height="990"/></clipPath><clipPath id="clip20"><rect x="1340" y="2167" width="1650" height="990"/></clipPath><clipPath id="clip21"><rect x="1340" y="2167" width="1650" height="990"/></clipPath><clipPath id="clip22"><rect x="1340" y="2167" width="1650" height="990"/></clipPath><clipPath id="clip23"><rect x="1340" y="2167" width="1650" height="990"/></clipPath><clipPath id="clip24"><rect x="1340" y="2167" width="1650" height="990"/></clipPath><clipPath id="clip25"><rect x="1340" y="2167" width="1650" height="990"/></clipPath><clipPath id="clip26"><rect x="1340" y="2167" width="1650" height="990"/></clipPath><clipPath id="clip27"><rect x="1340" y="2167" width="1650" height="990"/></clipPath><clipPath id="clip28"><rect x="1340" y="2167" width="1650" height="990"/></clipPath><clipPath id="clip29"><rect x="1340" y="2167" width="1650" height="990"/></clipPath><clipPath id="clip30"><rect x="1340" y="2167" width="1650" height="990"/></clipPath><clipPath id="clip31"><rect x="1340" y="2167" width="1650" height="990"/></clipPath></defs><g clip-path="url(#clip0)" transform="translate(-1341 -2167)"><rect x="1341" y="2167" width="1650" height="990" fill="#FFFFFF"/><g clip-path="url(#clip1)"><path d="M1500.5 2743.59 2940.5 2743.59M1500.5 2638.59 2940.5 2638.59M1500.5 2533.58 2940.5 2533.58M1500.5 2428.58 2940.5 2428.58M1500.5 2322.58 2940.5 2322.58M1500.5 2217.5 2940.5 2217.5" stroke="#D9D9D9" stroke-width="3.4375" stroke-linejoin="round" stroke-miterlimit="10" fill="none"/></g><g clip-path="url(#clip2)"><path d="M1500.5 2848.5 2940.5 2848.5" stroke="#D9D9D9" stroke-width="3.4375" stroke-linejoin="round" stroke-miterlimit="10" fill="none" fill-rule="evenodd"/></g><g clip-path="url(#clip3)"><path d="M1741 2252 2220.07 2332.08 2700 2700" stroke="#4472C4" stroke-width="10.3125" stroke-linecap="round" stroke-linejoin="round" stroke-miterlimit="10" fill="none"/></g><g clip-path="url(#clip4)"><path d="M1751.12 2252.84C1751.12 2258.92 1746.2 2263.84 1740.12 2263.84 1734.05 2263.84 1729.12 2258.92 1729.12 2252.84 1729.12 2246.77 1734.05 2241.84 1740.12 2241.84 1746.2 2241.84 1751.12 2246.77 1751.12 2252.84Z" stroke="#4472C4" stroke-width="3.4375" stroke-linejoin="round" stroke-miterlimit="10" fill="#4472C4"/><path d="M2231.12 2332.84C2231.12 2338.92 2226.2 2343.84 2220.12 2343.84 2214.05 2343.84 2209.13 2338.92 2209.13 2332.84 2209.13 2326.77 2214.05 2321.84 2220.12 2321.84 2226.2 2321.84 2231.12 2326.77 2231.12 2332.84Z" stroke="#4472C4" stroke-width="3.4375" stroke-linejoin="round" stroke-miterlimit="10" fill="#4472C4"/><path d="M2711.12 2699.84C2711.12 2705.92 2706.2 2710.84 2700.12 2710.84 2694.05 2710.84 2689.12 2705.92 2689.12 2699.84 2689.12 2693.77 2694.05 2688.84 2700.12 2688.84 2706.2 2688.84 2711.12 2693.77 2711.12 2699.84Z" stroke="#4472C4" stroke-width="3.4375" stroke-linejoin="round" stroke-miterlimit="10" fill="#4472C4"/></g><g clip-path="url(#clip5)"><path d="M1741 2330 2220.07 2537.08 2700 2814" stroke="#92D050" stroke-width="10.3125" stroke-linecap="round" stroke-linejoin="round" stroke-miterlimit="10" fill="none"/></g><g clip-path="url(#clip6)"><path d="M1751.12 2329.84C1751.12 2335.92 1746.2 2340.84 1740.12 2340.84 1734.05 2340.84 1729.12 2335.92 1729.12 2329.84 1729.12 2323.77 1734.05 2318.84 1740.12 2318.84 1746.2 2318.84 1751.12 2323.77 1751.12 2329.84Z" stroke="#92D050" stroke-width="3.4375" stroke-linejoin="round" stroke-miterlimit="10" fill="#92D050"/><path d="M2231.12 2536.84C2231.12 2542.92 2226.2 2547.84 2220.12 2547.84 2214.05 2547.84 2209.13 2542.92 2209.13 2536.84 2209.13 2530.77 2214.05 2525.84 2220.12 2525.84 2226.2 2525.84 2231.12 2530.77 2231.12 2536.84Z" stroke="#92D050" stroke-width="3.4375" stroke-linejoin="round" stroke-miterlimit="10" fill="#92D050"/><path d="M2711.12 2814.84C2711.12 2820.92 2706.2 2825.84 2700.12 2825.84 2694.05 2825.84 2689.12 2820.92 2689.12 2814.84 2689.12 2808.77 2694.05 2803.84 2700.12 2803.84 2706.2 2803.84 2711.12 2808.77 2711.12 2814.84Z" stroke="#92D050" stroke-width="3.4375" stroke-linejoin="round" stroke-miterlimit="10" fill="#92D050"/></g><g clip-path="url(#clip7)"><text fill="#404040" font-family="Calibri,Calibri_MSFontService,sans-serif" font-weight="400" font-size="41" transform="matrix(1 0 0 1 1679.07 2213)">96,72%</text></g><g clip-path="url(#clip8)"><text fill="#404040" font-family="Calibri,Calibri_MSFontService,sans-serif" font-weight="400" font-size="41" transform="matrix(1 0 0 1 2158.85 2289)">89,09%</text></g><g clip-path="url(#clip9)"><text fill="#404040" font-family="Calibri,Calibri_MSFontService,sans-serif" font-weight="400" font-size="41" transform="matrix(1 0 0 1 2652.38 2629)">54,18%</text></g><g clip-path="url(#clip10)"><text fill="#404040" font-family="Calibri,Calibri_MSFontService,sans-serif" font-weight="400" font-size="41" transform="matrix(1 0 0 1 1679.07 2309)">89,37%</text></g><g clip-path="url(#clip11)"><text fill="#404040" font-family="Calibri,Calibri_MSFontService,sans-serif" font-weight="400" font-size="41" transform="matrix(1 0 0 1 2158.85 2494)">69,66%</text></g><g clip-path="url(#clip12)"><text fill="#404040" font-family="Calibri,Calibri_MSFontService,sans-serif" font-weight="400" font-size="41" transform="matrix(1 0 0 1 2656.96 2762)">43,29%</text></g><g clip-path="url(#clip13)"><text fill="#595959" font-family="Calibri,Calibri_MSFontService,sans-serif" font-weight="400" font-size="41" transform="matrix(1 0 0 1 1391.32 2861)">40%</text></g><g clip-path="url(#clip14)"><text fill="#595959" font-family="Calibri,Calibri_MSFontService,sans-serif" font-weight="400" font-size="41" transform="matrix(1 0 0 1 1391.32 2755)">50%</text></g><g clip-path="url(#clip15)"><text fill="#595959" font-family="Calibri,Calibri_MSFontService,sans-serif" font-weight="400" font-size="41" transform="matrix(1 0 0 1 1391.32 2650)">60%</text></g><g clip-path="url(#clip16)"><text fill="#595959" font-family="Calibri,Calibri_MSFontService,sans-serif" font-weight="400" font-size="41" transform="matrix(1 0 0 1 1391.32 2545)">70%</text></g><g clip-path="url(#clip17)"><text fill="#595959" font-family="Calibri,Calibri_MSFontService,sans-serif" font-weight="400" font-size="41" transform="matrix(1 0 0 1 1391.32 2440)">80%</text></g><g clip-path="url(#clip18)"><text fill="#595959" font-family="Calibri,Calibri_MSFontService,sans-serif" font-weight="400" font-size="41" transform="matrix(1 0 0 1 1391.32 2335)">90%</text></g><g clip-path="url(#clip19)"><text fill="#595959" font-family="Calibri,Calibri_MSFontService,sans-serif" font-weight="400" font-size="41" transform="matrix(1 0 0 1 1370.42 2229)">100%</text></g><g clip-path="url(#clip20)"><text fill="#595959" font-family="Calibri,Calibri_MSFontService,sans-serif" font-weight="400" font-size="41" transform="matrix(1 0 0 1 1693.76 2914)">1.000</text></g><g clip-path="url(#clip21)"><text fill="#595959" font-family="Calibri,Calibri_MSFontService,sans-serif" font-weight="400" font-size="41" transform="matrix(1 0 0 1 2163.09 2914)">10.000</text></g><g clip-path="url(#clip22)"><text fill="#595959" font-family="Calibri,Calibri_MSFontService,sans-serif" font-weight="400" font-size="41" transform="matrix(1 0 0 1 2632.42 2914)">100.000</text></g><g clip-path="url(#clip23)"><text fill="#595959" font-family="Calibri,Calibri_MSFontService,sans-serif" font-weight="400" font-size="46" transform="matrix(1 0 0 1 2109.74 2983)">Range</text></g><g clip-path="url(#clip24)"><text fill="#595959" font-family="Calibri,Calibri_MSFontService,sans-serif" font-weight="400" font-size="46" transform="matrix(1 0 0 1 2225.03 2983)">-</text></g><g clip-path="url(#clip25)"><text fill="#595959" font-family="Calibri,Calibri_MSFontService,sans-serif" font-weight="400" font-size="46" transform="matrix(1 0 0 1 2240.06 2983)">-Limit</text></g><g clip-path="url(#clip26)"><path d="M1823 3091 1911 3091" stroke="#4472C4" stroke-width="10.3125" stroke-linecap="round" stroke-linejoin="round" stroke-miterlimit="10" fill="none" fill-rule="evenodd"/></g><g clip-path="url(#clip27)"><path d="M1878 3091.5C1878 3097.31 1873.08 3102.02 1867 3102.02 1860.93 3102.02 1856 3097.31 1856 3091.5 1856 3085.69 1860.93 3080.98 1867 3080.98 1873.08 3080.98 1878 3085.69 1878 3091.5Z" stroke="#4472C4" stroke-width="3.4375" stroke-linejoin="round" stroke-miterlimit="10" fill="#4472C4"/></g><g clip-path="url(#clip28)"><text fill="#595959" font-family="Calibri,Calibri_MSFontService,sans-serif" font-weight="400" font-size="41" transform="matrix(1 0 0 1 1920.58 3103)">Db2 Graph V11.5.6.0</text></g><g clip-path="url(#clip29)"><path d="M2327 3091 2415 3091" stroke="#92D050" stroke-width="10.3125" stroke-linecap="round" stroke-linejoin="round" stroke-miterlimit="10" fill="none" fill-rule="evenodd"/></g><g clip-path="url(#clip30)"><path d="M2382 3091.5C2382 3097.31 2377.07 3102.02 2371 3102.02 2364.93 3102.02 2360 3097.31 2360 3091.5 2360 3085.69 2364.93 3080.98 2371 3080.98 2377.07 3080.98 2382 3085.69 2382 3091.5Z" stroke="#92D050" stroke-width="3.4375" stroke-linejoin="round" stroke-miterlimit="10" fill="#92D050"/></g><g clip-path="url(#clip31)"><text fill="#595959" font-family="Calibri,Calibri_MSFontService,sans-serif" font-weight="400" font-size="41" transform="matrix(1 0 0 1 2424.42 3103)">Neo4j</text></g></g></svg>