<svg width="1650" height="990" xmlns="http://www.w3.org/2000/svg" xmlns:xlink="http://www.w3.org/1999/xlink" overflow="hidden"><defs><clipPath id="clip0"><rect x="3352" y="1402" width="1650" height="990"/></clipPath><clipPath id="clip1"><rect x="3351" y="1402" width="1650" height="990"/></clipPath><clipPath id="clip2"><rect x="3351" y="1402" width="1650" height="990"/></clipPath><clipPath id="clip3"><rect x="3631" y="1452" width="1323" height="635"/></clipPath><clipPath id="clip4"><rect x="3351" y="1402" width="1650" height="990"/></clipPath><clipPath id="clip5"><rect x="3631" y="1452" width="1323" height="635"/></clipPath><clipPath id="clip6"><rect x="3351" y="1402" width="1650" height="990"/></clipPath><clipPath id="clip7"><rect x="3351" y="1402" width="1650" height="990"/></clipPath><clipPath id="clip8"><rect x="3351" y="1402" width="1650" height="990"/></clipPath><clipPath id="clip9"><rect x="3351" y="1402" width="1650" height="990"/></clipPath><clipPath id="clip10"><rect x="3351" y="1402" width="1650" height="990"/></clipPath><clipPath id="clip11"><rect x="3351" y="1402" width="1650" height="990"/></clipPath><clipPath id="clip12"><rect x="3351" y="1402" width="1650" height="990"/></clipPath><clipPath id="clip13"><rect x="3351" y="1402" width="1650" height="990"/></clipPath><clipPath id="clip14"><rect x="3351" y="1402" width="1650" height="990"/></clipPath><clipPath id="clip15"><rect x="3351" y="1402" width="1650" height="990"/></clipPath><clipPath id="clip16"><rect x="3351" y="1402" width="1650" height="990"/></clipPath><clipPath id="clip17"><rect x="3351" y="1402" width="1650" height="990"/></clipPath><clipPath id="clip18"><rect x="3351" y="1402" width="1650" height="990"/></clipPath><clipPath id="clip19"><rect x="3351" y="1402" width="1650" height="990"/></clipPath><clipPath id="clip20"><rect x="3351" y="1402" width="1650" height="990"/></clipPath><clipPath id="clip21"><rect x="3351" y="1402" width="1650" height="990"/></clipPath><clipPath id="clip22"><rect x="3351" y="1402" width="1650" height="990"/></clipPath><clipPath id="clip23"><rect x="3351" y="1402" width="1650" height="990"/></clipPath><clipPath id="clip24"><rect x="3351" y="1402" width="1650" height="990"/></clipPath><clipPath id="clip25"><rect x="3351" y="1402" width="1650" height="990"/></clipPath><clipPath id="clip26"><rect x="3351" y="1402" width="1650" height="990"/></clipPath><clipPath id="clip27"><rect x="3351" y="1402" width="1650" height="990"/></clipPath><clipPath id="clip28"><rect x="3351" y="1402" width="1650" height="990"/></clipPath><clipPath id="clip29"><rect x="3351" y="1402" width="1650" height="990"/></clipPath><clipPath id="clip30"><rect x="3351" y="1402" width="1650" height="990"/></clipPath><clipPath id="clip31"><rect x="3351" y="1402" width="1650" height="990"/></clipPath><clipPath id="clip32"><rect x="3351" y="1402" width="1650" height="990"/></clipPath><clipPath id="clip33"><rect x="3351" y="1402" width="1650" height="990"/></clipPath><clipPath id="clip34"><rect x="3351" y="1402" width="1650" height="990"/></clipPath><clipPath id="clip35"><rect x="3351" y="1402" width="1650" height="990"/></clipPath><clipPath id="clip36"><rect x="3351" y="1402" width="1650" height="990"/></clipPath><clipPath id="clip37"><rect x="3351" y="1402" width="1650" height="990"/></clipPath></defs><g clip-path="url(#clip0)" transform="translate(-3352 -1402)"><rect x="3352" y="1403" width="1650" height="989" fill="#FFFFFF"/><g clip-path="url(#clip1)"><path d="M3631.5 2005.57 4951.5 2005.57M3631.5 1926.56 4951.5 1926.56M3631.5 1847.56 4951.5 1847.56M3631.5 1768.56 4951.5 1768.56M3631.5 1689.56 4951.5 1689.56M3631.5 1610.55 4951.5 1610.55M3631.5 1531.55 4951.5 1531.55M3631.5 1452.5 4951.5 1452.5" stroke="#D9D9D9" stroke-width="3.4375" stroke-linejoin="round" stroke-miterlimit="10" fill="none"/></g><g clip-path="url(#clip2)"><path d="M3631.5 2084.5 4951.5 2084.5" stroke="#D9D9D9" stroke-width="3.4375" stroke-linejoin="round" stroke-miterlimit="10" fill="none" fill-rule="evenodd"/></g><g clip-path="url(#clip3)"><path d="M3797 1985 4126.14 1987.07 4456.15 1997.07 4786 2028" stroke="#4472C4" stroke-width="10.3125" stroke-linecap="round" stroke-linejoin="round" stroke-miterlimit="10" fill="none"/></g><g clip-path="url(#clip4)"><path d="M3807.06 1985C3807.06 1991.07 3802.14 1996 3796.06 1996 3789.99 1996 3785.06 1991.07 3785.06 1985 3785.06 1978.92 3789.99 1974 3796.06 1974 3802.14 1974 3807.06 1978.92 3807.06 1985Z" stroke="#4472C4" stroke-width="3.4375" stroke-linejoin="round" stroke-miterlimit="10" fill="#4472C4"/><path d="M4137.06 1987C4137.06 1993.07 4132.14 1998 4126.06 1998 4119.99 1998 4115.06 1993.07 4115.06 1987 4115.06 1980.92 4119.99 1976 4126.06 1976 4132.14 1976 4137.06 1980.92 4137.06 1987Z" stroke="#4472C4" stroke-width="3.4375" stroke-linejoin="round" stroke-miterlimit="10" fill="#4472C4"/><path d="M4467.06 1997C4467.06 2003.07 4462.14 2008 4456.06 2008 4449.99 2008 4445.06 2003.07 4445.06 1997 4445.06 1990.92 4449.99 1986 4456.06 1986 4462.14 1986 4467.06 1990.92 4467.06 1997Z" stroke="#4472C4" stroke-width="3.4375" stroke-linejoin="round" stroke-miterlimit="10" fill="#4472C4"/><path d="M4797.06 2029C4797.06 2035.07 4792.14 2040 4786.06 2040 4779.99 2040 4775.06 2035.07 4775.06 2029 4775.06 2022.92 4779.99 2018 4786.06 2018 4792.14 2018 4797.06 2022.92 4797.06 2029Z" stroke="#4472C4" stroke-width="3.4375" stroke-linejoin="round" stroke-miterlimit="10" fill="#4472C4"/></g><g clip-path="url(#clip5)"><path d="M3797 1463 4126.14 1526.05 4456.15 1651.05 4786 1803" stroke="#92D050" stroke-width="10.3125" stroke-linecap="round" stroke-linejoin="round" stroke-miterlimit="10" fill="none"/></g><g clip-path="url(#clip6)"><path d="M3807.06 1463C3807.06 1469.07 3802.14 1474 3796.06 1474 3789.99 1474 3785.06 1469.07 3785.06 1463 3785.06 1456.92 3789.99 1452 3796.06 1452 3802.14 1452 3807.06 1456.92 3807.06 1463Z" stroke="#92D050" stroke-width="3.4375" stroke-linejoin="round" stroke-miterlimit="10" fill="#92D050"/><path d="M4137.06 1526C4137.06 1532.07 4132.14 1537 4126.06 1537 4119.99 1537 4115.06 1532.07 4115.06 1526 4115.06 1519.92 4119.99 1515 4126.06 1515 4132.14 1515 4137.06 1519.92 4137.06 1526Z" stroke="#92D050" stroke-width="3.4375" stroke-linejoin="round" stroke-miterlimit="10" fill="#92D050"/><path d="M4467.06 1651C4467.06 1657.07 4462.14 1662 4456.06 1662 4449.99 1662 4445.06 1657.07 4445.06 1651 4445.06 1644.92 4449.99 1640 4456.06 1640 4462.14 1640 4467.06 1644.92 4467.06 1651Z" stroke="#92D050" stroke-width="3.4375" stroke-linejoin="round" stroke-miterlimit="10" fill="#92D050"/><path d="M4797.06 1803C4797.06 1809.07 4792.14 1814 4786.06 1814 4779.99 1814 4775.06 1809.07 4775.06 1803 4775.06 1796.92 4779.99 1792 4786.06 1792 4792.14 1792 4797.06 1796.92 4797.06 1803Z" stroke="#92D050" stroke-width="3.4375" stroke-linejoin="round" stroke-miterlimit="10" fill="#92D050"/></g><g clip-path="url(#clip7)"><text fill="#404040" font-family="Calibri,Calibri_MSFontService,sans-serif" font-weight="400" font-size="41" transform="matrix(1 0 0 1 3749.64 1941)">2.524</text></g><g clip-path="url(#clip8)"><text fill="#404040" font-family="Calibri,Calibri_MSFontService,sans-serif" font-weight="400" font-size="41" transform="matrix(1 0 0 1 4079.5 1944)">2.463</text></g><g clip-path="url(#clip9)"><text fill="#404040" font-family="Calibri,Calibri_MSFontService,sans-serif" font-weight="400" font-size="41" transform="matrix(1 0 0 1 4409.36 1953)">2.213</text></g><g clip-path="url(#clip10)"><text fill="#404040" font-family="Calibri,Calibri_MSFontService,sans-serif" font-weight="400" font-size="41" transform="matrix(1 0 0 1 4739.21 1985)">1.415</text></g><g clip-path="url(#clip11)"><text fill="#404040" font-family="Calibri,Calibri_MSFontService,sans-serif" font-weight="400" font-size="41" transform="matrix(1 0 0 1 3739.19 1448)">15.756</text></g><g clip-path="url(#clip12)"><text fill="#404040" font-family="Calibri,Calibri_MSFontService,sans-serif" font-weight="400" font-size="41" transform="matrix(1 0 0 1 4069.05 1483)">14.148</text></g><g clip-path="url(#clip13)"><text fill="#404040" font-family="Calibri,Calibri_MSFontService,sans-serif" font-weight="400" font-size="41" transform="matrix(1 0 0 1 4398.91 1607)">10.989</text></g><g clip-path="url(#clip14)"><text fill="#404040" font-family="Calibri,Calibri_MSFontService,sans-serif" font-weight="400" font-size="41" transform="matrix(1 0 0 1 4739.21 1760)">7.127</text></g><g clip-path="url(#clip15)"><text fill="#595959" font-family="Calibri,Calibri_MSFontService,sans-serif" font-weight="400" font-size="41" transform="matrix(1 0 0 1 3572.55 2096)">0</text></g><g clip-path="url(#clip16)"><text fill="#595959" font-family="Calibri,Calibri_MSFontService,sans-serif" font-weight="400" font-size="41" transform="matrix(1 0 0 1 3499.44 2017)">2.000</text></g><g clip-path="url(#clip17)"><text fill="#595959" font-family="Calibri,Calibri_MSFontService,sans-serif" font-weight="400" font-size="41" transform="matrix(1 0 0 1 3499.44 1938)">4.000</text></g><g clip-path="url(#clip18)"><text fill="#595959" font-family="Calibri,Calibri_MSFontService,sans-serif" font-weight="400" font-size="41" transform="matrix(1 0 0 1 3499.44 1859)">6.000</text></g><g clip-path="url(#clip19)"><text fill="#595959" font-family="Calibri,Calibri_MSFontService,sans-serif" font-weight="400" font-size="41" transform="matrix(1 0 0 1 3499.44 1780)">8.000</text></g><g clip-path="url(#clip20)"><text fill="#595959" font-family="Calibri,Calibri_MSFontService,sans-serif" font-weight="400" font-size="41" transform="matrix(1 0 0 1 3478.54 1701)">10.000</text></g><g clip-path="url(#clip21)"><text fill="#595959" font-family="Calibri,Calibri_MSFontService,sans-serif" font-weight="400" font-size="41" transform="matrix(1 0 0 1 3478.54 1622)">12.000</text></g><g clip-path="url(#clip22)"><text fill="#595959" font-family="Calibri,Calibri_MSFontService,sans-serif" font-weight="400" font-size="41" transform="matrix(1 0 0 1 3478.54 1543)">14.000</text></g><g clip-path="url(#clip23)"><text fill="#595959" font-family="Calibri,Calibri_MSFontService,sans-serif" font-weight="400" font-size="41" transform="matrix(1 0 0 1 3478.54 1464)">16.000</text></g><g clip-path="url(#clip24)"><text fill="#595959" font-family="Calibri,Calibri_MSFontService,sans-serif" font-weight="400" font-size="41" transform="matrix(1 0 0 1 3765.29 2149)">100</text></g><g clip-path="url(#clip25)"><text fill="#595959" font-family="Calibri,Calibri_MSFontService,sans-serif" font-weight="400" font-size="41" transform="matrix(1 0 0 1 4079.5 2149)">1.000</text></g><g clip-path="url(#clip26)"><text fill="#595959" font-family="Calibri,Calibri_MSFontService,sans-serif" font-weight="400" font-size="41" transform="matrix(1 0 0 1 4398.91 2149)">10.000</text></g><g clip-path="url(#clip27)"><text fill="#595959" font-family="Calibri,Calibri_MSFontService,sans-serif" font-weight="400" font-size="41" transform="matrix(1 0 0 1 4718.31 2149)">100.000</text></g><g clip-path="url(#clip28)"><text fill="#595959" font-family="Calibri,Calibri_MSFontService,sans-serif" font-weight="400" font-size="46" transform="matrix(6.12323e-17 -1 1 6.12323e-17 3452.85 2009)">Operationen pro Sekunde</text></g><g clip-path="url(#clip29)"><text fill="#595959" font-family="Calibri,Calibri_MSFontService,sans-serif" font-weight="400" font-size="46" transform="matrix(1 0 0 1 4180.63 2218)">Range</text></g><g clip-path="url(#clip30)"><text fill="#595959" font-family="Calibri,Calibri_MSFontService,sans-serif" font-weight="400" font-size="46" transform="matrix(1 0 0 1 4295.92 2218)">-</text></g><g clip-path="url(#clip31)"><text fill="#595959" font-family="Calibri,Calibri_MSFontService,sans-serif" font-weight="400" font-size="46" transform="matrix(1 0 0 1 4320.95 2218)">-Limit</text></g><g clip-path="url(#clip32)"><path d="M3834 2326 3922 2326" stroke="#4472C4" stroke-width="10.3125" stroke-linecap="round" stroke-linejoin="round" stroke-miterlimit="10" fill="none" fill-rule="evenodd"/></g><g clip-path="url(#clip33)"><path d="M3889 2326C3889 2332.07 3884.07 2337 3878 2337 3871.93 2337 3867 2332.07 3867 2326 3867 2319.92 3871.93 2315 3878 2315 3884.07 2315 3889 2319.92 3889 2326Z" stroke="#4472C4" stroke-width="3.4375" stroke-linejoin="round" stroke-miterlimit="10" fill="#4472C4"/></g><g clip-path="url(#clip34)"><text fill="#595959" font-family="Calibri,Calibri_MSFontService,sans-serif" font-weight="400" font-size="41" transform="matrix(1 0 0 1 3931.51 2338)">Db2 Graph V11.5.6.0</text></g><g clip-path="url(#clip35)"><path d="M4338 2326 4426 2326" stroke="#92D050" stroke-width="10.3125" stroke-linecap="round" stroke-linejoin="round" stroke-miterlimit="10" fill="none" fill-rule="evenodd"/></g><g clip-path="url(#clip36)"><path d="M4393 2326C4393 2332.07 4388.08 2337 4382 2337 4375.92 2337 4371 2332.07 4371 2326 4371 2319.92 4375.92 2315 4382 2315 4388.08 2315 4393 2319.92 4393 2326Z" stroke="#92D050" stroke-width="3.4375" stroke-linejoin="round" stroke-miterlimit="10" fill="#92D050"/></g><g clip-path="url(#clip37)"><text fill="#595959" font-family="Calibri,Calibri_MSFontService,sans-serif" font-weight="400" font-size="41" transform="matrix(1 0 0 1 4435.36 2338)">Neo4j</text></g></g></svg>