<svg width="1650" height="991" xmlns="http://www.w3.org/2000/svg" xmlns:xlink="http://www.w3.org/1999/xlink" overflow="hidden"><defs><clipPath id="clip0"><rect x="1502" y="1414" width="1650" height="991"/></clipPath><clipPath id="clip1"><rect x="1502" y="1414" width="1650" height="990"/></clipPath><clipPath id="clip2"><rect x="1502" y="1414" width="1650" height="990"/></clipPath><clipPath id="clip3"><rect x="1662" y="1464" width="1443" height="635"/></clipPath><clipPath id="clip4"><rect x="1502" y="1414" width="1650" height="990"/></clipPath><clipPath id="clip5"><rect x="1662" y="1464" width="1443" height="635"/></clipPath><clipPath id="clip6"><rect x="1502" y="1414" width="1650" height="990"/></clipPath><clipPath id="clip7"><rect x="1502" y="1414" width="1650" height="990"/></clipPath><clipPath id="clip8"><rect x="1502" y="1414" width="1650" height="990"/></clipPath><clipPath id="clip9"><rect x="1502" y="1414" width="1650" height="990"/></clipPath><clipPath id="clip10"><rect x="1502" y="1414" width="1650" height="990"/></clipPath><clipPath id="clip11"><rect x="1502" y="1414" width="1650" height="990"/></clipPath><clipPath id="clip12"><rect x="1502" y="1414" width="1650" height="990"/></clipPath><clipPath id="clip13"><rect x="1502" y="1414" width="1650" height="990"/></clipPath><clipPath id="clip14"><rect x="1502" y="1414" width="1650" height="990"/></clipPath><clipPath id="clip15"><rect x="1502" y="1414" width="1650" height="990"/></clipPath><clipPath id="clip16"><rect x="1502" y="1414" width="1650" height="990"/></clipPath><clipPath id="clip17"><rect x="1502" y="1414" width="1650" height="990"/></clipPath><clipPath id="clip18"><rect x="1502" y="1414" width="1650" height="990"/></clipPath><clipPath id="clip19"><rect x="1502" y="1414" width="1650" height="990"/></clipPath><clipPath id="clip20"><rect x="1502" y="1414" width="1650" height="990"/></clipPath><clipPath id="clip21"><rect x="1502" y="1414" width="1650" height="990"/></clipPath><clipPath id="clip22"><rect x="1502" y="1414" width="1650" height="990"/></clipPath><clipPath id="clip23"><rect x="1502" y="1414" width="1650" height="990"/></clipPath><clipPath id="clip24"><rect x="1502" y="1414" width="1650" height="990"/></clipPath><clipPath id="clip25"><rect x="1502" y="1414" width="1650" height="990"/></clipPath><clipPath id="clip26"><rect x="1502" y="1414" width="1650" height="990"/></clipPath><clipPath id="clip27"><rect x="1502" y="1414" width="1650" height="990"/></clipPath><clipPath id="clip28"><rect x="1502" y="1414" width="1650" height="990"/></clipPath><clipPath id="clip29"><rect x="1502" y="1414" width="1650" height="990"/></clipPath><clipPath id="clip30"><rect x="1502" y="1414" width="1650" height="990"/></clipPath><clipPath id="clip31"><rect x="1502" y="1414" width="1650" height="990"/></clipPath></defs><g clip-path="url(#clip0)" transform="translate(-1502 -1414)"><rect x="1502" y="1415" width="1650" height="990" fill="#FFFFFF"/><g clip-path="url(#clip1)"><path d="M1662.5 1990.57 3101.5 1990.57M1662.5 1885.56 3101.5 1885.56M1662.5 1780.56 3101.5 1780.56M1662.5 1675.56 3101.5 1675.56M1662.5 1570.55 3101.5 1570.55M1662.5 1464.5 3101.5 1464.5" stroke="#D9D9D9" stroke-width="3.4375" stroke-linejoin="round" stroke-miterlimit="10" fill="none"/></g><g clip-path="url(#clip2)"><path d="M1662.5 2096.5 3101.5 2096.5" stroke="#D9D9D9" stroke-width="3.4375" stroke-linejoin="round" stroke-miterlimit="10" fill="none" fill-rule="evenodd"/></g><g clip-path="url(#clip3)"><path d="M1902 1490 2382.08 1595.05 2862 1927" stroke="#4472C4" stroke-width="10.3125" stroke-linecap="round" stroke-linejoin="round" stroke-miterlimit="10" fill="none"/></g><g clip-path="url(#clip4)"><path d="M1913.69 1490.03C1913.69 1496.11 1908.76 1501.03 1902.69 1501.03 1896.61 1501.03 1891.69 1496.11 1891.69 1490.03 1891.69 1483.96 1896.61 1479.03 1902.69 1479.03 1908.76 1479.03 1913.69 1483.96 1913.69 1490.03Z" stroke="#4472C4" stroke-width="3.4375" stroke-linejoin="round" stroke-miterlimit="10" fill="#4472C4"/><path d="M2393.69 1594.03C2393.69 1600.11 2388.76 1605.03 2382.69 1605.03 2376.61 1605.03 2371.69 1600.11 2371.69 1594.03 2371.69 1587.96 2376.61 1583.03 2382.69 1583.03 2388.76 1583.03 2393.69 1587.96 2393.69 1594.03Z" stroke="#4472C4" stroke-width="3.4375" stroke-linejoin="round" stroke-miterlimit="10" fill="#4472C4"/><path d="M2872.69 1927.03C2872.69 1933.11 2867.76 1938.03 2861.69 1938.03 2855.61 1938.03 2850.69 1933.11 2850.69 1927.03 2850.69 1920.96 2855.61 1916.03 2861.69 1916.03 2867.76 1916.03 2872.69 1920.96 2872.69 1927.03Z" stroke="#4472C4" stroke-width="3.4375" stroke-linejoin="round" stroke-miterlimit="10" fill="#4472C4"/></g><g clip-path="url(#clip5)"><path d="M1902 1572 2382.08 1783.06 2862 2041" stroke="#92D050" stroke-width="10.3125" stroke-linecap="round" stroke-linejoin="round" stroke-miterlimit="10" fill="none"/></g><g clip-path="url(#clip6)"><path d="M1913.69 1572.03C1913.69 1578.11 1908.76 1583.03 1902.69 1583.03 1896.61 1583.03 1891.69 1578.11 1891.69 1572.03 1891.69 1565.96 1896.61 1561.03 1902.69 1561.03 1908.76 1561.03 1913.69 1565.96 1913.69 1572.03Z" stroke="#92D050" stroke-width="3.4375" stroke-linejoin="round" stroke-miterlimit="10" fill="#92D050"/><path d="M2393.69 1783.03C2393.69 1789.11 2388.76 1794.03 2382.69 1794.03 2376.61 1794.03 2371.69 1789.11 2371.69 1783.03 2371.69 1776.96 2376.61 1772.03 2382.69 1772.03 2388.76 1772.03 2393.69 1776.96 2393.69 1783.03Z" stroke="#92D050" stroke-width="3.4375" stroke-linejoin="round" stroke-miterlimit="10" fill="#92D050"/><path d="M2872.69 2041.03C2872.69 2047.11 2867.76 2052.03 2861.69 2052.03 2855.61 2052.03 2850.69 2047.11 2850.69 2041.03 2850.69 2034.96 2855.61 2030.03 2861.69 2030.03 2867.76 2030.03 2872.69 2034.96 2872.69 2041.03Z" stroke="#92D050" stroke-width="3.4375" stroke-linejoin="round" stroke-miterlimit="10" fill="#92D050"/></g><g clip-path="url(#clip7)"><text fill="#404040" font-family="Calibri,Calibri_MSFontService,sans-serif" font-weight="400" font-size="41" transform="matrix(1 0 0 1 1840.64 1460)">97,58%</text></g><g clip-path="url(#clip8)"><text fill="#404040" font-family="Calibri,Calibri_MSFontService,sans-serif" font-weight="400" font-size="41" transform="matrix(1 0 0 1 2320.41 1551)">87,68%</text></g><g clip-path="url(#clip9)"><text fill="#404040" font-family="Calibri,Calibri_MSFontService,sans-serif" font-weight="400" font-size="41" transform="matrix(1 0 0 1 2813.94 1870)">56,06%</text></g><g clip-path="url(#clip10)"><text fill="#404040" font-family="Calibri,Calibri_MSFontService,sans-serif" font-weight="400" font-size="41" transform="matrix(1 0 0 1 1840.64 1538)">89,79%</text></g><g clip-path="url(#clip11)"><text fill="#404040" font-family="Calibri,Calibri_MSFontService,sans-serif" font-weight="400" font-size="41" transform="matrix(1 0 0 1 2320.41 1740)">69,74%</text></g><g clip-path="url(#clip12)"><text fill="#404040" font-family="Calibri,Calibri_MSFontService,sans-serif" font-weight="400" font-size="41" transform="matrix(1 0 0 1 2800.19 1998)">45,23%</text></g><g clip-path="url(#clip13)"><text fill="#595959" font-family="Calibri,Calibri_MSFontService,sans-serif" font-weight="400" font-size="41" transform="matrix(1 0 0 1 1552.88 2108)">40%</text></g><g clip-path="url(#clip14)"><text fill="#595959" font-family="Calibri,Calibri_MSFontService,sans-serif" font-weight="400" font-size="41" transform="matrix(1 0 0 1 1552.88 2003)">50%</text></g><g clip-path="url(#clip15)"><text fill="#595959" font-family="Calibri,Calibri_MSFontService,sans-serif" font-weight="400" font-size="41" transform="matrix(1 0 0 1 1552.88 1897)">60%</text></g><g clip-path="url(#clip16)"><text fill="#595959" font-family="Calibri,Calibri_MSFontService,sans-serif" font-weight="400" font-size="41" transform="matrix(1 0 0 1 1552.88 1792)">70%</text></g><g clip-path="url(#clip17)"><text fill="#595959" font-family="Calibri,Calibri_MSFontService,sans-serif" font-weight="400" font-size="41" transform="matrix(1 0 0 1 1552.88 1687)">80%</text></g><g clip-path="url(#clip18)"><text fill="#595959" font-family="Calibri,Calibri_MSFontService,sans-serif" font-weight="400" font-size="41" transform="matrix(1 0 0 1 1552.88 1582)">90%</text></g><g clip-path="url(#clip19)"><text fill="#595959" font-family="Calibri,Calibri_MSFontService,sans-serif" font-weight="400" font-size="41" transform="matrix(1 0 0 1 1531.98 1476)">100%</text></g><g clip-path="url(#clip20)"><text fill="#595959" font-family="Calibri,Calibri_MSFontService,sans-serif" font-weight="400" font-size="41" transform="matrix(1 0 0 1 1855.33 2161)">1.000</text></g><g clip-path="url(#clip21)"><text fill="#595959" font-family="Calibri,Calibri_MSFontService,sans-serif" font-weight="400" font-size="41" transform="matrix(1 0 0 1 2324.65 2161)">10.000</text></g><g clip-path="url(#clip22)"><text fill="#595959" font-family="Calibri,Calibri_MSFontService,sans-serif" font-weight="400" font-size="41" transform="matrix(1 0 0 1 2793.98 2161)">100.000</text></g><g clip-path="url(#clip23)"><text fill="#595959" font-family="Calibri,Calibri_MSFontService,sans-serif" font-weight="400" font-size="46" transform="matrix(1 0 0 1 2271.3 2230)">Range</text></g><g clip-path="url(#clip24)"><text fill="#595959" font-family="Calibri,Calibri_MSFontService,sans-serif" font-weight="400" font-size="46" transform="matrix(1 0 0 1 2386.6 2230)">-</text></g><g clip-path="url(#clip25)"><text fill="#595959" font-family="Calibri,Calibri_MSFontService,sans-serif" font-weight="400" font-size="46" transform="matrix(1 0 0 1 2411.62 2230)">-Limit</text></g><g clip-path="url(#clip26)"><path d="M1985 2338 2073 2338" stroke="#4472C4" stroke-width="10.3125" stroke-linecap="round" stroke-linejoin="round" stroke-miterlimit="10" fill="none" fill-rule="evenodd"/></g><g clip-path="url(#clip27)"><path d="M2039 2338C2039 2344.07 2034.07 2349 2028 2349 2021.92 2349 2017 2344.07 2017 2338 2017 2331.92 2021.92 2327 2028 2327 2034.07 2327 2039 2331.92 2039 2338Z" stroke="#4472C4" stroke-width="3.4375" stroke-linejoin="round" stroke-miterlimit="10" fill="#4472C4"/></g><g clip-path="url(#clip28)"><text fill="#595959" font-family="Calibri,Calibri_MSFontService,sans-serif" font-weight="400" font-size="41" transform="matrix(1 0 0 1 2082.14 2350)">Db2 Graph V11.5.6.0</text></g><g clip-path="url(#clip29)"><path d="M2489 2338 2577 2338" stroke="#92D050" stroke-width="10.3125" stroke-linecap="round" stroke-linejoin="round" stroke-miterlimit="10" fill="none" fill-rule="evenodd"/></g><g clip-path="url(#clip30)"><path d="M2543 2338C2543 2344.07 2538.07 2349 2532 2349 2525.92 2349 2521 2344.07 2521 2338 2521 2331.92 2525.92 2327 2532 2327 2538.07 2327 2543 2331.92 2543 2338Z" stroke="#92D050" stroke-width="3.4375" stroke-linejoin="round" stroke-miterlimit="10" fill="#92D050"/></g><g clip-path="url(#clip31)"><text fill="#595959" font-family="Calibri,Calibri_MSFontService,sans-serif" font-weight="400" font-size="41" transform="matrix(1 0 0 1 2585.98 2350)">Neo4j</text></g></g></svg>