<svg width="1650" height="990" xmlns="http://www.w3.org/2000/svg" xmlns:xlink="http://www.w3.org/1999/xlink" overflow="hidden"><defs><clipPath id="clip0"><rect x="3097" y="2155" width="1650" height="990"/></clipPath><clipPath id="clip1"><rect x="3097" y="2155" width="1650" height="990"/></clipPath><clipPath id="clip2"><rect x="3097" y="2155" width="1650" height="990"/></clipPath><clipPath id="clip3"><rect x="3377" y="2205" width="1323" height="635"/></clipPath><clipPath id="clip4"><rect x="3097" y="2155" width="1650" height="990"/></clipPath><clipPath id="clip5"><rect x="3377" y="2205" width="1323" height="635"/></clipPath><clipPath id="clip6"><rect x="3097" y="2155" width="1650" height="990"/></clipPath><clipPath id="clip7"><rect x="3097" y="2155" width="1650" height="990"/></clipPath><clipPath id="clip8"><rect x="3097" y="2155" width="1650" height="990"/></clipPath><clipPath id="clip9"><rect x="3097" y="2155" width="1650" height="990"/></clipPath><clipPath id="clip10"><rect x="3097" y="2155" width="1650" height="990"/></clipPath><clipPath id="clip11"><rect x="3097" y="2155" width="1650" height="990"/></clipPath><clipPath id="clip12"><rect x="3097" y="2155" width="1650" height="990"/></clipPath><clipPath id="clip13"><rect x="3097" y="2155" width="1650" height="990"/></clipPath><clipPath id="clip14"><rect x="3097" y="2155" width="1650" height="990"/></clipPath><clipPath id="clip15"><rect x="3097" y="2155" width="1650" height="990"/></clipPath><clipPath id="clip16"><rect x="3097" y="2155" width="1650" height="990"/></clipPath><clipPath id="clip17"><rect x="3097" y="2155" width="1650" height="990"/></clipPath><clipPath id="clip18"><rect x="3097" y="2155" width="1650" height="990"/></clipPath><clipPath id="clip19"><rect x="3097" y="2155" width="1650" height="990"/></clipPath><clipPath id="clip20"><rect x="3097" y="2155" width="1650" height="990"/></clipPath><clipPath id="clip21"><rect x="3097" y="2155" width="1650" height="990"/></clipPath><clipPath id="clip22"><rect x="3097" y="2155" width="1650" height="990"/></clipPath><clipPath id="clip23"><rect x="3097" y="2155" width="1650" height="990"/></clipPath><clipPath id="clip24"><rect x="3097" y="2155" width="1650" height="990"/></clipPath><clipPath id="clip25"><rect x="3097" y="2155" width="1650" height="990"/></clipPath><clipPath id="clip26"><rect x="3097" y="2155" width="1650" height="990"/></clipPath><clipPath id="clip27"><rect x="3097" y="2155" width="1650" height="990"/></clipPath><clipPath id="clip28"><rect x="3097" y="2155" width="1650" height="990"/></clipPath><clipPath id="clip29"><rect x="3097" y="2155" width="1650" height="990"/></clipPath><clipPath id="clip30"><rect x="3097" y="2155" width="1650" height="990"/></clipPath><clipPath id="clip31"><rect x="3097" y="2155" width="1650" height="990"/></clipPath><clipPath id="clip32"><rect x="3097" y="2155" width="1650" height="990"/></clipPath><clipPath id="clip33"><rect x="3097" y="2155" width="1650" height="990"/></clipPath><clipPath id="clip34"><rect x="3097" y="2155" width="1650" height="990"/></clipPath><clipPath id="clip35"><rect x="3097" y="2155" width="1650" height="990"/></clipPath><clipPath id="clip36"><rect x="3097" y="2155" width="1650" height="990"/></clipPath><clipPath id="clip37"><rect x="3097" y="2155" width="1650" height="990"/></clipPath></defs><g clip-path="url(#clip0)" transform="translate(-3097 -2155)"><rect x="3097" y="2155" width="1650" height="990" fill="#FFFFFF"/><g clip-path="url(#clip1)"><path d="M3377.5 2757.59 4696.5 2757.59M3377.5 2679.59 4696.5 2679.59M3377.5 2600.59 4696.5 2600.59M3377.5 2521.58 4696.5 2521.58M3377.5 2442.58 4696.5 2442.58M3377.5 2363.58 4696.5 2363.58M3377.5 2284.58 4696.5 2284.58M3377.5 2205.5 4696.5 2205.5" stroke="#D9D9D9" stroke-width="3.4375" stroke-linejoin="round" stroke-miterlimit="10" fill="none"/></g><g clip-path="url(#clip2)"><path d="M3377.5 2836.5 4696.5 2836.5" stroke="#D9D9D9" stroke-width="3.4375" stroke-linejoin="round" stroke-miterlimit="10" fill="none" fill-rule="evenodd"/></g><g clip-path="url(#clip3)"><path d="M3542 2740 3872.13 2743.09 4202.14 2750.09 4532 2784" stroke="#4472C4" stroke-width="10.3125" stroke-linecap="round" stroke-linejoin="round" stroke-miterlimit="10" fill="none"/></g><g clip-path="url(#clip4)"><path d="M3553.69 2739.81C3553.69 2745.89 3548.76 2750.81 3542.69 2750.81 3536.61 2750.81 3531.69 2745.89 3531.69 2739.81 3531.69 2733.74 3536.61 2728.81 3542.69 2728.81 3548.76 2728.81 3553.69 2733.74 3553.69 2739.81Z" stroke="#4472C4" stroke-width="3.4375" stroke-linejoin="round" stroke-miterlimit="10" fill="#4472C4"/><path d="M3883.69 2742.81C3883.69 2748.89 3878.76 2753.81 3872.69 2753.81 3866.61 2753.81 3861.69 2748.89 3861.69 2742.81 3861.69 2736.74 3866.61 2731.81 3872.69 2731.81 3878.76 2731.81 3883.69 2736.74 3883.69 2742.81Z" stroke="#4472C4" stroke-width="3.4375" stroke-linejoin="round" stroke-miterlimit="10" fill="#4472C4"/><path d="M4212.69 2750.81C4212.69 2756.89 4207.76 2761.81 4201.69 2761.81 4195.61 2761.81 4190.69 2756.89 4190.69 2750.81 4190.69 2744.74 4195.61 2739.81 4201.69 2739.81 4207.76 2739.81 4212.69 2744.74 4212.69 2750.81Z" stroke="#4472C4" stroke-width="3.4375" stroke-linejoin="round" stroke-miterlimit="10" fill="#4472C4"/><path d="M4542.69 2784.81C4542.69 2790.89 4537.76 2795.81 4531.69 2795.81 4525.61 2795.81 4520.69 2790.89 4520.69 2784.81 4520.69 2778.74 4525.61 2773.81 4531.69 2773.81 4537.76 2773.81 4542.69 2778.74 4542.69 2784.81Z" stroke="#4472C4" stroke-width="3.4375" stroke-linejoin="round" stroke-miterlimit="10" fill="#4472C4"/></g><g clip-path="url(#clip5)"><path d="M3542 2216 3872.13 2282.07 4202.14 2404.08 4532 2568" stroke="#92D050" stroke-width="10.3125" stroke-linecap="round" stroke-linejoin="round" stroke-miterlimit="10" fill="none"/></g><g clip-path="url(#clip6)"><path d="M3553.69 2215.81C3553.69 2221.89 3548.76 2226.81 3542.69 2226.81 3536.61 2226.81 3531.69 2221.89 3531.69 2215.81 3531.69 2209.74 3536.61 2204.81 3542.69 2204.81 3548.76 2204.81 3553.69 2209.74 3553.69 2215.81Z" stroke="#92D050" stroke-width="3.4375" stroke-linejoin="round" stroke-miterlimit="10" fill="#92D050"/><path d="M3883.69 2281.81C3883.69 2287.89 3878.76 2292.81 3872.69 2292.81 3866.61 2292.81 3861.69 2287.89 3861.69 2281.81 3861.69 2275.74 3866.61 2270.81 3872.69 2270.81 3878.76 2270.81 3883.69 2275.74 3883.69 2281.81Z" stroke="#92D050" stroke-width="3.4375" stroke-linejoin="round" stroke-miterlimit="10" fill="#92D050"/><path d="M4212.69 2404.81C4212.69 2410.89 4207.76 2415.81 4201.69 2415.81 4195.61 2415.81 4190.69 2410.89 4190.69 2404.81 4190.69 2398.74 4195.61 2393.81 4201.69 2393.81 4207.76 2393.81 4212.69 2398.74 4212.69 2404.81Z" stroke="#92D050" stroke-width="3.4375" stroke-linejoin="round" stroke-miterlimit="10" fill="#92D050"/><path d="M4542.69 2568.81C4542.69 2574.89 4537.76 2579.81 4531.69 2579.81 4525.61 2579.81 4520.69 2574.89 4520.69 2568.81 4520.69 2562.74 4525.61 2557.81 4531.69 2557.81 4537.76 2557.81 4542.69 2562.74 4542.69 2568.81Z" stroke="#92D050" stroke-width="3.4375" stroke-linejoin="round" stroke-miterlimit="10" fill="#92D050"/></g><g clip-path="url(#clip7)"><text fill="#404040" font-family="Calibri,Calibri_MSFontService,sans-serif" font-weight="400" font-size="41" transform="matrix(1 0 0 1 3495.27 2696)">2.466</text></g><g clip-path="url(#clip8)"><text fill="#404040" font-family="Calibri,Calibri_MSFontService,sans-serif" font-weight="400" font-size="41" transform="matrix(1 0 0 1 3825.12 2699)">2.385</text></g><g clip-path="url(#clip9)"><text fill="#404040" font-family="Calibri,Calibri_MSFontService,sans-serif" font-weight="400" font-size="41" transform="matrix(1 0 0 1 4154.98 2707)">2.197</text></g><g clip-path="url(#clip10)"><text fill="#404040" font-family="Calibri,Calibri_MSFontService,sans-serif" font-weight="400" font-size="41" transform="matrix(1 0 0 1 4484.84 2741)">1.336</text></g><g clip-path="url(#clip11)"><text fill="#404040" font-family="Calibri,Calibri_MSFontService,sans-serif" font-weight="400" font-size="41" transform="matrix(1 0 0 1 3484.82 2201)">15.742</text></g><g clip-path="url(#clip12)"><text fill="#404040" font-family="Calibri,Calibri_MSFontService,sans-serif" font-weight="400" font-size="41" transform="matrix(1 0 0 1 3814.67 2239)">14.068</text></g><g clip-path="url(#clip13)"><text fill="#404040" font-family="Calibri,Calibri_MSFontService,sans-serif" font-weight="400" font-size="41" transform="matrix(1 0 0 1 4144.53 2361)">10.966</text></g><g clip-path="url(#clip14)"><text fill="#404040" font-family="Calibri,Calibri_MSFontService,sans-serif" font-weight="400" font-size="41" transform="matrix(1 0 0 1 4484.84 2525)">6.815</text></g><g clip-path="url(#clip15)"><text fill="#595959" font-family="Calibri,Calibri_MSFontService,sans-serif" font-weight="400" font-size="41" transform="matrix(1 0 0 1 3318.17 2849)">0</text></g><g clip-path="url(#clip16)"><text fill="#595959" font-family="Calibri,Calibri_MSFontService,sans-serif" font-weight="400" font-size="41" transform="matrix(1 0 0 1 3245.07 2770)">2.000</text></g><g clip-path="url(#clip17)"><text fill="#595959" font-family="Calibri,Calibri_MSFontService,sans-serif" font-weight="400" font-size="41" transform="matrix(1 0 0 1 3245.07 2691)">4.000</text></g><g clip-path="url(#clip18)"><text fill="#595959" font-family="Calibri,Calibri_MSFontService,sans-serif" font-weight="400" font-size="41" transform="matrix(1 0 0 1 3245.07 2612)">6.000</text></g><g clip-path="url(#clip19)"><text fill="#595959" font-family="Calibri,Calibri_MSFontService,sans-serif" font-weight="400" font-size="41" transform="matrix(1 0 0 1 3245.07 2533)">8.000</text></g><g clip-path="url(#clip20)"><text fill="#595959" font-family="Calibri,Calibri_MSFontService,sans-serif" font-weight="400" font-size="41" transform="matrix(1 0 0 1 3224.17 2454)">10.000</text></g><g clip-path="url(#clip21)"><text fill="#595959" font-family="Calibri,Calibri_MSFontService,sans-serif" font-weight="400" font-size="41" transform="matrix(1 0 0 1 3224.17 2375)">12.000</text></g><g clip-path="url(#clip22)"><text fill="#595959" font-family="Calibri,Calibri_MSFontService,sans-serif" font-weight="400" font-size="41" transform="matrix(1 0 0 1 3224.17 2296)">14.000</text></g><g clip-path="url(#clip23)"><text fill="#595959" font-family="Calibri,Calibri_MSFontService,sans-serif" font-weight="400" font-size="41" transform="matrix(1 0 0 1 3224.17 2217)">16.000</text></g><g clip-path="url(#clip24)"><text fill="#595959" font-family="Calibri,Calibri_MSFontService,sans-serif" font-weight="400" font-size="41" transform="matrix(1 0 0 1 3510.92 2902)">100</text></g><g clip-path="url(#clip25)"><text fill="#595959" font-family="Calibri,Calibri_MSFontService,sans-serif" font-weight="400" font-size="41" transform="matrix(1 0 0 1 3825.12 2902)">1.000</text></g><g clip-path="url(#clip26)"><text fill="#595959" font-family="Calibri,Calibri_MSFontService,sans-serif" font-weight="400" font-size="41" transform="matrix(1 0 0 1 4144.53 2902)">10.000</text></g><g clip-path="url(#clip27)"><text fill="#595959" font-family="Calibri,Calibri_MSFontService,sans-serif" font-weight="400" font-size="41" transform="matrix(1 0 0 1 4463.94 2902)">100.000</text></g><g clip-path="url(#clip28)"><text fill="#595959" font-family="Calibri,Calibri_MSFontService,sans-serif" font-weight="400" font-size="46" transform="matrix(6.12323e-17 -1 1 6.12323e-17 3198.48 2762)">Operationen pro Sekunde</text></g><g clip-path="url(#clip29)"><text fill="#595959" font-family="Calibri,Calibri_MSFontService,sans-serif" font-weight="400" font-size="46" transform="matrix(1 0 0 1 3926.25 2971)">Range</text></g><g clip-path="url(#clip30)"><text fill="#595959" font-family="Calibri,Calibri_MSFontService,sans-serif" font-weight="400" font-size="46" transform="matrix(1 0 0 1 4041.55 2971)">-</text></g><g clip-path="url(#clip31)"><text fill="#595959" font-family="Calibri,Calibri_MSFontService,sans-serif" font-weight="400" font-size="46" transform="matrix(1 0 0 1 4066.57 2971)">-Limit</text></g><g clip-path="url(#clip32)"><path d="M3580 3079 3668 3079" stroke="#4472C4" stroke-width="10.3125" stroke-linecap="round" stroke-linejoin="round" stroke-miterlimit="10" fill="none" fill-rule="evenodd"/></g><g clip-path="url(#clip33)"><path d="M3634 3079C3634 3085.07 3629.07 3090 3623 3090 3616.93 3090 3612 3085.07 3612 3079 3612 3072.92 3616.93 3068 3623 3068 3629.07 3068 3634 3072.92 3634 3079Z" stroke="#4472C4" stroke-width="3.4375" stroke-linejoin="round" stroke-miterlimit="10" fill="#4472C4"/></g><g clip-path="url(#clip34)"><text fill="#595959" font-family="Calibri,Calibri_MSFontService,sans-serif" font-weight="400" font-size="41" transform="matrix(1 0 0 1 3677.14 3091)">Db2 Graph V11.5.6.0</text></g><g clip-path="url(#clip35)"><path d="M4084 3079 4172 3079" stroke="#92D050" stroke-width="10.3125" stroke-linecap="round" stroke-linejoin="round" stroke-miterlimit="10" fill="none" fill-rule="evenodd"/></g><g clip-path="url(#clip36)"><path d="M4138 3079C4138 3085.07 4133.08 3090 4127 3090 4120.92 3090 4116 3085.07 4116 3079 4116 3072.92 4120.92 3068 4127 3068 4133.08 3068 4138 3072.92 4138 3079Z" stroke="#92D050" stroke-width="3.4375" stroke-linejoin="round" stroke-miterlimit="10" fill="#92D050"/></g><g clip-path="url(#clip37)"><text fill="#595959" font-family="Calibri,Calibri_MSFontService,sans-serif" font-weight="400" font-size="41" transform="matrix(1 0 0 1 4180.98 3091)">Neo4j</text></g></g></svg>