<svg width="1650" height="990" xmlns="http://www.w3.org/2000/svg" xmlns:xlink="http://www.w3.org/1999/xlink" overflow="hidden"><defs><clipPath id="clip0"><rect x="0" y="447" width="1650" height="990"/></clipPath><clipPath id="clip1"><rect x="0" y="446" width="1650" height="990"/></clipPath><clipPath id="clip2"><rect x="280" y="497" width="1323" height="732"/></clipPath><clipPath id="clip3"><rect x="280" y="497" width="1323" height="732"/></clipPath><clipPath id="clip4"><rect x="280" y="497" width="1323" height="732"/></clipPath><clipPath id="clip5"><rect x="0" y="446" width="1650" height="990"/></clipPath><clipPath id="clip6"><rect x="0" y="446" width="1650" height="990"/></clipPath><clipPath id="clip7"><rect x="0" y="446" width="1650" height="990"/></clipPath><clipPath id="clip8"><rect x="0" y="446" width="1650" height="990"/></clipPath><clipPath id="clip9"><rect x="0" y="446" width="1650" height="990"/></clipPath><clipPath id="clip10"><rect x="0" y="446" width="1650" height="990"/></clipPath><clipPath id="clip11"><rect x="0" y="446" width="1650" height="990"/></clipPath><clipPath id="clip12"><rect x="0" y="446" width="1650" height="990"/></clipPath><clipPath id="clip13"><rect x="0" y="446" width="1650" height="990"/></clipPath><clipPath id="clip14"><rect x="0" y="446" width="1650" height="990"/></clipPath><clipPath id="clip15"><rect x="0" y="446" width="1650" height="990"/></clipPath><clipPath id="clip16"><rect x="0" y="446" width="1650" height="990"/></clipPath><clipPath id="clip17"><rect x="0" y="446" width="1650" height="990"/></clipPath><clipPath id="clip18"><rect x="0" y="446" width="1650" height="990"/></clipPath><clipPath id="clip19"><rect x="0" y="446" width="1650" height="990"/></clipPath><clipPath id="clip20"><rect x="0" y="446" width="1650" height="990"/></clipPath><clipPath id="clip21"><rect x="0" y="446" width="1650" height="990"/></clipPath><clipPath id="clip22"><rect x="0" y="446" width="1650" height="990"/></clipPath><clipPath id="clip23"><rect x="0" y="446" width="1650" height="990"/></clipPath><clipPath id="clip24"><rect x="0" y="446" width="1650" height="990"/></clipPath><clipPath id="clip25"><rect x="0" y="446" width="1650" height="990"/></clipPath><clipPath id="clip26"><rect x="0" y="446" width="1650" height="990"/></clipPath><clipPath id="clip27"><rect x="0" y="446" width="1650" height="990"/></clipPath><clipPath id="clip28"><rect x="0" y="446" width="1650" height="990"/></clipPath><clipPath id="clip29"><rect x="0" y="446" width="1650" height="990"/></clipPath><clipPath id="clip30"><rect x="0" y="446" width="1650" height="990"/></clipPath><clipPath id="clip31"><rect x="0" y="446" width="1650" height="990"/></clipPath><clipPath id="clip32"><rect x="0" y="446" width="1650" height="990"/></clipPath><clipPath id="clip33"><rect x="0" y="446" width="1650" height="990"/></clipPath><clipPath id="clip34"><rect x="0" y="446" width="1650" height="990"/></clipPath><clipPath id="clip35"><rect x="0" y="446" width="1650" height="990"/></clipPath><clipPath id="clip36"><rect x="0" y="446" width="1650" height="990"/></clipPath><clipPath id="clip37"><rect x="0" y="446" width="1650" height="990"/></clipPath><clipPath id="clip38"><rect x="0" y="446" width="1650" height="990"/></clipPath><clipPath id="clip39"><rect x="0" y="446" width="1650" height="990"/></clipPath></defs><g clip-path="url(#clip0)" transform="matrix(1 0 0 1 0 -447)"><rect x="0" y="447" width="1650" height="990" fill="#FFFFFF"/><g clip-path="url(#clip1)"><path d="M280.5 1152.54 1599.5 1152.54M280.5 1079.54 1599.5 1079.54M280.5 1007.53 1599.5 1007.53M280.5 934.531 1599.5 934.531M280.5 861.528 1599.5 861.528M280.5 788.526 1599.5 788.526M280.5 715.524 1599.5 715.524M280.5 642.521 1599.5 642.521M280.5 570.519 1599.5 570.519M280.5 497.5 1599.5 497.5" stroke="#D9D9D9" stroke-width="3.4375" stroke-linejoin="round" stroke-miterlimit="10" fill="none"/></g><g clip-path="url(#clip2)"><path d="M338.011 933.031 392.013 933.031 392.013 1226 338.011 1226ZM668.022 983.032 722.024 983.032 722.024 1226 668.022 1226ZM998.033 963.032 1051.03 963.032 1051.03 1226 998.033 1226ZM1328.04 975.032 1381.05 975.032 1381.05 1226 1328.04 1226Z" fill="#ED7D31"/></g><g clip-path="url(#clip3)"><path d="M418.014 1124.04 472.015 1124.04 472.015 1226 418.014 1226ZM748.025 1129.04 802.026 1129.04 802.026 1226 748.025 1226ZM1078.04 1120.04 1131.04 1120.04 1131.04 1226 1078.04 1226ZM1408.05 1130.04 1461.05 1130.04 1461.05 1226 1408.05 1226Z" fill="#4472C4"/></g><g clip-path="url(#clip4)"><path d="M498.016 569.019 552.018 569.019 552.018 1226 498.016 1226ZM828.027 586.019 881.029 586.019 881.029 1226 828.027 1226ZM1158.04 578.019 1211.04 578.019 1211.04 1226 1158.04 1226ZM1488.05 595.02 1541.05 595.02 1541.05 1226 1488.05 1226Z" fill="#92D050"/></g><g clip-path="url(#clip5)"><path d="M280.5 1225.5 1599.5 1225.5" stroke="#D9D9D9" stroke-width="3.4375" stroke-linejoin="round" stroke-miterlimit="10" fill="none" fill-rule="evenodd"/></g><g clip-path="url(#clip6)"><text fill="#404040" font-family="Calibri,Calibri_MSFontService,sans-serif" font-weight="400" font-size="41" transform="matrix(1 0 0 1 318.146 901)">8.044</text></g><g clip-path="url(#clip7)"><text fill="#404040" font-family="Calibri,Calibri_MSFontService,sans-serif" font-weight="400" font-size="41" transform="matrix(1 0 0 1 648.004 951)">6.657</text></g><g clip-path="url(#clip8)"><text fill="#404040" font-family="Calibri,Calibri_MSFontService,sans-serif" font-weight="400" font-size="41" transform="matrix(1 0 0 1 977.861 931)">7.212</text></g><g clip-path="url(#clip9)"><text fill="#404040" font-family="Calibri,Calibri_MSFontService,sans-serif" font-weight="400" font-size="41" transform="matrix(1 0 0 1 1307.72 943)">6.878</text></g><g clip-path="url(#clip10)"><text fill="#404040" font-family="Calibri,Calibri_MSFontService,sans-serif" font-weight="400" font-size="41" transform="matrix(1 0 0 1 398.079 1092)">2.793</text></g><g clip-path="url(#clip11)"><text fill="#404040" font-family="Calibri,Calibri_MSFontService,sans-serif" font-weight="400" font-size="41" transform="matrix(1 0 0 1 727.937 1097)">2.652</text></g><g clip-path="url(#clip12)"><text fill="#404040" font-family="Calibri,Calibri_MSFontService,sans-serif" font-weight="400" font-size="41" transform="matrix(1 0 0 1 1057.79 1088)">2.890</text></g><g clip-path="url(#clip13)"><text fill="#404040" font-family="Calibri,Calibri_MSFontService,sans-serif" font-weight="400" font-size="41" transform="matrix(1 0 0 1 1387.65 1098)">2.640</text></g><g clip-path="url(#clip14)"><text fill="#404040" font-family="Calibri,Calibri_MSFontService,sans-serif" font-weight="400" font-size="41" transform="matrix(1 0 0 1 467.562 537)">18.023</text></g><g clip-path="url(#clip15)"><text fill="#404040" font-family="Calibri,Calibri_MSFontService,sans-serif" font-weight="400" font-size="41" transform="matrix(1 0 0 1 797.42 554)">17.559</text></g><g clip-path="url(#clip16)"><text fill="#404040" font-family="Calibri,Calibri_MSFontService,sans-serif" font-weight="400" font-size="41" transform="matrix(1 0 0 1 1127.28 546)">17.794</text></g><g clip-path="url(#clip17)"><text fill="#404040" font-family="Calibri,Calibri_MSFontService,sans-serif" font-weight="400" font-size="41" transform="matrix(1 0 0 1 1457.14 563)">17.322</text></g><g clip-path="url(#clip18)"><text fill="#595959" font-family="Calibri,Calibri_MSFontService,sans-serif" font-weight="400" font-size="41" transform="matrix(1 0 0 1 220.986 1237)">0</text></g><g clip-path="url(#clip19)"><text fill="#595959" font-family="Calibri,Calibri_MSFontService,sans-serif" font-weight="400" font-size="41" transform="matrix(1 0 0 1 147.881 1164)">2.000</text></g><g clip-path="url(#clip20)"><text fill="#595959" font-family="Calibri,Calibri_MSFontService,sans-serif" font-weight="400" font-size="41" transform="matrix(1 0 0 1 147.881 1092)">4.000</text></g><g clip-path="url(#clip21)"><text fill="#595959" font-family="Calibri,Calibri_MSFontService,sans-serif" font-weight="400" font-size="41" transform="matrix(1 0 0 1 147.881 1019)">6.000</text></g><g clip-path="url(#clip22)"><text fill="#595959" font-family="Calibri,Calibri_MSFontService,sans-serif" font-weight="400" font-size="41" transform="matrix(1 0 0 1 147.881 946)">8.000</text></g><g clip-path="url(#clip23)"><text fill="#595959" font-family="Calibri,Calibri_MSFontService,sans-serif" font-weight="400" font-size="41" transform="matrix(1 0 0 1 126.981 873)">10.000</text></g><g clip-path="url(#clip24)"><text fill="#595959" font-family="Calibri,Calibri_MSFontService,sans-serif" font-weight="400" font-size="41" transform="matrix(1 0 0 1 126.981 800)">12.000</text></g><g clip-path="url(#clip25)"><text fill="#595959" font-family="Calibri,Calibri_MSFontService,sans-serif" font-weight="400" font-size="41" transform="matrix(1 0 0 1 126.981 727)">14.000</text></g><g clip-path="url(#clip26)"><text fill="#595959" font-family="Calibri,Calibri_MSFontService,sans-serif" font-weight="400" font-size="41" transform="matrix(1 0 0 1 126.981 655)">16.000</text></g><g clip-path="url(#clip27)"><text fill="#595959" font-family="Calibri,Calibri_MSFontService,sans-serif" font-weight="400" font-size="41" transform="matrix(1 0 0 1 126.981 582)">18.000</text></g><g clip-path="url(#clip28)"><text fill="#595959" font-family="Calibri,Calibri_MSFontService,sans-serif" font-weight="400" font-size="41" transform="matrix(1 0 0 1 126.981 509)">20.000</text></g><g clip-path="url(#clip29)"><text fill="#595959" font-family="Calibri,Calibri_MSFontService,sans-serif" font-weight="400" font-size="41" transform="matrix(1 0 0 1 372.905 1291)">getNode</text></g><g clip-path="url(#clip30)"><text fill="#595959" font-family="Calibri,Calibri_MSFontService,sans-serif" font-weight="400" font-size="41" transform="matrix(1 0 0 1 714.439 1291)">getLink</text></g><g clip-path="url(#clip31)"><text fill="#595959" font-family="Calibri,Calibri_MSFontService,sans-serif" font-weight="400" font-size="41" transform="matrix(1 0 0 1 1023 1291)">countLink</text></g><g clip-path="url(#clip32)"><text fill="#595959" font-family="Calibri,Calibri_MSFontService,sans-serif" font-weight="400" font-size="41" transform="matrix(1 0 0 1 1345.77 1291)">getLinkList</text></g><g clip-path="url(#clip33)"><text fill="#595959" font-family="Calibri,Calibri_MSFontService,sans-serif" font-weight="400" font-size="46" transform="matrix(6.12323e-17 -1 1 6.12323e-17 101.292 1102)">Operationen pro Sekunde</text></g><g clip-path="url(#clip34)"><rect x="355" y="1359" width="22" height="23" fill="#ED7D31"/></g><g clip-path="url(#clip35)"><text fill="#595959" font-family="Calibri,Calibri_MSFontService,sans-serif" font-weight="400" font-size="41" transform="matrix(1 0 0 1 387.048 1382)">Db2 Graph Beta 3</text></g><g clip-path="url(#clip36)"><rect x="741" y="1359" width="23.0001" height="23" fill="#4472C4"/></g><g clip-path="url(#clip37)"><text fill="#595959" font-family="Calibri,Calibri_MSFontService,sans-serif" font-weight="400" font-size="41" transform="matrix(1 0 0 1 773.36 1382)">Db2 Graph V11.5.6.0</text></g><g clip-path="url(#clip38)"><rect x="1180" y="1359" width="22" height="23" fill="#92D050"/></g><g clip-path="url(#clip39)"><text fill="#595959" font-family="Calibri,Calibri_MSFontService,sans-serif" font-weight="400" font-size="41" transform="matrix(1 0 0 1 1212.01 1382)">Neo4j</text></g></g></svg>