<svg width="1650" height="990" xmlns="http://www.w3.org/2000/svg" xmlns:xlink="http://www.w3.org/1999/xlink" overflow="hidden"><defs><clipPath id="clip0"><rect x="1337" y="0" width="1650" height="990"/></clipPath><clipPath id="clip1"><rect x="1337" y="0" width="1650" height="990"/></clipPath><clipPath id="clip2"><rect x="1617" y="50" width="1323" height="732"/></clipPath><clipPath id="clip3"><rect x="1617" y="50" width="1323" height="732"/></clipPath><clipPath id="clip4"><rect x="1337" y="0" width="1650" height="990"/></clipPath><clipPath id="clip5"><rect x="1337" y="0" width="1650" height="990"/></clipPath><clipPath id="clip6"><rect x="1337" y="0" width="1650" height="990"/></clipPath><clipPath id="clip7"><rect x="1337" y="0" width="1650" height="990"/></clipPath><clipPath id="clip8"><rect x="1337" y="0" width="1650" height="990"/></clipPath><clipPath id="clip9"><rect x="1337" y="0" width="1650" height="990"/></clipPath><clipPath id="clip10"><rect x="1337" y="0" width="1650" height="990"/></clipPath><clipPath id="clip11"><rect x="1337" y="0" width="1650" height="990"/></clipPath><clipPath id="clip12"><rect x="1337" y="0" width="1650" height="990"/></clipPath><clipPath id="clip13"><rect x="1337" y="0" width="1650" height="990"/></clipPath><clipPath id="clip14"><rect x="1337" y="0" width="1650" height="990"/></clipPath><clipPath id="clip15"><rect x="1337" y="0" width="1650" height="990"/></clipPath><clipPath id="clip16"><rect x="1337" y="0" width="1650" height="990"/></clipPath><clipPath id="clip17"><rect x="1337" y="0" width="1650" height="990"/></clipPath><clipPath id="clip18"><rect x="1337" y="0" width="1650" height="990"/></clipPath><clipPath id="clip19"><rect x="1337" y="0" width="1650" height="990"/></clipPath><clipPath id="clip20"><rect x="1337" y="0" width="1650" height="990"/></clipPath><clipPath id="clip21"><rect x="1337" y="0" width="1650" height="990"/></clipPath><clipPath id="clip22"><rect x="1337" y="0" width="1650" height="990"/></clipPath><clipPath id="clip23"><rect x="1337" y="0" width="1650" height="990"/></clipPath><clipPath id="clip24"><rect x="1337" y="0" width="1650" height="990"/></clipPath><clipPath id="clip25"><rect x="1337" y="0" width="1650" height="990"/></clipPath><clipPath id="clip26"><rect x="1337" y="0" width="1650" height="990"/></clipPath><clipPath id="clip27"><rect x="1337" y="0" width="1650" height="990"/></clipPath><clipPath id="clip28"><rect x="1337" y="0" width="1650" height="990"/></clipPath><clipPath id="clip29"><rect x="1337" y="0" width="1650" height="990"/></clipPath><clipPath id="clip30"><rect x="1337" y="0" width="1650" height="990"/></clipPath><clipPath id="clip31"><rect x="1337" y="0" width="1650" height="990"/></clipPath><clipPath id="clip32"><rect x="1337" y="0" width="1650" height="990"/></clipPath></defs><g clip-path="url(#clip0)" transform="translate(-1337 0)"><rect x="1337" y="0" width="1650" height="990" fill="#FFFFFF"/><g clip-path="url(#clip1)"><path d="M1617.5 705.523 2936.5 705.523M1617.5 633.521 2936.5 633.521M1617.5 560.519 2936.5 560.519M1617.5 487.516 2936.5 487.516M1617.5 414.514 2936.5 414.514M1617.5 341.511 2936.5 341.511M1617.5 268.509 2936.5 268.509M1617.5 196.507 2936.5 196.507M1617.5 123.504 2936.5 123.504M1617.5 50.5 2936.5 50.5" stroke="#D9D9D9" stroke-width="3.4375" stroke-linejoin="round" stroke-miterlimit="10" fill="none"/></g><g clip-path="url(#clip2)"><path d="M1694.06 680.022 1765.06 680.022 1765.06 779 1694.06 779ZM2024.07 693.023 2094.07 693.023 2094.07 779 2024.07 779ZM2354.08 684.022 2424.08 684.022 2424.08 779 2354.08 779ZM2684.09 689.023 2754.09 689.023 2754.09 779 2684.09 779Z" fill="#4472C4"/></g><g clip-path="url(#clip3)"><path d="M1800.06 152.005 1870.06 152.005 1870.06 779 1800.06 779ZM2130.07 237.008 2200.07 237.008 2200.07 779 2130.07 779ZM2459.08 198.006 2530.08 198.006 2530.08 779 2459.08 779ZM2789.09 205.007 2860.09 205.007 2860.09 779 2789.09 779Z" fill="#92D050"/></g><g clip-path="url(#clip4)"><path d="M1617.5 778.5 2936.5 778.5" stroke="#D9D9D9" stroke-width="3.4375" stroke-linejoin="round" stroke-miterlimit="10" fill="none" fill-rule="evenodd"/></g><g clip-path="url(#clip5)"><text fill="#404040" font-family="Calibri,Calibri_MSFontService,sans-serif" font-weight="400" font-size="41" transform="matrix(1 0 0 1 1682.52 648)">2.701</text></g><g clip-path="url(#clip6)"><text fill="#404040" font-family="Calibri,Calibri_MSFontService,sans-serif" font-weight="400" font-size="41" transform="matrix(1 0 0 1 2012.38 661)">2.365</text></g><g clip-path="url(#clip7)"><text fill="#404040" font-family="Calibri,Calibri_MSFontService,sans-serif" font-weight="400" font-size="41" transform="matrix(1 0 0 1 2342.23 652)">2.609</text></g><g clip-path="url(#clip8)"><text fill="#404040" font-family="Calibri,Calibri_MSFontService,sans-serif" font-weight="400" font-size="41" transform="matrix(1 0 0 1 2672.09 657)">2.466</text></g><g clip-path="url(#clip9)"><text fill="#404040" font-family="Calibri,Calibri_MSFontService,sans-serif" font-weight="400" font-size="41" transform="matrix(1 0 0 1 1777.57 120)">17.205</text></g><g clip-path="url(#clip10)"><text fill="#404040" font-family="Calibri,Calibri_MSFontService,sans-serif" font-weight="400" font-size="41" transform="matrix(1 0 0 1 2107.42 205)">14.878</text></g><g clip-path="url(#clip11)"><text fill="#404040" font-family="Calibri,Calibri_MSFontService,sans-serif" font-weight="400" font-size="41" transform="matrix(1 0 0 1 2437.28 166)">15.942</text></g><g clip-path="url(#clip12)"><text fill="#404040" font-family="Calibri,Calibri_MSFontService,sans-serif" font-weight="400" font-size="41" transform="matrix(1 0 0 1 2767.14 174)">15.742</text></g><g clip-path="url(#clip13)"><text fill="#595959" font-family="Calibri,Calibri_MSFontService,sans-serif" font-weight="400" font-size="41" transform="matrix(1 0 0 1 1558.17 790)">0</text></g><g clip-path="url(#clip14)"><text fill="#595959" font-family="Calibri,Calibri_MSFontService,sans-serif" font-weight="400" font-size="41" transform="matrix(1 0 0 1 1485.07 718)">2.000</text></g><g clip-path="url(#clip15)"><text fill="#595959" font-family="Calibri,Calibri_MSFontService,sans-serif" font-weight="400" font-size="41" transform="matrix(1 0 0 1 1485.07 645)">4.000</text></g><g clip-path="url(#clip16)"><text fill="#595959" font-family="Calibri,Calibri_MSFontService,sans-serif" font-weight="400" font-size="41" transform="matrix(1 0 0 1 1485.07 572)">6.000</text></g><g clip-path="url(#clip17)"><text fill="#595959" font-family="Calibri,Calibri_MSFontService,sans-serif" font-weight="400" font-size="41" transform="matrix(1 0 0 1 1485.07 499)">8.000</text></g><g clip-path="url(#clip18)"><text fill="#595959" font-family="Calibri,Calibri_MSFontService,sans-serif" font-weight="400" font-size="41" transform="matrix(1 0 0 1 1464.17 426)">10.000</text></g><g clip-path="url(#clip19)"><text fill="#595959" font-family="Calibri,Calibri_MSFontService,sans-serif" font-weight="400" font-size="41" transform="matrix(1 0 0 1 1464.17 353)">12.000</text></g><g clip-path="url(#clip20)"><text fill="#595959" font-family="Calibri,Calibri_MSFontService,sans-serif" font-weight="400" font-size="41" transform="matrix(1 0 0 1 1464.17 280)">14.000</text></g><g clip-path="url(#clip21)"><text fill="#595959" font-family="Calibri,Calibri_MSFontService,sans-serif" font-weight="400" font-size="41" transform="matrix(1 0 0 1 1464.17 208)">16.000</text></g><g clip-path="url(#clip22)"><text fill="#595959" font-family="Calibri,Calibri_MSFontService,sans-serif" font-weight="400" font-size="41" transform="matrix(1 0 0 1 1464.17 135)">18.000</text></g><g clip-path="url(#clip23)"><text fill="#595959" font-family="Calibri,Calibri_MSFontService,sans-serif" font-weight="400" font-size="41" transform="matrix(1 0 0 1 1464.17 62)">20.000</text></g><g clip-path="url(#clip24)"><text fill="#595959" font-family="Calibri,Calibri_MSFontService,sans-serif" font-weight="400" font-size="41" transform="matrix(1 0 0 1 1710.09 844)">getNode</text></g><g clip-path="url(#clip25)"><text fill="#595959" font-family="Calibri,Calibri_MSFontService,sans-serif" font-weight="400" font-size="41" transform="matrix(1 0 0 1 2051.63 844)">getLink</text></g><g clip-path="url(#clip26)"><text fill="#595959" font-family="Calibri,Calibri_MSFontService,sans-serif" font-weight="400" font-size="41" transform="matrix(1 0 0 1 2360.18 844)">countLink</text></g><g clip-path="url(#clip27)"><text fill="#595959" font-family="Calibri,Calibri_MSFontService,sans-serif" font-weight="400" font-size="41" transform="matrix(1 0 0 1 2682.96 844)">getLinkList</text></g><g clip-path="url(#clip28)"><text fill="#595959" font-family="Calibri,Calibri_MSFontService,sans-serif" font-weight="400" font-size="46" transform="matrix(6.12323e-17 -1 1 6.12323e-17 1438.48 655)">Operationen pro Sekunde</text></g><g clip-path="url(#clip29)"><rect x="1889" y="912" width="23" height="23.0001" fill="#4472C4"/></g><g clip-path="url(#clip30)"><text fill="#595959" font-family="Calibri,Calibri_MSFontService,sans-serif" font-weight="400" font-size="41" transform="matrix(1 0 0 1 1921.45 935)">Db2 Graph V11.5.6.0</text></g><g clip-path="url(#clip31)"><rect x="2320" y="912" width="22" height="23.0001" fill="#92D050"/></g><g clip-path="url(#clip32)"><text fill="#595959" font-family="Calibri,Calibri_MSFontService,sans-serif" font-weight="400" font-size="41" transform="matrix(1 0 0 1 2351.99 935)">Neo4j</text></g></g></svg>