<svg width="1650" height="990" xmlns="http://www.w3.org/2000/svg" xmlns:xlink="http://www.w3.org/1999/xlink" overflow="hidden"><defs><clipPath id="clip0"><rect x="1165" y="7" width="1650" height="990"/></clipPath><clipPath id="clip1"><rect x="1165" y="6" width="1650" height="990"/></clipPath><clipPath id="clip2"><rect x="1445" y="57" width="1323" height="732"/></clipPath><clipPath id="clip3"><rect x="1445" y="57" width="1323" height="732"/></clipPath><clipPath id="clip4"><rect x="1445" y="57" width="1323" height="732"/></clipPath><clipPath id="clip5"><rect x="1165" y="6" width="1650" height="990"/></clipPath><clipPath id="clip6"><rect x="1165" y="6" width="1650" height="990"/></clipPath><clipPath id="clip7"><rect x="1165" y="6" width="1650" height="990"/></clipPath><clipPath id="clip8"><rect x="1165" y="6" width="1650" height="990"/></clipPath><clipPath id="clip9"><rect x="1165" y="6" width="1650" height="990"/></clipPath><clipPath id="clip10"><rect x="1165" y="6" width="1650" height="990"/></clipPath><clipPath id="clip11"><rect x="1165" y="6" width="1650" height="990"/></clipPath><clipPath id="clip12"><rect x="1165" y="6" width="1650" height="990"/></clipPath><clipPath id="clip13"><rect x="1165" y="6" width="1650" height="990"/></clipPath><clipPath id="clip14"><rect x="1165" y="6" width="1650" height="990"/></clipPath><clipPath id="clip15"><rect x="1165" y="6" width="1650" height="990"/></clipPath><clipPath id="clip16"><rect x="1165" y="6" width="1650" height="990"/></clipPath><clipPath id="clip17"><rect x="1165" y="6" width="1650" height="990"/></clipPath><clipPath id="clip18"><rect x="1165" y="6" width="1650" height="990"/></clipPath><clipPath id="clip19"><rect x="1165" y="6" width="1650" height="990"/></clipPath><clipPath id="clip20"><rect x="1165" y="6" width="1650" height="990"/></clipPath><clipPath id="clip21"><rect x="1165" y="6" width="1650" height="990"/></clipPath><clipPath id="clip22"><rect x="1165" y="6" width="1650" height="990"/></clipPath><clipPath id="clip23"><rect x="1165" y="6" width="1650" height="990"/></clipPath><clipPath id="clip24"><rect x="1165" y="6" width="1650" height="990"/></clipPath><clipPath id="clip25"><rect x="1165" y="6" width="1650" height="990"/></clipPath><clipPath id="clip26"><rect x="1165" y="6" width="1650" height="990"/></clipPath><clipPath id="clip27"><rect x="1165" y="6" width="1650" height="990"/></clipPath><clipPath id="clip28"><rect x="1165" y="6" width="1650" height="990"/></clipPath><clipPath id="clip29"><rect x="1165" y="6" width="1650" height="990"/></clipPath><clipPath id="clip30"><rect x="1165" y="6" width="1650" height="990"/></clipPath><clipPath id="clip31"><rect x="1165" y="6" width="1650" height="990"/></clipPath><clipPath id="clip32"><rect x="1165" y="6" width="1650" height="990"/></clipPath><clipPath id="clip33"><rect x="1165" y="6" width="1650" height="990"/></clipPath><clipPath id="clip34"><rect x="1165" y="6" width="1650" height="990"/></clipPath><clipPath id="clip35"><rect x="1165" y="6" width="1650" height="990"/></clipPath><clipPath id="clip36"><rect x="1165" y="6" width="1650" height="990"/></clipPath><clipPath id="clip37"><rect x="1165" y="6" width="1650" height="990"/></clipPath><clipPath id="clip38"><rect x="1165" y="6" width="1650" height="990"/></clipPath><clipPath id="clip39"><rect x="1165" y="6" width="1650" height="990"/></clipPath></defs><g clip-path="url(#clip0)" transform="translate(-1165 -7)"><rect x="1165" y="6.99987" width="1650" height="990" fill="#FFFFFF"/><g clip-path="url(#clip1)"><path d="M1445.5 712.524 2764.5 712.524M1445.5 640.521 2764.5 640.521M1445.5 567.519 2764.5 567.519M1445.5 494.516 2764.5 494.516M1445.5 421.514 2764.5 421.514M1445.5 348.512 2764.5 348.512M1445.5 275.509 2764.5 275.509M1445.5 202.507 2764.5 202.507M1445.5 130.504 2764.5 130.504M1445.5 57.4999 2764.5 57.4999" stroke="#D9D9D9" stroke-width="3.4375" stroke-linejoin="round" stroke-miterlimit="10" fill="none"/></g><g clip-path="url(#clip2)"><path d="M1504.05 500.016 1557.05 500.016 1557.05 786 1504.05 786ZM1834.06 565.019 1887.06 565.019 1887.06 786 1834.06 786ZM2163.07 620.02 2217.07 620.02 2217.07 786 2163.07 786ZM2493.08 624.02 2547.08 624.02 2547.08 786 2493.08 786Z" fill="#ED7D31"/></g><g clip-path="url(#clip3)"><path d="M1584.05 684.022 1637.05 684.022 1637.05 786 1584.05 786ZM1914.06 698.023 1967.06 698.023 1967.06 786 1914.06 786ZM2243.07 690.023 2297.08 690.023 2297.08 786 2243.07 786ZM2573.08 693.023 2627.09 693.023 2627.09 786 2573.08 786Z" fill="#4472C4"/></g><g clip-path="url(#clip4)"><path d="M1664.05 152.005 1717.06 152.005 1717.06 786 1664.05 786ZM1993.07 180.006 2047.07 180.006 2047.07 786 1993.07 786ZM2323.08 147.005 2377.08 147.005 2377.08 786 2323.08 786ZM2653.09 168.006 2706.09 168.006 2706.09 786 2653.09 786Z" fill="#92D050"/></g><g clip-path="url(#clip5)"><path d="M1445.5 785.5 2764.5 785.5" stroke="#D9D9D9" stroke-width="3.4375" stroke-linejoin="round" stroke-miterlimit="10" fill="none" fill-rule="evenodd"/></g><g clip-path="url(#clip6)"><text fill="#404040" font-family="Calibri,Calibri_MSFontService,sans-serif" font-weight="400" font-size="41" transform="matrix(1 0 0 1 1483.46 468)">7.853</text></g><g clip-path="url(#clip7)"><text fill="#404040" font-family="Calibri,Calibri_MSFontService,sans-serif" font-weight="400" font-size="41" transform="matrix(1 0 0 1 1813.32 533)">6.058</text></g><g clip-path="url(#clip8)"><text fill="#404040" font-family="Calibri,Calibri_MSFontService,sans-serif" font-weight="400" font-size="41" transform="matrix(1 0 0 1 2143.17 588)">4.551</text></g><g clip-path="url(#clip9)"><text fill="#404040" font-family="Calibri,Calibri_MSFontService,sans-serif" font-weight="400" font-size="41" transform="matrix(1 0 0 1 2473.03 592)">4.437</text></g><g clip-path="url(#clip10)"><text fill="#404040" font-family="Calibri,Calibri_MSFontService,sans-serif" font-weight="400" font-size="41" transform="matrix(1 0 0 1 1563.39 652)">2.784</text></g><g clip-path="url(#clip11)"><text fill="#404040" font-family="Calibri,Calibri_MSFontService,sans-serif" font-weight="400" font-size="41" transform="matrix(1 0 0 1 1893.25 666)">2.408</text></g><g clip-path="url(#clip12)"><text fill="#404040" font-family="Calibri,Calibri_MSFontService,sans-serif" font-weight="400" font-size="41" transform="matrix(1 0 0 1 2223.11 658)">2.638</text></g><g clip-path="url(#clip13)"><text fill="#404040" font-family="Calibri,Calibri_MSFontService,sans-serif" font-weight="400" font-size="41" transform="matrix(1 0 0 1 2552.96 661)">2.536</text></g><g clip-path="url(#clip14)"><text fill="#404040" font-family="Calibri,Calibri_MSFontService,sans-serif" font-weight="400" font-size="41" transform="matrix(1 0 0 1 1632.87 120)">17.387</text></g><g clip-path="url(#clip15)"><text fill="#404040" font-family="Calibri,Calibri_MSFontService,sans-serif" font-weight="400" font-size="41" transform="matrix(1 0 0 1 1962.73 148)">16.620</text></g><g clip-path="url(#clip16)"><text fill="#404040" font-family="Calibri,Calibri_MSFontService,sans-serif" font-weight="400" font-size="41" transform="matrix(1 0 0 1 2292.59 115)">17.528</text></g><g clip-path="url(#clip17)"><text fill="#404040" font-family="Calibri,Calibri_MSFontService,sans-serif" font-weight="400" font-size="41" transform="matrix(1 0 0 1 2622.45 136)">16.952</text></g><g clip-path="url(#clip18)"><text fill="#595959" font-family="Calibri,Calibri_MSFontService,sans-serif" font-weight="400" font-size="41" transform="matrix(1 0 0 1 1386.3 797)">0</text></g><g clip-path="url(#clip19)"><text fill="#595959" font-family="Calibri,Calibri_MSFontService,sans-serif" font-weight="400" font-size="41" transform="matrix(1 0 0 1 1313.19 724)">2.000</text></g><g clip-path="url(#clip20)"><text fill="#595959" font-family="Calibri,Calibri_MSFontService,sans-serif" font-weight="400" font-size="41" transform="matrix(1 0 0 1 1313.19 652)">4.000</text></g><g clip-path="url(#clip21)"><text fill="#595959" font-family="Calibri,Calibri_MSFontService,sans-serif" font-weight="400" font-size="41" transform="matrix(1 0 0 1 1313.19 579)">6.000</text></g><g clip-path="url(#clip22)"><text fill="#595959" font-family="Calibri,Calibri_MSFontService,sans-serif" font-weight="400" font-size="41" transform="matrix(1 0 0 1 1313.19 506)">8.000</text></g><g clip-path="url(#clip23)"><text fill="#595959" font-family="Calibri,Calibri_MSFontService,sans-serif" font-weight="400" font-size="41" transform="matrix(1 0 0 1 1292.29 433)">10.000</text></g><g clip-path="url(#clip24)"><text fill="#595959" font-family="Calibri,Calibri_MSFontService,sans-serif" font-weight="400" font-size="41" transform="matrix(1 0 0 1 1292.29 360)">12.000</text></g><g clip-path="url(#clip25)"><text fill="#595959" font-family="Calibri,Calibri_MSFontService,sans-serif" font-weight="400" font-size="41" transform="matrix(1 0 0 1 1292.29 287)">14.000</text></g><g clip-path="url(#clip26)"><text fill="#595959" font-family="Calibri,Calibri_MSFontService,sans-serif" font-weight="400" font-size="41" transform="matrix(1 0 0 1 1292.29 215)">16.000</text></g><g clip-path="url(#clip27)"><text fill="#595959" font-family="Calibri,Calibri_MSFontService,sans-serif" font-weight="400" font-size="41" transform="matrix(1 0 0 1 1292.29 142)">18.000</text></g><g clip-path="url(#clip28)"><text fill="#595959" font-family="Calibri,Calibri_MSFontService,sans-serif" font-weight="400" font-size="41" transform="matrix(1 0 0 1 1292.29 69)">20.000</text></g><g clip-path="url(#clip29)"><text fill="#595959" font-family="Calibri,Calibri_MSFontService,sans-serif" font-weight="400" font-size="41" transform="matrix(1 0 0 1 1538.22 851)">getNode</text></g><g clip-path="url(#clip30)"><text fill="#595959" font-family="Calibri,Calibri_MSFontService,sans-serif" font-weight="400" font-size="41" transform="matrix(1 0 0 1 1879.75 851)">getLink</text></g><g clip-path="url(#clip31)"><text fill="#595959" font-family="Calibri,Calibri_MSFontService,sans-serif" font-weight="400" font-size="41" transform="matrix(1 0 0 1 2188.31 851)">countLink</text></g><g clip-path="url(#clip32)"><text fill="#595959" font-family="Calibri,Calibri_MSFontService,sans-serif" font-weight="400" font-size="41" transform="matrix(1 0 0 1 2511.08 851)">getLinkList</text></g><g clip-path="url(#clip33)"><text fill="#595959" font-family="Calibri,Calibri_MSFontService,sans-serif" font-weight="400" font-size="46" transform="matrix(6.12323e-17 -1 1 6.12323e-17 1266.6 662)">Operationen pro Sekunde</text></g><g clip-path="url(#clip34)"><rect x="1520" y="919" width="23" height="23.0001" fill="#ED7D31"/></g><g clip-path="url(#clip35)"><text fill="#595959" font-family="Calibri,Calibri_MSFontService,sans-serif" font-weight="400" font-size="41" transform="matrix(1 0 0 1 1552.36 942)">Db2 Graph Beta 3</text></g><g clip-path="url(#clip36)"><rect x="1906" y="919" width="23" height="23.0001" fill="#4472C4"/></g><g clip-path="url(#clip37)"><text fill="#595959" font-family="Calibri,Calibri_MSFontService,sans-serif" font-weight="400" font-size="41" transform="matrix(1 0 0 1 1938.67 942)">Db2 Graph V11.5.6.0</text></g><g clip-path="url(#clip38)"><rect x="2345" y="919" width="23" height="23.0001" fill="#92D050"/></g><g clip-path="url(#clip39)"><text fill="#595959" font-family="Calibri,Calibri_MSFontService,sans-serif" font-weight="400" font-size="41" transform="matrix(1 0 0 1 2377.32 942)">Neo4j</text></g></g></svg>