<svg width="1650" height="990" xmlns="http://www.w3.org/2000/svg" xmlns:xlink="http://www.w3.org/1999/xlink" overflow="hidden"><defs><clipPath id="clip0"><rect x="0" y="378" width="1650" height="990"/></clipPath><clipPath id="clip1"><rect x="0" y="378" width="1650" height="990"/></clipPath><clipPath id="clip2"><rect x="280" y="428" width="1323" height="732"/></clipPath><clipPath id="clip3"><rect x="280" y="428" width="1323" height="732"/></clipPath><clipPath id="clip4"><rect x="0" y="378" width="1650" height="990"/></clipPath><clipPath id="clip5"><rect x="0" y="378" width="1650" height="990"/></clipPath><clipPath id="clip6"><rect x="0" y="378" width="1650" height="990"/></clipPath><clipPath id="clip7"><rect x="0" y="378" width="1650" height="990"/></clipPath><clipPath id="clip8"><rect x="0" y="378" width="1650" height="990"/></clipPath><clipPath id="clip9"><rect x="0" y="378" width="1650" height="990"/></clipPath><clipPath id="clip10"><rect x="0" y="378" width="1650" height="990"/></clipPath><clipPath id="clip11"><rect x="0" y="378" width="1650" height="990"/></clipPath><clipPath id="clip12"><rect x="0" y="378" width="1650" height="990"/></clipPath><clipPath id="clip13"><rect x="0" y="378" width="1650" height="990"/></clipPath><clipPath id="clip14"><rect x="0" y="378" width="1650" height="990"/></clipPath><clipPath id="clip15"><rect x="0" y="378" width="1650" height="990"/></clipPath><clipPath id="clip16"><rect x="0" y="378" width="1650" height="990"/></clipPath><clipPath id="clip17"><rect x="0" y="378" width="1650" height="990"/></clipPath><clipPath id="clip18"><rect x="0" y="378" width="1650" height="990"/></clipPath><clipPath id="clip19"><rect x="0" y="378" width="1650" height="990"/></clipPath><clipPath id="clip20"><rect x="0" y="378" width="1650" height="990"/></clipPath><clipPath id="clip21"><rect x="0" y="378" width="1650" height="990"/></clipPath><clipPath id="clip22"><rect x="0" y="378" width="1650" height="990"/></clipPath><clipPath id="clip23"><rect x="0" y="378" width="1650" height="990"/></clipPath><clipPath id="clip24"><rect x="0" y="378" width="1650" height="990"/></clipPath><clipPath id="clip25"><rect x="0" y="378" width="1650" height="990"/></clipPath><clipPath id="clip26"><rect x="0" y="378" width="1650" height="990"/></clipPath><clipPath id="clip27"><rect x="0" y="378" width="1650" height="990"/></clipPath><clipPath id="clip28"><rect x="0" y="378" width="1650" height="990"/></clipPath><clipPath id="clip29"><rect x="0" y="378" width="1650" height="990"/></clipPath><clipPath id="clip30"><rect x="0" y="378" width="1650" height="990"/></clipPath><clipPath id="clip31"><rect x="0" y="378" width="1650" height="990"/></clipPath></defs><g clip-path="url(#clip0)" transform="matrix(1 0 0 1 0 -378)"><rect x="0" y="378" width="1650" height="990" fill="#FFFFFF"/><g clip-path="url(#clip1)"><path d="M280.5 1075.54 1599.5 1075.54M280.5 995.533 1599.5 995.533M280.5 914.53 1599.5 914.53M280.5 833.528 1599.5 833.528M280.5 752.525 1599.5 752.525M280.5 671.522 1599.5 671.522M280.5 590.52 1599.5 590.52M280.5 509.517 1599.5 509.517M280.5 428.5 1599.5 428.5" stroke="#D9D9D9" stroke-width="3.4375" stroke-linejoin="round" stroke-miterlimit="10" fill="none"/></g><g clip-path="url(#clip2)"><path d="M361.012 1045.03 435.014 1045.03 435.014 1157 361.012 1157ZM691.023 1059.03 765.025 1059.03 765.025 1157 691.023 1157ZM1021.03 1048.03 1095.04 1048.03 1095.04 1157 1021.03 1157ZM1351.04 1055.03 1425.05 1055.03 1425.05 1157 1351.04 1157Z" fill="#4472C4"/></g><g clip-path="url(#clip3)"><path d="M455.015 468.015 529.017 468.015 529.017 1157 455.015 1157ZM785.026 565.019 859.028 565.019 859.028 1157 785.026 1157ZM1115.04 510.017 1189.04 510.017 1189.04 1157 1115.04 1157ZM1445.05 519.017 1519.05 519.017 1519.05 1157 1445.05 1157Z" fill="#92D050"/></g><g clip-path="url(#clip4)"><path d="M280.5 1156.5 1599.5 1156.5" stroke="#D9D9D9" stroke-width="3.4375" stroke-linejoin="round" stroke-miterlimit="10" fill="none" fill-rule="evenodd"/></g><g clip-path="url(#clip5)"><text fill="#404040" font-family="Calibri,Calibri_MSFontService,sans-serif" font-weight="400" font-size="41" transform="matrix(1 0 0 1 351.115 1013)">2.771</text></g><g clip-path="url(#clip6)"><text fill="#404040" font-family="Calibri,Calibri_MSFontService,sans-serif" font-weight="400" font-size="41" transform="matrix(1 0 0 1 680.973 1027)">2.421</text></g><g clip-path="url(#clip7)"><text fill="#404040" font-family="Calibri,Calibri_MSFontService,sans-serif" font-weight="400" font-size="41" transform="matrix(1 0 0 1 1010.83 1016)">2.703</text></g><g clip-path="url(#clip8)"><text fill="#404040" font-family="Calibri,Calibri_MSFontService,sans-serif" font-weight="400" font-size="41" transform="matrix(1 0 0 1 1340.69 1023)">2.524</text></g><g clip-path="url(#clip9)"><text fill="#404040" font-family="Calibri,Calibri_MSFontService,sans-serif" font-weight="400" font-size="41" transform="matrix(1 0 0 1 434.593 437)">17.013</text></g><g clip-path="url(#clip10)"><text fill="#404040" font-family="Calibri,Calibri_MSFontService,sans-serif" font-weight="400" font-size="41" transform="matrix(1 0 0 1 764.451 533)">14.638</text></g><g clip-path="url(#clip11)"><text fill="#404040" font-family="Calibri,Calibri_MSFontService,sans-serif" font-weight="400" font-size="41" transform="matrix(1 0 0 1 1094.31 478)">15.992</text></g><g clip-path="url(#clip12)"><text fill="#404040" font-family="Calibri,Calibri_MSFontService,sans-serif" font-weight="400" font-size="41" transform="matrix(1 0 0 1 1424.17 487)">15.756</text></g><g clip-path="url(#clip13)"><text fill="#595959" font-family="Calibri,Calibri_MSFontService,sans-serif" font-weight="400" font-size="41" transform="matrix(1 0 0 1 220.986 1169)">0</text></g><g clip-path="url(#clip14)"><text fill="#595959" font-family="Calibri,Calibri_MSFontService,sans-serif" font-weight="400" font-size="41" transform="matrix(1 0 0 1 147.881 1088)">2.000</text></g><g clip-path="url(#clip15)"><text fill="#595959" font-family="Calibri,Calibri_MSFontService,sans-serif" font-weight="400" font-size="41" transform="matrix(1 0 0 1 147.881 1007)">4.000</text></g><g clip-path="url(#clip16)"><text fill="#595959" font-family="Calibri,Calibri_MSFontService,sans-serif" font-weight="400" font-size="41" transform="matrix(1 0 0 1 147.881 926)">6.000</text></g><g clip-path="url(#clip17)"><text fill="#595959" font-family="Calibri,Calibri_MSFontService,sans-serif" font-weight="400" font-size="41" transform="matrix(1 0 0 1 147.881 845)">8.000</text></g><g clip-path="url(#clip18)"><text fill="#595959" font-family="Calibri,Calibri_MSFontService,sans-serif" font-weight="400" font-size="41" transform="matrix(1 0 0 1 126.981 764)">10.000</text></g><g clip-path="url(#clip19)"><text fill="#595959" font-family="Calibri,Calibri_MSFontService,sans-serif" font-weight="400" font-size="41" transform="matrix(1 0 0 1 126.981 683)">12.000</text></g><g clip-path="url(#clip20)"><text fill="#595959" font-family="Calibri,Calibri_MSFontService,sans-serif" font-weight="400" font-size="41" transform="matrix(1 0 0 1 126.981 602)">14.000</text></g><g clip-path="url(#clip21)"><text fill="#595959" font-family="Calibri,Calibri_MSFontService,sans-serif" font-weight="400" font-size="41" transform="matrix(1 0 0 1 126.981 521)">16.000</text></g><g clip-path="url(#clip22)"><text fill="#595959" font-family="Calibri,Calibri_MSFontService,sans-serif" font-weight="400" font-size="41" transform="matrix(1 0 0 1 126.981 440)">18.000</text></g><g clip-path="url(#clip23)"><text fill="#595959" font-family="Calibri,Calibri_MSFontService,sans-serif" font-weight="400" font-size="41" transform="matrix(1 0 0 1 372.905 1222)">getNode</text></g><g clip-path="url(#clip24)"><text fill="#595959" font-family="Calibri,Calibri_MSFontService,sans-serif" font-weight="400" font-size="41" transform="matrix(1 0 0 1 714.439 1222)">getLink</text></g><g clip-path="url(#clip25)"><text fill="#595959" font-family="Calibri,Calibri_MSFontService,sans-serif" font-weight="400" font-size="41" transform="matrix(1 0 0 1 1023 1222)">countLink</text></g><g clip-path="url(#clip26)"><text fill="#595959" font-family="Calibri,Calibri_MSFontService,sans-serif" font-weight="400" font-size="41" transform="matrix(1 0 0 1 1345.77 1222)">getLinkList</text></g><g clip-path="url(#clip27)"><text fill="#595959" font-family="Calibri,Calibri_MSFontService,sans-serif" font-weight="400" font-size="46" transform="matrix(6.12323e-17 -1 1 6.12323e-17 101.292 1033)">Operationen pro Sekunde</text></g><g clip-path="url(#clip28)"><rect x="552" y="1291" width="23.0001" height="22" fill="#4472C4"/></g><g clip-path="url(#clip29)"><text fill="#595959" font-family="Calibri,Calibri_MSFontService,sans-serif" font-weight="400" font-size="41" transform="matrix(1 0 0 1 584.263 1314)">Db2 Graph V11.5.6.0</text></g><g clip-path="url(#clip30)"><rect x="983" y="1291" width="22" height="22" fill="#92D050"/></g><g clip-path="url(#clip31)"><text fill="#595959" font-family="Calibri,Calibri_MSFontService,sans-serif" font-weight="400" font-size="41" transform="matrix(1 0 0 1 1014.8 1314)">Neo4j</text></g></g></svg>