<svg width="1740" height="989" xmlns="http://www.w3.org/2000/svg" xmlns:xlink="http://www.w3.org/1999/xlink" overflow="hidden"><defs><clipPath id="clip0"><rect x="34" y="468" width="1740" height="989"/></clipPath><clipPath id="clip1"><rect x="34" y="467" width="1739" height="990"/></clipPath><clipPath id="clip2"><rect x="314" y="517" width="1412" height="732"/></clipPath><clipPath id="clip3"><rect x="314" y="517" width="1412" height="732"/></clipPath><clipPath id="clip4"><rect x="314" y="517" width="1412" height="732"/></clipPath><clipPath id="clip5"><rect x="34" y="467" width="1739" height="990"/></clipPath><clipPath id="clip6"><rect x="34" y="467" width="1739" height="990"/></clipPath><clipPath id="clip7"><rect x="34" y="467" width="1739" height="990"/></clipPath><clipPath id="clip8"><rect x="34" y="467" width="1739" height="990"/></clipPath><clipPath id="clip9"><rect x="34" y="467" width="1739" height="990"/></clipPath><clipPath id="clip10"><rect x="34" y="467" width="1739" height="990"/></clipPath><clipPath id="clip11"><rect x="34" y="467" width="1739" height="990"/></clipPath><clipPath id="clip12"><rect x="34" y="467" width="1739" height="990"/></clipPath><clipPath id="clip13"><rect x="34" y="467" width="1739" height="990"/></clipPath><clipPath id="clip14"><rect x="34" y="467" width="1739" height="990"/></clipPath><clipPath id="clip15"><rect x="34" y="467" width="1739" height="990"/></clipPath><clipPath id="clip16"><rect x="34" y="467" width="1739" height="990"/></clipPath><clipPath id="clip17"><rect x="34" y="467" width="1739" height="990"/></clipPath><clipPath id="clip18"><rect x="34" y="467" width="1739" height="990"/></clipPath><clipPath id="clip19"><rect x="34" y="467" width="1739" height="990"/></clipPath><clipPath id="clip20"><rect x="34" y="467" width="1739" height="990"/></clipPath><clipPath id="clip21"><rect x="34" y="467" width="1739" height="990"/></clipPath><clipPath id="clip22"><rect x="34" y="467" width="1739" height="990"/></clipPath><clipPath id="clip23"><rect x="34" y="467" width="1739" height="990"/></clipPath><clipPath id="clip24"><rect x="34" y="467" width="1739" height="990"/></clipPath><clipPath id="clip25"><rect x="34" y="467" width="1739" height="990"/></clipPath><clipPath id="clip26"><rect x="34" y="467" width="1739" height="990"/></clipPath><clipPath id="clip27"><rect x="34" y="467" width="1739" height="990"/></clipPath><clipPath id="clip28"><rect x="34" y="467" width="1739" height="990"/></clipPath><clipPath id="clip29"><rect x="34" y="467" width="1739" height="990"/></clipPath><clipPath id="clip30"><rect x="34" y="467" width="1739" height="990"/></clipPath><clipPath id="clip31"><rect x="34" y="467" width="1739" height="990"/></clipPath><clipPath id="clip32"><rect x="34" y="467" width="1739" height="990"/></clipPath><clipPath id="clip33"><rect x="34" y="467" width="1739" height="990"/></clipPath><clipPath id="clip34"><rect x="34" y="467" width="1739" height="990"/></clipPath><clipPath id="clip35"><rect x="34" y="467" width="1739" height="990"/></clipPath><clipPath id="clip36"><rect x="34" y="467" width="1739" height="990"/></clipPath><clipPath id="clip37"><rect x="34" y="467" width="1739" height="990"/></clipPath><clipPath id="clip38"><rect x="34" y="467" width="1739" height="990"/></clipPath><clipPath id="clip39"><rect x="34" y="467" width="1739" height="990"/></clipPath></defs><g clip-path="url(#clip0)" transform="translate(-34 -468)"><rect x="34" y="468" width="1740" height="989" fill="#FFFFFF"/><g clip-path="url(#clip1)"><path d="M314.5 1173.54 1723.5 1173.54M314.5 1100.54 1723.5 1100.54M314.5 1027.53 1723.5 1027.53M314.5 954.531 1723.5 954.531M314.5 882.529 1723.5 882.529M314.5 809.527 1723.5 809.527M314.5 736.524 1723.5 736.524M314.5 663.522 1723.5 663.522M314.5 590.52 1723.5 590.52M314.5 517.5 1723.5 517.5" stroke="#D9D9D9" stroke-width="3.4375" stroke-linejoin="round" stroke-miterlimit="10" fill="none"/></g><g clip-path="url(#clip2)"><path d="M377.012 952.031 434.014 952.031 434.014 1246 377.012 1246ZM729.024 1013.03 786.026 1013.03 786.026 1246 729.024 1246ZM1081.04 1077.04 1138.04 1077.04 1138.04 1246 1081.04 1246ZM1433.05 1079.04 1490.05 1079.04 1490.05 1246 1433.05 1246Z" fill="#ED7D31"/></g><g clip-path="url(#clip3)"><path d="M462.015 1144.04 519.017 1144.04 519.017 1246 462.015 1246ZM814.027 1157.04 871.029 1157.04 871.029 1246 814.027 1246ZM1167.04 1148.04 1223.04 1148.04 1223.04 1246 1167.04 1246ZM1519.05 1153.04 1576.05 1153.04 1576.05 1246 1519.05 1246Z" fill="#4472C4"/></g><g clip-path="url(#clip4)"><path d="M548.018 583.019 604.02 583.019 604.02 1246 548.018 1246ZM900.03 614.02 957.031 614.02 957.031 1246 900.03 1246ZM1252.04 590.019 1309.04 590.019 1309.04 1246 1252.04 1246ZM1604.05 607.02 1661.05 607.02 1661.05 1246 1604.05 1246Z" fill="#92D050"/></g><g clip-path="url(#clip5)"><path d="M314.5 1246.5 1723.5 1246.5" stroke="#D9D9D9" stroke-width="3.4375" stroke-linejoin="round" stroke-miterlimit="10" fill="none" fill-rule="evenodd"/></g><g clip-path="url(#clip6)"><text fill="#404040" font-family="Calibri,Calibri_MSFontService,sans-serif" font-weight="400" font-size="41" transform="matrix(1 0 0 1 358.278 920)">8.088</text></g><g clip-path="url(#clip7)"><text fill="#404040" font-family="Calibri,Calibri_MSFontService,sans-serif" font-weight="400" font-size="41" transform="matrix(1 0 0 1 710.48 982)">6.392</text></g><g clip-path="url(#clip8)"><text fill="#404040" font-family="Calibri,Calibri_MSFontService,sans-serif" font-weight="400" font-size="41" transform="matrix(1 0 0 1 1062.68 1045)">4.650</text></g><g clip-path="url(#clip9)"><text fill="#404040" font-family="Calibri,Calibri_MSFontService,sans-serif" font-weight="400" font-size="41" transform="matrix(1 0 0 1 1414.88 1047)">4.603</text></g><g clip-path="url(#clip10)"><text fill="#404040" font-family="Calibri,Calibri_MSFontService,sans-serif" font-weight="400" font-size="41" transform="matrix(1 0 0 1 443.626 1112)">2.821</text></g><g clip-path="url(#clip11)"><text fill="#404040" font-family="Calibri,Calibri_MSFontService,sans-serif" font-weight="400" font-size="41" transform="matrix(1 0 0 1 795.828 1125)">2.460</text></g><g clip-path="url(#clip12)"><text fill="#404040" font-family="Calibri,Calibri_MSFontService,sans-serif" font-weight="400" font-size="41" transform="matrix(1 0 0 1 1148.03 1116)">2.695</text></g><g clip-path="url(#clip13)"><text fill="#404040" font-family="Calibri,Calibri_MSFontService,sans-serif" font-weight="400" font-size="41" transform="matrix(1 0 0 1 1500.23 1121)">2.574</text></g><g clip-path="url(#clip14)"><text fill="#404040" font-family="Calibri,Calibri_MSFontService,sans-serif" font-weight="400" font-size="41" transform="matrix(1 0 0 1 518.524 551)">18.226</text></g><g clip-path="url(#clip15)"><text fill="#404040" font-family="Calibri,Calibri_MSFontService,sans-serif" font-weight="400" font-size="41" transform="matrix(1 0 0 1 870.725 582)">17.360</text></g><g clip-path="url(#clip16)"><text fill="#404040" font-family="Calibri,Calibri_MSFontService,sans-serif" font-weight="400" font-size="41" transform="matrix(1 0 0 1 1222.93 558)">18.024</text></g><g clip-path="url(#clip17)"><text fill="#404040" font-family="Calibri,Calibri_MSFontService,sans-serif" font-weight="400" font-size="41" transform="matrix(1 0 0 1 1575.13 575)">17.553</text></g><g clip-path="url(#clip18)"><text fill="#595959" font-family="Calibri,Calibri_MSFontService,sans-serif" font-weight="400" font-size="41" transform="matrix(1 0 0 1 255.361 1258)">0</text></g><g clip-path="url(#clip19)"><text fill="#595959" font-family="Calibri,Calibri_MSFontService,sans-serif" font-weight="400" font-size="41" transform="matrix(1 0 0 1 182.256 1185)">2.000</text></g><g clip-path="url(#clip20)"><text fill="#595959" font-family="Calibri,Calibri_MSFontService,sans-serif" font-weight="400" font-size="41" transform="matrix(1 0 0 1 182.256 1112)">4.000</text></g><g clip-path="url(#clip21)"><text fill="#595959" font-family="Calibri,Calibri_MSFontService,sans-serif" font-weight="400" font-size="41" transform="matrix(1 0 0 1 182.256 1039)">6.000</text></g><g clip-path="url(#clip22)"><text fill="#595959" font-family="Calibri,Calibri_MSFontService,sans-serif" font-weight="400" font-size="41" transform="matrix(1 0 0 1 182.256 967)">8.000</text></g><g clip-path="url(#clip23)"><text fill="#595959" font-family="Calibri,Calibri_MSFontService,sans-serif" font-weight="400" font-size="41" transform="matrix(1 0 0 1 161.356 894)">10.000</text></g><g clip-path="url(#clip24)"><text fill="#595959" font-family="Calibri,Calibri_MSFontService,sans-serif" font-weight="400" font-size="41" transform="matrix(1 0 0 1 161.356 821)">12.000</text></g><g clip-path="url(#clip25)"><text fill="#595959" font-family="Calibri,Calibri_MSFontService,sans-serif" font-weight="400" font-size="41" transform="matrix(1 0 0 1 161.356 748)">14.000</text></g><g clip-path="url(#clip26)"><text fill="#595959" font-family="Calibri,Calibri_MSFontService,sans-serif" font-weight="400" font-size="41" transform="matrix(1 0 0 1 161.356 675)">16.000</text></g><g clip-path="url(#clip27)"><text fill="#595959" font-family="Calibri,Calibri_MSFontService,sans-serif" font-weight="400" font-size="41" transform="matrix(1 0 0 1 161.356 602)">18.000</text></g><g clip-path="url(#clip28)"><text fill="#595959" font-family="Calibri,Calibri_MSFontService,sans-serif" font-weight="400" font-size="41" transform="matrix(1 0 0 1 161.356 529)">20.000</text></g><g clip-path="url(#clip29)"><text fill="#595959" font-family="Calibri,Calibri_MSFontService,sans-serif" font-weight="400" font-size="41" transform="matrix(1 0 0 1 418.452 1312)">getNode</text></g><g clip-path="url(#clip30)"><text fill="#595959" font-family="Calibri,Calibri_MSFontService,sans-serif" font-weight="400" font-size="41" transform="matrix(1 0 0 1 782.329 1312)">getLink</text></g><g clip-path="url(#clip31)"><text fill="#595959" font-family="Calibri,Calibri_MSFontService,sans-serif" font-weight="400" font-size="41" transform="matrix(1 0 0 1 1105.16 1312)">countLinks</text></g><g clip-path="url(#clip32)"><text fill="#595959" font-family="Calibri,Calibri_MSFontService,sans-serif" font-weight="400" font-size="41" transform="matrix(1 0 0 1 1450.28 1312)">getLinksList</text></g><g clip-path="url(#clip33)"><text fill="#595959" font-family="Calibri,Calibri_MSFontService,sans-serif" font-weight="400" font-size="46" transform="matrix(6.12323e-17 -1 1 6.12323e-17 135.667 1123)">Operationen pro Sekunde</text></g><g clip-path="url(#clip34)"><rect x="434" y="1380" width="22.9997" height="22.9996" fill="#ED7D31"/></g><g clip-path="url(#clip35)"><text fill="#595959" font-family="Calibri,Calibri_MSFontService,sans-serif" font-weight="400" font-size="41" transform="matrix(1 0 0 1 466.111 1403)">Db2 Graph Beta 3</text></g><g clip-path="url(#clip36)"><rect x="820" y="1380" width="23.0001" height="22.9996" fill="#4472C4"/></g><g clip-path="url(#clip37)"><text fill="#595959" font-family="Calibri,Calibri_MSFontService,sans-serif" font-weight="400" font-size="41" transform="matrix(1 0 0 1 852.422 1403)">Db2 Graph V11.5.6.0</text></g><g clip-path="url(#clip38)"><rect x="1259" y="1380" width="22" height="22.9996" fill="#92D050"/></g><g clip-path="url(#clip39)"><text fill="#595959" font-family="Calibri,Calibri_MSFontService,sans-serif" font-weight="400" font-size="41" transform="matrix(1 0 0 1 1291.08 1403)">Neo4j</text></g></g></svg>