<svg width="2042" height="952" xmlns="http://www.w3.org/2000/svg" xmlns:xlink="http://www.w3.org/1999/xlink" overflow="hidden"><defs><clipPath id="clip0"><rect x="564" y="3977" width="2042" height="952"/></clipPath><clipPath id="clip1"><rect x="563" y="3977" width="2042" height="952"/></clipPath><clipPath id="clip2"><rect x="563" y="3977" width="2042" height="952"/></clipPath><clipPath id="clip3"><rect x="563" y="3977" width="2042" height="952"/></clipPath><clipPath id="clip4"><rect x="563" y="3977" width="2042" height="952"/></clipPath><clipPath id="clip5"><rect x="563" y="3977" width="2042" height="952"/></clipPath><clipPath id="clip6"><rect x="563" y="3977" width="2042" height="952"/></clipPath><clipPath id="clip7"><rect x="802" y="4028" width="1544" height="630"/></clipPath><clipPath id="clip8"><rect x="802" y="4028" width="1544" height="630"/></clipPath><clipPath id="clip9"><rect x="563" y="3977" width="2042" height="952"/></clipPath><clipPath id="clip10"><rect x="563" y="3977" width="2042" height="952"/></clipPath><clipPath id="clip11"><rect x="563" y="3977" width="2042" height="952"/></clipPath><clipPath id="clip12"><rect x="563" y="3977" width="2042" height="952"/></clipPath><clipPath id="clip13"><rect x="563" y="3977" width="2042" height="952"/></clipPath><clipPath id="clip14"><rect x="563" y="3977" width="2042" height="952"/></clipPath><clipPath id="clip15"><rect x="563" y="3977" width="2042" height="952"/></clipPath><clipPath id="clip16"><rect x="563" y="3977" width="2042" height="952"/></clipPath><clipPath id="clip17"><rect x="563" y="3977" width="2042" height="952"/></clipPath><clipPath id="clip18"><rect x="563" y="3977" width="2042" height="952"/></clipPath><clipPath id="clip19"><rect x="563" y="3977" width="2042" height="952"/></clipPath><clipPath id="clip20"><rect x="563" y="3977" width="2042" height="952"/></clipPath><clipPath id="clip21"><rect x="563" y="3977" width="2042" height="952"/></clipPath><clipPath id="clip22"><rect x="563" y="3977" width="2042" height="952"/></clipPath><clipPath id="clip23"><rect x="563" y="3977" width="2042" height="952"/></clipPath><clipPath id="clip24"><rect x="563" y="3977" width="2042" height="952"/></clipPath><clipPath id="clip25"><rect x="563" y="3977" width="2042" height="952"/></clipPath><clipPath id="clip26"><rect x="563" y="3977" width="2042" height="952"/></clipPath><clipPath id="clip27"><rect x="563" y="3977" width="2042" height="952"/></clipPath><clipPath id="clip28"><rect x="563" y="3977" width="2042" height="952"/></clipPath><clipPath id="clip29"><rect x="563" y="3977" width="2042" height="952"/></clipPath><clipPath id="clip30"><rect x="563" y="3977" width="2042" height="952"/></clipPath><clipPath id="clip31"><rect x="563" y="3977" width="2042" height="952"/></clipPath><clipPath id="clip32"><rect x="563" y="3977" width="2042" height="952"/></clipPath><clipPath id="clip33"><rect x="563" y="3977" width="2042" height="952"/></clipPath><clipPath id="clip34"><rect x="563" y="3977" width="2042" height="952"/></clipPath><clipPath id="clip35"><rect x="563" y="3977" width="2042" height="952"/></clipPath><clipPath id="clip36"><rect x="563" y="3977" width="2042" height="952"/></clipPath><clipPath id="clip37"><rect x="563" y="3977" width="2042" height="952"/></clipPath><clipPath id="clip38"><rect x="563" y="3977" width="2042" height="952"/></clipPath><clipPath id="clip39"><rect x="563" y="3977" width="2042" height="952"/></clipPath><clipPath id="clip40"><rect x="563" y="3977" width="2042" height="952"/></clipPath><clipPath id="clip41"><rect x="563" y="3977" width="2042" height="952"/></clipPath><clipPath id="clip42"><rect x="563" y="3977" width="2042" height="952"/></clipPath><clipPath id="clip43"><rect x="563" y="3977" width="2042" height="952"/></clipPath><clipPath id="clip44"><rect x="563" y="3977" width="2042" height="952"/></clipPath><clipPath id="clip45"><rect x="563" y="3977" width="2042" height="952"/></clipPath><clipPath id="clip46"><rect x="563" y="3977" width="2042" height="952"/></clipPath><clipPath id="clip47"><rect x="563" y="3977" width="2042" height="952"/></clipPath><clipPath id="clip48"><rect x="563" y="3977" width="2042" height="952"/></clipPath><clipPath id="clip49"><rect x="563" y="3977" width="2042" height="952"/></clipPath><clipPath id="clip50"><rect x="563" y="3977" width="2042" height="952"/></clipPath><clipPath id="clip51"><rect x="563" y="3977" width="2042" height="952"/></clipPath><clipPath id="clip52"><rect x="563" y="3977" width="2042" height="952"/></clipPath></defs><g clip-path="url(#clip0)" transform="translate(-564 -3977)"><rect x="564" y="3977" width="2042" height="952" fill="#FFFFFF"/><g clip-path="url(#clip1)"><rect x="803" y="4028" width="1540" height="627" fill="#FFFFFF"/></g><g clip-path="url(#clip2)"><path d="M0 0 0.000360892 627" stroke="#898989" stroke-width="2.29167" stroke-linejoin="round" stroke-miterlimit="10" fill="none" fill-rule="evenodd" transform="matrix(1 0 0 -1 2343 4655)"/></g><g clip-path="url(#clip3)"><path d="M2343 4655 2358 4655M2343 4576.15 2358 4576.15M2343 4498.15 2358 4498.15M2343 4420.15 2358 4420.15M2343 4341.14 2358 4341.14M2343 4263.14 2358 4263.14M2343 4185.14 2358 4185.14M2343 4106.13 2358 4106.13M2343 4028 2358 4028" stroke="#898989" stroke-width="2.29167" stroke-linejoin="round" stroke-miterlimit="10" fill="none"/></g><g clip-path="url(#clip4)"><path d="M0 0 0.000360892 627" stroke="#898989" stroke-width="2.29167" stroke-linejoin="round" stroke-miterlimit="10" fill="none" fill-rule="evenodd" transform="matrix(1 0 0 -1 803 4655)"/></g><g clip-path="url(#clip5)"><path d="M788 4655 803 4655M788 4592.15 803 4592.15M788 4529.15 803 4529.15M788 4467.15 803 4467.15M788 4404.14 803 4404.14M788 4341.14 803 4341.14M788 4279.14 803 4279.14M788 4216.14 803 4216.14M788 4153.14 803 4153.14M788 4091.13 803 4091.13M788 4028 803 4028" stroke="#898989" stroke-width="2.29167" stroke-linejoin="round" stroke-miterlimit="10" fill="none"/></g><g clip-path="url(#clip6)"><path d="M803 4655 2343 4655" stroke="#898989" stroke-width="2.29167" stroke-linejoin="round" stroke-miterlimit="10" fill="none" fill-rule="evenodd"/></g><g clip-path="url(#clip7)"><path d="M802.5 4531.5 902.53 4412.5 1001.53 4420.65 1101.54 4422.65 1200.54 4423.65 1299.54 4424.65 1399.55 4423.65 1498.55 4421.65 1597.55 4422.65 1697.56 4423.65 1796.56 4422.65 1895.56 4422.65 1995.57 4422.65 2094.57 4422.65 2194.57 4421.65 2293.5 4422.65" stroke="#000080" stroke-width="9.16667" stroke-linecap="round" stroke-linejoin="round" stroke-miterlimit="10" fill="none"/></g><g clip-path="url(#clip8)"><path d="M802.5 4654.5 902.53 4087.5 1001.53 4285.64 1101.54 4344.64 1200.54 4359.64 1299.54 4361.64 1399.55 4366.64 1498.55 4363.64 1597.55 4365.64 1697.56 4361.64 1796.56 4361.64 1895.56 4364.64 1995.57 4361.64 2094.57 4362.64 2194.57 4364.64 2293.5 4370.64" stroke="#FF00FF" stroke-width="9.16667" stroke-linecap="round" stroke-linejoin="round" stroke-miterlimit="10" fill="none"/></g><g clip-path="url(#clip9)"><text font-family="Calibri,Calibri_MSFontService,sans-serif" font-weight="400" font-size="46" transform="matrix(1 0 0 1 2385.69 4668)">0</text></g><g clip-path="url(#clip10)"><text font-family="Calibri,Calibri_MSFontService,sans-serif" font-weight="400" font-size="46" transform="matrix(1 0 0 1 2385.69 4590)">1000</text></g><g clip-path="url(#clip11)"><text font-family="Calibri,Calibri_MSFontService,sans-serif" font-weight="400" font-size="46" transform="matrix(1 0 0 1 2385.69 4512)">2000</text></g><g clip-path="url(#clip12)"><text font-family="Calibri,Calibri_MSFontService,sans-serif" font-weight="400" font-size="46" transform="matrix(1 0 0 1 2385.69 4433)">3000</text></g><g clip-path="url(#clip13)"><text font-family="Calibri,Calibri_MSFontService,sans-serif" font-weight="400" font-size="46" transform="matrix(1 0 0 1 2385.69 4355)">4000</text></g><g clip-path="url(#clip14)"><text font-family="Calibri,Calibri_MSFontService,sans-serif" font-weight="400" font-size="46" transform="matrix(1 0 0 1 2385.69 4277)">5000</text></g><g clip-path="url(#clip15)"><text font-family="Calibri,Calibri_MSFontService,sans-serif" font-weight="400" font-size="46" transform="matrix(1 0 0 1 2385.69 4198)">6000</text></g><g clip-path="url(#clip16)"><text font-family="Calibri,Calibri_MSFontService,sans-serif" font-weight="400" font-size="46" transform="matrix(1 0 0 1 2385.69 4120)">7000</text></g><g clip-path="url(#clip17)"><text font-family="Calibri,Calibri_MSFontService,sans-serif" font-weight="400" font-size="46" transform="matrix(1 0 0 1 2385.69 4042)">8000</text></g><g clip-path="url(#clip18)"><text font-family="Calibri,Calibri_MSFontService,sans-serif" font-weight="400" font-size="46" transform="matrix(1 0 0 1 737.206 4668)">0</text></g><g clip-path="url(#clip19)"><text font-family="Calibri,Calibri_MSFontService,sans-serif" font-weight="400" font-size="46" transform="matrix(1 0 0 1 713.969 4606)">10</text></g><g clip-path="url(#clip20)"><text font-family="Calibri,Calibri_MSFontService,sans-serif" font-weight="400" font-size="46" transform="matrix(1 0 0 1 713.969 4543)">20</text></g><g clip-path="url(#clip21)"><text font-family="Calibri,Calibri_MSFontService,sans-serif" font-weight="400" font-size="46" transform="matrix(1 0 0 1 713.969 4480)">30</text></g><g clip-path="url(#clip22)"><text font-family="Calibri,Calibri_MSFontService,sans-serif" font-weight="400" font-size="46" transform="matrix(1 0 0 1 713.969 4418)">40</text></g><g clip-path="url(#clip23)"><text font-family="Calibri,Calibri_MSFontService,sans-serif" font-weight="400" font-size="46" transform="matrix(1 0 0 1 713.969 4355)">50</text></g><g clip-path="url(#clip24)"><text font-family="Calibri,Calibri_MSFontService,sans-serif" font-weight="400" font-size="46" transform="matrix(1 0 0 1 713.969 4292)">60</text></g><g clip-path="url(#clip25)"><text font-family="Calibri,Calibri_MSFontService,sans-serif" font-weight="400" font-size="46" transform="matrix(1 0 0 1 713.969 4230)">70</text></g><g clip-path="url(#clip26)"><text font-family="Calibri,Calibri_MSFontService,sans-serif" font-weight="400" font-size="46" transform="matrix(1 0 0 1 713.969 4167)">80</text></g><g clip-path="url(#clip27)"><text font-family="Calibri,Calibri_MSFontService,sans-serif" font-weight="400" font-size="46" transform="matrix(1 0 0 1 713.969 4104)">90</text></g><g clip-path="url(#clip28)"><text font-family="Calibri,Calibri_MSFontService,sans-serif" font-weight="400" font-size="46" transform="matrix(1 0 0 1 690.731 4042)">100</text></g><g clip-path="url(#clip29)"><text font-family="Calibri,Calibri_MSFontService,sans-serif" font-weight="400" font-size="46" transform="matrix(6.12323e-17 -1 1 6.12323e-17 818.988 4789)">14:46</text></g><g clip-path="url(#clip30)"><text font-family="Calibri,Calibri_MSFontService,sans-serif" font-weight="400" font-size="46" transform="matrix(6.12323e-17 -1 1 6.12323e-17 918.357 4789)">14:47</text></g><g clip-path="url(#clip31)"><text font-family="Calibri,Calibri_MSFontService,sans-serif" font-weight="400" font-size="46" transform="matrix(6.12323e-17 -1 1 6.12323e-17 1017.73 4789)">14:48</text></g><g clip-path="url(#clip32)"><text font-family="Calibri,Calibri_MSFontService,sans-serif" font-weight="400" font-size="46" transform="matrix(6.12323e-17 -1 1 6.12323e-17 1117.1 4789)">14:49</text></g><g clip-path="url(#clip33)"><text font-family="Calibri,Calibri_MSFontService,sans-serif" font-weight="400" font-size="46" transform="matrix(6.12323e-17 -1 1 6.12323e-17 1216.46 4789)">14:50</text></g><g clip-path="url(#clip34)"><text font-family="Calibri,Calibri_MSFontService,sans-serif" font-weight="400" font-size="46" transform="matrix(6.12323e-17 -1 1 6.12323e-17 1315.83 4789)">14:51</text></g><g clip-path="url(#clip35)"><text font-family="Calibri,Calibri_MSFontService,sans-serif" font-weight="400" font-size="46" transform="matrix(6.12323e-17 -1 1 6.12323e-17 1415.2 4789)">14:52</text></g><g clip-path="url(#clip36)"><text font-family="Calibri,Calibri_MSFontService,sans-serif" font-weight="400" font-size="46" transform="matrix(6.12323e-17 -1 1 6.12323e-17 1514.57 4789)">14:53</text></g><g clip-path="url(#clip37)"><text font-family="Calibri,Calibri_MSFontService,sans-serif" font-weight="400" font-size="46" transform="matrix(6.12323e-17 -1 1 6.12323e-17 1613.94 4789)">14:54</text></g><g clip-path="url(#clip38)"><text font-family="Calibri,Calibri_MSFontService,sans-serif" font-weight="400" font-size="46" transform="matrix(6.12323e-17 -1 1 6.12323e-17 1713.31 4789)">14:55</text></g><g clip-path="url(#clip39)"><text font-family="Calibri,Calibri_MSFontService,sans-serif" font-weight="400" font-size="46" transform="matrix(6.12323e-17 -1 1 6.12323e-17 1812.68 4789)">14:56</text></g><g clip-path="url(#clip40)"><text font-family="Calibri,Calibri_MSFontService,sans-serif" font-weight="400" font-size="46" transform="matrix(6.12323e-17 -1 1 6.12323e-17 1912.05 4789)">14:57</text></g><g clip-path="url(#clip41)"><text font-family="Calibri,Calibri_MSFontService,sans-serif" font-weight="400" font-size="46" transform="matrix(6.12323e-17 -1 1 6.12323e-17 2011.42 4789)">14:58</text></g><g clip-path="url(#clip42)"><text font-family="Calibri,Calibri_MSFontService,sans-serif" font-weight="400" font-size="46" transform="matrix(6.12323e-17 -1 1 6.12323e-17 2110.79 4789)">14:59</text></g><g clip-path="url(#clip43)"><text font-family="Calibri,Calibri_MSFontService,sans-serif" font-weight="400" font-size="46" transform="matrix(6.12323e-17 -1 1 6.12323e-17 2210.16 4789)">15:00</text></g><g clip-path="url(#clip44)"><text font-family="Calibri,Calibri_MSFontService,sans-serif" font-weight="400" font-size="46" transform="matrix(6.12323e-17 -1 1 6.12323e-17 2309.52 4789)">15:01</text></g><g clip-path="url(#clip45)"><text font-family="Calibri,Calibri_MSFontService,sans-serif" font-weight="700" font-size="46" transform="matrix(6.12323e-17 -1 1 6.12323e-17 2536.39 4433)">Disk xfers</text></g><g clip-path="url(#clip46)"><text font-family="Calibri,Calibri_MSFontService,sans-serif" font-weight="700" font-size="46" transform="matrix(6.12323e-17 -1 1 6.12323e-17 665.042 4553)">CPU</text></g><g clip-path="url(#clip47)"><text font-family="Calibri,Calibri_MSFontService,sans-serif" font-weight="700" font-size="46" transform="matrix(6.12323e-17 -1 1 6.12323e-17 665.042 4459)">-</text></g><g clip-path="url(#clip48)"><text font-family="Calibri,Calibri_MSFontService,sans-serif" font-weight="700" font-size="46" transform="matrix(6.12323e-17 -1 1 6.12323e-17 665.042 4445)">Auslastung in %</text></g><g clip-path="url(#clip49)"><path d="M1359.5 4860.5 1447.5 4860.5" stroke="#000080" stroke-width="9.16667" stroke-linecap="round" stroke-linejoin="round" stroke-miterlimit="10" fill="none" fill-rule="evenodd"/></g><g clip-path="url(#clip50)"><text font-family="Calibri,Calibri_MSFontService,sans-serif" font-weight="400" font-size="46" transform="matrix(1 0 0 1 1456.42 4874)">CPU%</text></g><g clip-path="url(#clip51)"><path d="M1609.5 4860.5 1697.5 4860.5" stroke="#FF00FF" stroke-width="9.16667" stroke-linecap="round" stroke-linejoin="round" stroke-miterlimit="10" fill="none" fill-rule="evenodd"/></g><g clip-path="url(#clip52)"><text font-family="Calibri,Calibri_MSFontService,sans-serif" font-weight="400" font-size="46" transform="matrix(1 0 0 1 1706.7 4874)">IO/sec</text></g></g></svg>