<svg width="2032" height="1014" xmlns="http://www.w3.org/2000/svg" xmlns:xlink="http://www.w3.org/1999/xlink" overflow="hidden"><defs><clipPath id="clip0"><rect x="598" y="3826" width="2032" height="1014"/></clipPath><clipPath id="clip1"><rect x="598" y="3825" width="2031" height="1015"/></clipPath><clipPath id="clip2"><rect x="598" y="3825" width="2031" height="1015"/></clipPath><clipPath id="clip3"><rect x="598" y="3825" width="2031" height="1015"/></clipPath><clipPath id="clip4"><rect x="598" y="3825" width="2031" height="1015"/></clipPath><clipPath id="clip5"><rect x="598" y="3825" width="2031" height="1015"/></clipPath><clipPath id="clip6"><rect x="598" y="3825" width="2031" height="1015"/></clipPath><clipPath id="clip7"><rect x="837" y="3876" width="1533" height="692"/></clipPath><clipPath id="clip8"><rect x="837" y="3876" width="1533" height="692"/></clipPath><clipPath id="clip9"><rect x="598" y="3825" width="2031" height="1015"/></clipPath><clipPath id="clip10"><rect x="598" y="3825" width="2031" height="1015"/></clipPath><clipPath id="clip11"><rect x="598" y="3825" width="2031" height="1015"/></clipPath><clipPath id="clip12"><rect x="598" y="3825" width="2031" height="1015"/></clipPath><clipPath id="clip13"><rect x="598" y="3825" width="2031" height="1015"/></clipPath><clipPath id="clip14"><rect x="598" y="3825" width="2031" height="1015"/></clipPath><clipPath id="clip15"><rect x="598" y="3825" width="2031" height="1015"/></clipPath><clipPath id="clip16"><rect x="598" y="3825" width="2031" height="1015"/></clipPath><clipPath id="clip17"><rect x="598" y="3825" width="2031" height="1015"/></clipPath><clipPath id="clip18"><rect x="598" y="3825" width="2031" height="1015"/></clipPath><clipPath id="clip19"><rect x="598" y="3825" width="2031" height="1015"/></clipPath><clipPath id="clip20"><rect x="598" y="3825" width="2031" height="1015"/></clipPath><clipPath id="clip21"><rect x="598" y="3825" width="2031" height="1015"/></clipPath><clipPath id="clip22"><rect x="598" y="3825" width="2031" height="1015"/></clipPath><clipPath id="clip23"><rect x="598" y="3825" width="2031" height="1015"/></clipPath><clipPath id="clip24"><rect x="598" y="3825" width="2031" height="1015"/></clipPath><clipPath id="clip25"><rect x="598" y="3825" width="2031" height="1015"/></clipPath><clipPath id="clip26"><rect x="598" y="3825" width="2031" height="1015"/></clipPath><clipPath id="clip27"><rect x="598" y="3825" width="2031" height="1015"/></clipPath><clipPath id="clip28"><rect x="598" y="3825" width="2031" height="1015"/></clipPath><clipPath id="clip29"><rect x="598" y="3825" width="2031" height="1015"/></clipPath><clipPath id="clip30"><rect x="598" y="3825" width="2031" height="1015"/></clipPath><clipPath id="clip31"><rect x="598" y="3825" width="2031" height="1015"/></clipPath><clipPath id="clip32"><rect x="598" y="3825" width="2031" height="1015"/></clipPath><clipPath id="clip33"><rect x="598" y="3825" width="2031" height="1015"/></clipPath><clipPath id="clip34"><rect x="598" y="3825" width="2031" height="1015"/></clipPath><clipPath id="clip35"><rect x="598" y="3825" width="2031" height="1015"/></clipPath><clipPath id="clip36"><rect x="598" y="3825" width="2031" height="1015"/></clipPath><clipPath id="clip37"><rect x="598" y="3825" width="2031" height="1015"/></clipPath><clipPath id="clip38"><rect x="598" y="3825" width="2031" height="1015"/></clipPath><clipPath id="clip39"><rect x="598" y="3825" width="2031" height="1015"/></clipPath><clipPath id="clip40"><rect x="598" y="3825" width="2031" height="1015"/></clipPath><clipPath id="clip41"><rect x="598" y="3825" width="2031" height="1015"/></clipPath><clipPath id="clip42"><rect x="598" y="3825" width="2031" height="1015"/></clipPath><clipPath id="clip43"><rect x="598" y="3825" width="2031" height="1015"/></clipPath><clipPath id="clip44"><rect x="598" y="3825" width="2031" height="1015"/></clipPath><clipPath id="clip45"><rect x="598" y="3825" width="2031" height="1015"/></clipPath><clipPath id="clip46"><rect x="598" y="3825" width="2031" height="1015"/></clipPath><clipPath id="clip47"><rect x="598" y="3825" width="2031" height="1015"/></clipPath><clipPath id="clip48"><rect x="598" y="3825" width="2031" height="1015"/></clipPath><clipPath id="clip49"><rect x="598" y="3825" width="2031" height="1015"/></clipPath><clipPath id="clip50"><rect x="598" y="3825" width="2031" height="1015"/></clipPath><clipPath id="clip51"><rect x="598" y="3825" width="2031" height="1015"/></clipPath><clipPath id="clip52"><rect x="598" y="3825" width="2031" height="1015"/></clipPath><clipPath id="clip53"><rect x="598" y="3825" width="2031" height="1015"/></clipPath><clipPath id="clip54"><rect x="598" y="3825" width="2031" height="1015"/></clipPath><clipPath id="clip55"><rect x="598" y="3825" width="2031" height="1015"/></clipPath><clipPath id="clip56"><rect x="598" y="3825" width="2031" height="1015"/></clipPath><clipPath id="clip57"><rect x="598" y="3825" width="2031" height="1015"/></clipPath><clipPath id="clip58"><rect x="598" y="3825" width="2031" height="1015"/></clipPath><clipPath id="clip59"><rect x="598" y="3825" width="2031" height="1015"/></clipPath><clipPath id="clip60"><rect x="598" y="3825" width="2031" height="1015"/></clipPath><clipPath id="clip61"><rect x="598" y="3825" width="2031" height="1015"/></clipPath><clipPath id="clip62"><rect x="598" y="3825" width="2031" height="1015"/></clipPath></defs><g clip-path="url(#clip0)" transform="translate(-598 -3826)"><rect x="598" y="3826" width="2032" height="1014" fill="#FFFFFF"/><g clip-path="url(#clip1)"><rect x="837" y="3877" width="1530" height="689" fill="#FFFFFF"/></g><g clip-path="url(#clip2)"><path d="M0 0 0.000360892 689" stroke="#898989" stroke-width="2.29167" stroke-linejoin="round" stroke-miterlimit="10" fill="none" fill-rule="evenodd" transform="matrix(1 0 0 -1 2367 4566)"/></g><g clip-path="url(#clip3)"><path d="M2367 4566 2382 4566M2367 4489.15 2382 4489.15M2367 4412.15 2382 4412.15M2367 4336.14 2382 4336.14M2367 4259.14 2382 4259.14M2367 4183.14 2382 4183.14M2367 4106.13 2382 4106.13M2367 4030.13 2382 4030.13M2367 3953.13 2382 3953.13M2367 3877 2382 3877" stroke="#898989" stroke-width="2.29167" stroke-linejoin="round" stroke-miterlimit="10" fill="none"/></g><g clip-path="url(#clip4)"><path d="M0 0 0.000360892 689" stroke="#898989" stroke-width="2.29167" stroke-linejoin="round" stroke-miterlimit="10" fill="none" fill-rule="evenodd" transform="matrix(1 0 0 -1 837 4566)"/></g><g clip-path="url(#clip5)"><path d="M823 4566 837 4566M823 4497.15 837 4497.15M823 4428.15 837 4428.15M823 4359.14 837 4359.14M823 4290.14 837 4290.14M823 4221.14 837 4221.14M823 4152.14 837 4152.14M823 4083.13 837 4083.13M823 4014.13 837 4014.13M823 3946.13 837 3946.13M823 3877 837 3877" stroke="#898989" stroke-width="2.29167" stroke-linejoin="round" stroke-miterlimit="10" fill="none"/></g><g clip-path="url(#clip6)"><path d="M837 4566 2367 4566" stroke="#898989" stroke-width="2.29167" stroke-linejoin="round" stroke-miterlimit="10" fill="none" fill-rule="evenodd"/></g><g clip-path="url(#clip7)"><path d="M837.5 4425.5 847.528 4290.64 857.528 4308.64 868.529 4309.64 878.529 4308.64 888.529 4308.64 898.53 4307.64 908.53 4308.64 919.53 4312.64 929.531 4309.64 939.531 4309.64 949.531 4309.64 960.532 4308.64 970.532 4309.64 980.532 4309.64 990.533 4308.64 1001.53 4308.64 1011.53 4309.64 1021.53 4309.64 1031.53 4309.64 1041.53 4309.64 1052.53 4311.64 1062.54 4309.64 1072.54 4310.64 1082.54 4309.64 1093.54 4309.64 1103.54 4311.64 1113.54 4309.64 1123.54 4307.64 1134.54 4308.64 1144.54 4315.64 1154.54 4322.64 1164.54 4318.64 1175.54 4311.64 1185.54 4310.64 1195.54 4311.64 1205.54 4308.64 1215.54 4309.64 1226.54 4310.64 1236.54 4311.64 1246.54 4309.64 1256.54 4311.64 1267.54 4309.64 1277.54 4309.64 1287.54 4314.64 1297.54 4310.64 1308.54 4309.64 1318.54 4308.64 1328.54 4309.64 1338.54 4309.64 1348.54 4309.64 1359.54 4309.64 1369.55 4309.64 1379.55 4308.64 1389.55 4309.64 1400.55 4310.64 1410.55 4309.64 1420.55 4308.64 1430.55 4309.64 1441.55 4309.64 1451.55 4309.64 1461.55 4311.64 1471.55 4311.64 1481.55 4309.64 1492.55 4309.64 1502.55 4309.64 1512.55 4309.64 1522.55 4309.64 1533.55 4309.64 1543.55 4308.64 1553.55 4309.64 1563.55 4309.64 1574.55 4309.64 1584.55 4310.64 1594.55 4309.64 1604.55 4314.64 1615.55 4311.64 1625.55 4311.64 1635.55 4309.64 1645.55 4310.64 1655.55 4309.64 1666.55 4309.64 1676.56 4309.64 1686.56 4308.64 1696.56 4308.64 1707.56 4309.64 1717.56 4312.64 1727.56 4311.64 1737.56 4309.64 1748.56 4310.64 1758.56 4311.64 1768.56 4309.64 1778.56 4309.64 1788.56 4310.64 1799.56 4309.64 1809.56 4309.64 1819.56 4308.64 1829.56 4310.64 1840.56 4308.64 1850.56 4309.64 1860.56 4309.64 1870.56 4309.64 1881.56 4308.64 1891.56 4310.64 1901.56 4309.64 1911.56 4309.64 1922.56 4309.64 1932.56 4310.64 1942.56 4314.64 1952.56 4309.64 1962.56 4308.64 1973.56 4309.64 1983.57 4309.64 1993.57 4309.64 2003.57 4309.64 2014.57 4314.64 2024.57 4310.64 2034.57 4311.64 2044.57 4311.64 2055.57 4309.64 2065.57 4309.64 2075.57 4312.64 2085.57 4309.64 2095.57 4309.64 2106.57 4310.64 2116.57 4309.64 2126.57 4311.64 2136.57 4309.64 2147.57 4311.64 2157.57 4309.64 2167.57 4310.64 2177.57 4313.64 2188.57 4314.64 2198.57 4309.64 2208.57 4311.64 2218.57 4309.64 2229.57 4311.64 2239.57 4311.64 2249.57 4311.64 2259.57 4310.64 2269.57 4310.64 2280.57 4309.64 2290.58 4309.64 2300.58 4309.64 2310.58 4309.64 2321.58 4310.64 2331.58 4309.64 2341.58 4311.64 2351.58 4296.64 2362.5 4268.5" stroke="#000080" stroke-width="9.16667" stroke-linecap="round" stroke-linejoin="round" stroke-miterlimit="10" fill="none"/></g><g clip-path="url(#clip8)"><path d="M837.5 4565.5 847.528 4089.63 857.528 3994.63 868.529 4000.63 878.529 3998.63 888.529 3995.63 898.53 3997.63 908.53 3997.63 919.53 4001.63 929.531 3993.63 939.531 3990.63 949.531 3991.63 960.532 3988.63 970.532 3985.63 980.532 3989.63 990.533 3990.63 1001.53 3994.63 1011.53 3993.63 1021.53 3992.63 1031.53 3992.63 1041.53 3990.63 1052.53 3992.63 1062.54 3989.63 1072.54 3989.63 1082.54 3989.63 1093.54 3994.63 1103.54 3995.63 1113.54 3990.63 1123.54 3994.63 1134.54 3990.63 1144.54 4005.63 1154.54 4039.63 1164.54 4002.63 1175.54 3995.63 1185.54 3991.63 1195.54 3989.63 1205.54 3992.63 1215.54 3994.63 1226.54 3991.63 1236.54 3991.63 1246.54 3991.63 1256.54 3978.5 1267.54 3979.63 1277.54 3985.63 1287.54 3991.63 1297.54 3991.63 1308.54 3994.63 1318.54 3992.63 1328.54 3991.63 1338.54 3996.63 1348.54 3988.63 1359.54 3991.63 1369.55 3984.63 1379.55 3987.63 1389.55 3986.63 1400.55 3996.63 1410.55 3985.63 1420.55 3987.63 1430.55 3983.63 1441.55 3993.63 1451.55 3996.63 1461.55 4001.63 1471.55 3994.63 1481.55 3990.63 1492.55 3994.63 1502.55 3984.63 1512.55 3983.63 1522.55 3995.63 1533.55 3993.63 1543.55 3996.63 1553.55 3990.63 1563.55 3990.63 1574.55 3990.63 1584.55 3988.63 1594.55 3990.63 1604.55 3997.63 1615.55 3992.63 1625.55 3991.63 1635.55 3990.63 1645.55 3987.63 1655.55 3986.63 1666.55 3990.63 1676.56 3996.63 1686.56 3994.63 1696.56 3990.63 1707.56 3990.63 1717.56 3993.63 1727.56 3988.63 1737.56 3989.63 1748.56 3994.63 1758.56 3987.63 1768.56 3994.63 1778.56 3993.63 1788.56 3996.63 1799.56 3990.63 1809.56 3993.63 1819.56 4000.63 1829.56 3992.63 1840.56 3990.63 1850.56 3992.63 1860.56 3993.63 1870.56 3997.63 1881.56 3992.63 1891.56 3990.63 1901.56 3989.63 1911.56 3993.63 1922.56 3990.63 1932.56 3991.63 1942.56 3993.63 1952.56 3984.63 1962.56 3993.63 1973.56 3992.63 1983.57 3994.63 1993.57 3987.63 2003.57 3991.63 2014.57 4000.63 2024.57 3995.63 2034.57 3992.63 2044.57 3991.63 2055.57 3994.63 2065.57 3989.63 2075.57 3997.63 2085.57 3988.63 2095.57 3992.63 2106.57 3994.63 2116.57 3996.63 2126.57 3994.63 2136.57 3993.63 2147.57 3993.63 2157.57 3990.63 2167.57 3991.63 2177.57 3988.63 2188.57 3997.63 2198.57 3995.63 2208.57 3993.63 2218.57 3987.63 2229.57 3994.63 2239.57 3996.63 2249.57 3998.63 2259.57 3994.63 2269.57 3995.63 2280.57 3989.63 2290.58 3991.63 2300.58 3994.63 2310.58 3992.63 2321.58 3995.63 2331.58 3991.63 2341.58 3996.63 2351.58 4222.64 2362.5 4564.65" stroke="#FF00FF" stroke-width="9.16667" stroke-linecap="round" stroke-linejoin="round" stroke-miterlimit="10" fill="none"/></g><g clip-path="url(#clip9)"><text font-family="Calibri,Calibri_MSFontService,sans-serif" font-weight="400" font-size="46" transform="matrix(1 0 0 1 2409.76 4579)">0</text></g><g clip-path="url(#clip10)"><text font-family="Calibri,Calibri_MSFontService,sans-serif" font-weight="400" font-size="46" transform="matrix(1 0 0 1 2409.76 4503)">500</text></g><g clip-path="url(#clip11)"><text font-family="Calibri,Calibri_MSFontService,sans-serif" font-weight="400" font-size="46" transform="matrix(1 0 0 1 2409.76 4426)">1000</text></g><g clip-path="url(#clip12)"><text font-family="Calibri,Calibri_MSFontService,sans-serif" font-weight="400" font-size="46" transform="matrix(1 0 0 1 2409.76 4349)">1500</text></g><g clip-path="url(#clip13)"><text font-family="Calibri,Calibri_MSFontService,sans-serif" font-weight="400" font-size="46" transform="matrix(1 0 0 1 2409.76 4273)">2000</text></g><g clip-path="url(#clip14)"><text font-family="Calibri,Calibri_MSFontService,sans-serif" font-weight="400" font-size="46" transform="matrix(1 0 0 1 2409.76 4196)">2500</text></g><g clip-path="url(#clip15)"><text font-family="Calibri,Calibri_MSFontService,sans-serif" font-weight="400" font-size="46" transform="matrix(1 0 0 1 2409.76 4120)">3000</text></g><g clip-path="url(#clip16)"><text font-family="Calibri,Calibri_MSFontService,sans-serif" font-weight="400" font-size="46" transform="matrix(1 0 0 1 2409.76 4043)">3500</text></g><g clip-path="url(#clip17)"><text font-family="Calibri,Calibri_MSFontService,sans-serif" font-weight="400" font-size="46" transform="matrix(1 0 0 1 2409.76 3967)">4000</text></g><g clip-path="url(#clip18)"><text font-family="Calibri,Calibri_MSFontService,sans-serif" font-weight="400" font-size="46" transform="matrix(1 0 0 1 2409.76 3890)">4500</text></g><g clip-path="url(#clip19)"><text font-family="Calibri,Calibri_MSFontService,sans-serif" font-weight="400" font-size="46" transform="matrix(1 0 0 1 771.581 4579)">0</text></g><g clip-path="url(#clip20)"><text font-family="Calibri,Calibri_MSFontService,sans-serif" font-weight="400" font-size="46" transform="matrix(1 0 0 1 748.344 4510)">10</text></g><g clip-path="url(#clip21)"><text font-family="Calibri,Calibri_MSFontService,sans-serif" font-weight="400" font-size="46" transform="matrix(1 0 0 1 748.344 4441)">20</text></g><g clip-path="url(#clip22)"><text font-family="Calibri,Calibri_MSFontService,sans-serif" font-weight="400" font-size="46" transform="matrix(1 0 0 1 748.344 4372)">30</text></g><g clip-path="url(#clip23)"><text font-family="Calibri,Calibri_MSFontService,sans-serif" font-weight="400" font-size="46" transform="matrix(1 0 0 1 748.344 4304)">40</text></g><g clip-path="url(#clip24)"><text font-family="Calibri,Calibri_MSFontService,sans-serif" font-weight="400" font-size="46" transform="matrix(1 0 0 1 748.344 4235)">50</text></g><g clip-path="url(#clip25)"><text font-family="Calibri,Calibri_MSFontService,sans-serif" font-weight="400" font-size="46" transform="matrix(1 0 0 1 748.344 4166)">60</text></g><g clip-path="url(#clip26)"><text font-family="Calibri,Calibri_MSFontService,sans-serif" font-weight="400" font-size="46" transform="matrix(1 0 0 1 748.344 4097)">70</text></g><g clip-path="url(#clip27)"><text font-family="Calibri,Calibri_MSFontService,sans-serif" font-weight="400" font-size="46" transform="matrix(1 0 0 1 748.344 4028)">80</text></g><g clip-path="url(#clip28)"><text font-family="Calibri,Calibri_MSFontService,sans-serif" font-weight="400" font-size="46" transform="matrix(1 0 0 1 748.344 3959)">90</text></g><g clip-path="url(#clip29)"><text font-family="Calibri,Calibri_MSFontService,sans-serif" font-weight="400" font-size="46" transform="matrix(1 0 0 1 725.106 3890)">100</text></g><g clip-path="url(#clip30)"><text font-family="Calibri,Calibri_MSFontService,sans-serif" font-weight="400" font-size="46" transform="matrix(6.12323e-17 -1 1 6.12323e-17 853.363 4700)">22:24</text></g><g clip-path="url(#clip31)"><text font-family="Calibri,Calibri_MSFontService,sans-serif" font-weight="400" font-size="46" transform="matrix(6.12323e-17 -1 1 6.12323e-17 914.765 4700)">22:30</text></g><g clip-path="url(#clip32)"><text font-family="Calibri,Calibri_MSFontService,sans-serif" font-weight="400" font-size="46" transform="matrix(6.12323e-17 -1 1 6.12323e-17 976.165 4700)">22:36</text></g><g clip-path="url(#clip33)"><text font-family="Calibri,Calibri_MSFontService,sans-serif" font-weight="400" font-size="46" transform="matrix(6.12323e-17 -1 1 6.12323e-17 1037.57 4700)">22:42</text></g><g clip-path="url(#clip34)"><text font-family="Calibri,Calibri_MSFontService,sans-serif" font-weight="400" font-size="46" transform="matrix(6.12323e-17 -1 1 6.12323e-17 1098.97 4700)">22:48</text></g><g clip-path="url(#clip35)"><text font-family="Calibri,Calibri_MSFontService,sans-serif" font-weight="400" font-size="46" transform="matrix(6.12323e-17 -1 1 6.12323e-17 1160.37 4700)">22:54</text></g><g clip-path="url(#clip36)"><text font-family="Calibri,Calibri_MSFontService,sans-serif" font-weight="400" font-size="46" transform="matrix(6.12323e-17 -1 1 6.12323e-17 1221.77 4700)">23:00</text></g><g clip-path="url(#clip37)"><text font-family="Calibri,Calibri_MSFontService,sans-serif" font-weight="400" font-size="46" transform="matrix(6.12323e-17 -1 1 6.12323e-17 1283.17 4700)">23:06</text></g><g clip-path="url(#clip38)"><text font-family="Calibri,Calibri_MSFontService,sans-serif" font-weight="400" font-size="46" transform="matrix(6.12323e-17 -1 1 6.12323e-17 1344.57 4700)">23:12</text></g><g clip-path="url(#clip39)"><text font-family="Calibri,Calibri_MSFontService,sans-serif" font-weight="400" font-size="46" transform="matrix(6.12323e-17 -1 1 6.12323e-17 1405.97 4700)">23:18</text></g><g clip-path="url(#clip40)"><text font-family="Calibri,Calibri_MSFontService,sans-serif" font-weight="400" font-size="46" transform="matrix(6.12323e-17 -1 1 6.12323e-17 1467.37 4700)">23:24</text></g><g clip-path="url(#clip41)"><text font-family="Calibri,Calibri_MSFontService,sans-serif" font-weight="400" font-size="46" transform="matrix(6.12323e-17 -1 1 6.12323e-17 1528.77 4700)">23:30</text></g><g clip-path="url(#clip42)"><text font-family="Calibri,Calibri_MSFontService,sans-serif" font-weight="400" font-size="46" transform="matrix(6.12323e-17 -1 1 6.12323e-17 1590.18 4700)">23:36</text></g><g clip-path="url(#clip43)"><text font-family="Calibri,Calibri_MSFontService,sans-serif" font-weight="400" font-size="46" transform="matrix(6.12323e-17 -1 1 6.12323e-17 1651.58 4700)">23:42</text></g><g clip-path="url(#clip44)"><text font-family="Calibri,Calibri_MSFontService,sans-serif" font-weight="400" font-size="46" transform="matrix(6.12323e-17 -1 1 6.12323e-17 1712.98 4700)">23:48</text></g><g clip-path="url(#clip45)"><text font-family="Calibri,Calibri_MSFontService,sans-serif" font-weight="400" font-size="46" transform="matrix(6.12323e-17 -1 1 6.12323e-17 1774.38 4700)">23:54</text></g><g clip-path="url(#clip46)"><text font-family="Calibri,Calibri_MSFontService,sans-serif" font-weight="400" font-size="46" transform="matrix(6.12323e-17 -1 1 6.12323e-17 1835.78 4700)">00:00</text></g><g clip-path="url(#clip47)"><text font-family="Calibri,Calibri_MSFontService,sans-serif" font-weight="400" font-size="46" transform="matrix(6.12323e-17 -1 1 6.12323e-17 1897.18 4700)">00:06</text></g><g clip-path="url(#clip48)"><text font-family="Calibri,Calibri_MSFontService,sans-serif" font-weight="400" font-size="46" transform="matrix(6.12323e-17 -1 1 6.12323e-17 1958.58 4700)">00:12</text></g><g clip-path="url(#clip49)"><text font-family="Calibri,Calibri_MSFontService,sans-serif" font-weight="400" font-size="46" transform="matrix(6.12323e-17 -1 1 6.12323e-17 2019.98 4700)">00:18</text></g><g clip-path="url(#clip50)"><text font-family="Calibri,Calibri_MSFontService,sans-serif" font-weight="400" font-size="46" transform="matrix(6.12323e-17 -1 1 6.12323e-17 2081.38 4700)">00:24</text></g><g clip-path="url(#clip51)"><text font-family="Calibri,Calibri_MSFontService,sans-serif" font-weight="400" font-size="46" transform="matrix(6.12323e-17 -1 1 6.12323e-17 2142.78 4700)">00:30</text></g><g clip-path="url(#clip52)"><text font-family="Calibri,Calibri_MSFontService,sans-serif" font-weight="400" font-size="46" transform="matrix(6.12323e-17 -1 1 6.12323e-17 2204.19 4700)">00:36</text></g><g clip-path="url(#clip53)"><text font-family="Calibri,Calibri_MSFontService,sans-serif" font-weight="400" font-size="46" transform="matrix(6.12323e-17 -1 1 6.12323e-17 2265.59 4700)">00:42</text></g><g clip-path="url(#clip54)"><text font-family="Calibri,Calibri_MSFontService,sans-serif" font-weight="400" font-size="46" transform="matrix(6.12323e-17 -1 1 6.12323e-17 2326.99 4700)">00:48</text></g><g clip-path="url(#clip55)"><text font-family="Calibri,Calibri_MSFontService,sans-serif" font-weight="700" font-size="46" transform="matrix(6.12323e-17 -1 1 6.12323e-17 2560.46 4313)">Disk xfers</text></g><g clip-path="url(#clip56)"><text font-family="Calibri,Calibri_MSFontService,sans-serif" font-weight="700" font-size="46" transform="matrix(6.12323e-17 -1 1 6.12323e-17 699.417 4432)">CPU</text></g><g clip-path="url(#clip57)"><text font-family="Calibri,Calibri_MSFontService,sans-serif" font-weight="700" font-size="46" transform="matrix(6.12323e-17 -1 1 6.12323e-17 699.417 4339)">-</text></g><g clip-path="url(#clip58)"><text font-family="Calibri,Calibri_MSFontService,sans-serif" font-weight="700" font-size="46" transform="matrix(6.12323e-17 -1 1 6.12323e-17 699.417 4325)">Auslastung in %</text></g><g clip-path="url(#clip59)"><path d="M1388.5 4771.5 1476.5 4771.5" stroke="#000080" stroke-width="9.16667" stroke-linecap="round" stroke-linejoin="round" stroke-miterlimit="10" fill="none" fill-rule="evenodd"/></g><g clip-path="url(#clip60)"><text font-family="Calibri,Calibri_MSFontService,sans-serif" font-weight="400" font-size="46" transform="matrix(1 0 0 1 1485.64 4785)">CPU%</text></g><g clip-path="url(#clip61)"><path d="M1638.5 4771.5 1726.5 4771.5" stroke="#FF00FF" stroke-width="9.16667" stroke-linecap="round" stroke-linejoin="round" stroke-miterlimit="10" fill="none" fill-rule="evenodd"/></g><g clip-path="url(#clip62)"><text font-family="Calibri,Calibri_MSFontService,sans-serif" font-weight="400" font-size="46" transform="matrix(1 0 0 1 1735.91 4785)">IO/sec</text></g></g></svg>