<svg width="2049" height="952" xmlns="http://www.w3.org/2000/svg" xmlns:xlink="http://www.w3.org/1999/xlink" overflow="hidden"><defs><clipPath id="clip0"><rect x="1100" y="3781" width="2049" height="952"/></clipPath><clipPath id="clip1"><rect x="1100" y="3781" width="2048" height="952"/></clipPath><clipPath id="clip2"><rect x="1100" y="3781" width="2048" height="952"/></clipPath><clipPath id="clip3"><rect x="1100" y="3781" width="2048" height="952"/></clipPath><clipPath id="clip4"><rect x="1100" y="3781" width="2048" height="952"/></clipPath><clipPath id="clip5"><rect x="1100" y="3781" width="2048" height="952"/></clipPath><clipPath id="clip6"><rect x="1100" y="3781" width="2048" height="952"/></clipPath><clipPath id="clip7"><rect x="1339" y="3832" width="1597" height="630"/></clipPath><clipPath id="clip8"><rect x="1339" y="3832" width="1597" height="630"/></clipPath><clipPath id="clip9"><rect x="1100" y="3781" width="2048" height="952"/></clipPath><clipPath id="clip10"><rect x="1100" y="3781" width="2048" height="952"/></clipPath><clipPath id="clip11"><rect x="1100" y="3781" width="2048" height="952"/></clipPath><clipPath id="clip12"><rect x="1100" y="3781" width="2048" height="952"/></clipPath><clipPath id="clip13"><rect x="1100" y="3781" width="2048" height="952"/></clipPath><clipPath id="clip14"><rect x="1100" y="3781" width="2048" height="952"/></clipPath><clipPath id="clip15"><rect x="1100" y="3781" width="2048" height="952"/></clipPath><clipPath id="clip16"><rect x="1100" y="3781" width="2048" height="952"/></clipPath><clipPath id="clip17"><rect x="1100" y="3781" width="2048" height="952"/></clipPath><clipPath id="clip18"><rect x="1100" y="3781" width="2048" height="952"/></clipPath><clipPath id="clip19"><rect x="1100" y="3781" width="2048" height="952"/></clipPath><clipPath id="clip20"><rect x="1100" y="3781" width="2048" height="952"/></clipPath><clipPath id="clip21"><rect x="1100" y="3781" width="2048" height="952"/></clipPath><clipPath id="clip22"><rect x="1100" y="3781" width="2048" height="952"/></clipPath><clipPath id="clip23"><rect x="1100" y="3781" width="2048" height="952"/></clipPath><clipPath id="clip24"><rect x="1100" y="3781" width="2048" height="952"/></clipPath><clipPath id="clip25"><rect x="1100" y="3781" width="2048" height="952"/></clipPath><clipPath id="clip26"><rect x="1100" y="3781" width="2048" height="952"/></clipPath><clipPath id="clip27"><rect x="1100" y="3781" width="2048" height="952"/></clipPath><clipPath id="clip28"><rect x="1100" y="3781" width="2048" height="952"/></clipPath><clipPath id="clip29"><rect x="1100" y="3781" width="2048" height="952"/></clipPath><clipPath id="clip30"><rect x="1100" y="3781" width="2048" height="952"/></clipPath><clipPath id="clip31"><rect x="1100" y="3781" width="2048" height="952"/></clipPath><clipPath id="clip32"><rect x="1100" y="3781" width="2048" height="952"/></clipPath><clipPath id="clip33"><rect x="1100" y="3781" width="2048" height="952"/></clipPath><clipPath id="clip34"><rect x="1100" y="3781" width="2048" height="952"/></clipPath><clipPath id="clip35"><rect x="1100" y="3781" width="2048" height="952"/></clipPath><clipPath id="clip36"><rect x="1100" y="3781" width="2048" height="952"/></clipPath><clipPath id="clip37"><rect x="1100" y="3781" width="2048" height="952"/></clipPath><clipPath id="clip38"><rect x="1100" y="3781" width="2048" height="952"/></clipPath><clipPath id="clip39"><rect x="1100" y="3781" width="2048" height="952"/></clipPath><clipPath id="clip40"><rect x="1100" y="3781" width="2048" height="952"/></clipPath><clipPath id="clip41"><rect x="1100" y="3781" width="2048" height="952"/></clipPath></defs><g clip-path="url(#clip0)" transform="translate(-1100 -3781)"><rect x="1100" y="3781" width="2049" height="952" fill="#FFFFFF"/><g clip-path="url(#clip1)"><rect x="1339" y="3832" width="1594" height="627" fill="#FFFFFF"/></g><g clip-path="url(#clip2)"><path d="M0 0 0.000360892 627" stroke="#898989" stroke-width="2.29167" stroke-linejoin="round" stroke-miterlimit="10" fill="none" fill-rule="evenodd" transform="matrix(1 0 0 -1 2933 4459)"/></g><g clip-path="url(#clip3)"><path d="M2933 4459 2947 4459M2933 4389.14 2947 4389.14M2933 4320.14 2947 4320.14M2933 4250.14 2947 4250.14M2933 4180.14 2947 4180.14M2933 4111.13 2947 4111.13M2933 4041.13 2947 4041.13M2933 3971.13 2947 3971.13M2933 3902.13 2947 3902.13M2933 3832 2947 3832" stroke="#898989" stroke-width="2.29167" stroke-linejoin="round" stroke-miterlimit="10" fill="none"/></g><g clip-path="url(#clip4)"><path d="M0 0 0.000360892 627" stroke="#898989" stroke-width="2.29167" stroke-linejoin="round" stroke-miterlimit="10" fill="none" fill-rule="evenodd" transform="matrix(1 0 0 -1 1339 4459)"/></g><g clip-path="url(#clip5)"><path d="M1325 4459 1339 4459M1325 4396.14 1339 4396.14M1325 4333.14 1339 4333.14M1325 4271.14 1339 4271.14M1325 4208.14 1339 4208.14M1325 4145.14 1339 4145.14M1325 4083.13 1339 4083.13M1325 4020.13 1339 4020.13M1325 3957.13 1339 3957.13M1325 3895.13 1339 3895.13M1325 3832 1339 3832" stroke="#898989" stroke-width="2.29167" stroke-linejoin="round" stroke-miterlimit="10" fill="none"/></g><g clip-path="url(#clip6)"><path d="M1339 4459 2933 4459" stroke="#898989" stroke-width="2.29167" stroke-linejoin="round" stroke-miterlimit="10" fill="none" fill-rule="evenodd"/></g><g clip-path="url(#clip7)"><path d="M1339.5 4334.5 1794.56 4000.63 2249.57 3987.5 2705.5 4031.63" stroke="#000080" stroke-width="9.16667" stroke-linecap="round" stroke-linejoin="round" stroke-miterlimit="10" fill="none"/></g><g clip-path="url(#clip8)"><path d="M1339.5 4368.5 1794.56 3887.5 2249.57 3901.63 2705.5 3943.63" stroke="#FF00FF" stroke-width="9.16667" stroke-linecap="round" stroke-linejoin="round" stroke-miterlimit="10" fill="none"/></g><g clip-path="url(#clip9)"><text font-family="Calibri,Calibri_MSFontService,sans-serif" font-weight="400" font-size="46" transform="matrix(1 0 0 1 2975.29 4472)">0</text></g><g clip-path="url(#clip10)"><text font-family="Calibri,Calibri_MSFontService,sans-serif" font-weight="400" font-size="46" transform="matrix(1 0 0 1 2975.29 4403)">2</text></g><g clip-path="url(#clip11)"><text font-family="Calibri,Calibri_MSFontService,sans-serif" font-weight="400" font-size="46" transform="matrix(1 0 0 1 2975.29 4333)">4</text></g><g clip-path="url(#clip12)"><text font-family="Calibri,Calibri_MSFontService,sans-serif" font-weight="400" font-size="46" transform="matrix(1 0 0 1 2975.29 4264)">6</text></g><g clip-path="url(#clip13)"><text font-family="Calibri,Calibri_MSFontService,sans-serif" font-weight="400" font-size="46" transform="matrix(1 0 0 1 2975.29 4194)">8</text></g><g clip-path="url(#clip14)"><text font-family="Calibri,Calibri_MSFontService,sans-serif" font-weight="400" font-size="46" transform="matrix(1 0 0 1 2975.29 4124)">10</text></g><g clip-path="url(#clip15)"><text font-family="Calibri,Calibri_MSFontService,sans-serif" font-weight="400" font-size="46" transform="matrix(1 0 0 1 2975.29 4055)">12</text></g><g clip-path="url(#clip16)"><text font-family="Calibri,Calibri_MSFontService,sans-serif" font-weight="400" font-size="46" transform="matrix(1 0 0 1 2975.29 3985)">14</text></g><g clip-path="url(#clip17)"><text font-family="Calibri,Calibri_MSFontService,sans-serif" font-weight="400" font-size="46" transform="matrix(1 0 0 1 2975.29 3915)">16</text></g><g clip-path="url(#clip18)"><text font-family="Calibri,Calibri_MSFontService,sans-serif" font-weight="400" font-size="46" transform="matrix(1 0 0 1 2975.29 3846)">18</text></g><g clip-path="url(#clip19)"><text font-family="Calibri,Calibri_MSFontService,sans-serif" font-weight="400" font-size="46" transform="matrix(1 0 0 1 1273.46 4472)">0</text></g><g clip-path="url(#clip20)"><text font-family="Calibri,Calibri_MSFontService,sans-serif" font-weight="400" font-size="46" transform="matrix(1 0 0 1 1250.22 4410)">10</text></g><g clip-path="url(#clip21)"><text font-family="Calibri,Calibri_MSFontService,sans-serif" font-weight="400" font-size="46" transform="matrix(1 0 0 1 1250.22 4347)">20</text></g><g clip-path="url(#clip22)"><text font-family="Calibri,Calibri_MSFontService,sans-serif" font-weight="400" font-size="46" transform="matrix(1 0 0 1 1250.22 4284)">30</text></g><g clip-path="url(#clip23)"><text font-family="Calibri,Calibri_MSFontService,sans-serif" font-weight="400" font-size="46" transform="matrix(1 0 0 1 1250.22 4222)">40</text></g><g clip-path="url(#clip24)"><text font-family="Calibri,Calibri_MSFontService,sans-serif" font-weight="400" font-size="46" transform="matrix(1 0 0 1 1250.22 4159)">50</text></g><g clip-path="url(#clip25)"><text font-family="Calibri,Calibri_MSFontService,sans-serif" font-weight="400" font-size="46" transform="matrix(1 0 0 1 1250.22 4096)">60</text></g><g clip-path="url(#clip26)"><text font-family="Calibri,Calibri_MSFontService,sans-serif" font-weight="400" font-size="46" transform="matrix(1 0 0 1 1250.22 4034)">70</text></g><g clip-path="url(#clip27)"><text font-family="Calibri,Calibri_MSFontService,sans-serif" font-weight="400" font-size="46" transform="matrix(1 0 0 1 1250.22 3971)">80</text></g><g clip-path="url(#clip28)"><text font-family="Calibri,Calibri_MSFontService,sans-serif" font-weight="400" font-size="46" transform="matrix(1 0 0 1 1250.22 3908)">90</text></g><g clip-path="url(#clip29)"><text font-family="Calibri,Calibri_MSFontService,sans-serif" font-weight="400" font-size="46" transform="matrix(1 0 0 1 1226.98 3846)">100</text></g><g clip-path="url(#clip30)"><text font-family="Calibri,Calibri_MSFontService,sans-serif" font-weight="400" font-size="46" transform="matrix(6.12323e-17 -1 1 6.12323e-17 1355.24 4593)">08:40</text></g><g clip-path="url(#clip31)"><text font-family="Calibri,Calibri_MSFontService,sans-serif" font-weight="400" font-size="46" transform="matrix(6.12323e-17 -1 1 6.12323e-17 1810.54 4593)">08:41</text></g><g clip-path="url(#clip32)"><text font-family="Calibri,Calibri_MSFontService,sans-serif" font-weight="400" font-size="46" transform="matrix(6.12323e-17 -1 1 6.12323e-17 2265.85 4593)">08:42</text></g><g clip-path="url(#clip33)"><text font-family="Calibri,Calibri_MSFontService,sans-serif" font-weight="400" font-size="46" transform="matrix(6.12323e-17 -1 1 6.12323e-17 2721.16 4593)">08:43</text></g><g clip-path="url(#clip34)"><text font-family="Calibri,Calibri_MSFontService,sans-serif" font-weight="700" font-size="46" transform="matrix(6.12323e-17 -1 1 6.12323e-17 3079.52 4238)">Disk xfers</text></g><g clip-path="url(#clip35)"><text font-family="Calibri,Calibri_MSFontService,sans-serif" font-weight="700" font-size="46" transform="matrix(6.12323e-17 -1 1 6.12323e-17 1201.29 4357)">CPU</text></g><g clip-path="url(#clip36)"><text font-family="Calibri,Calibri_MSFontService,sans-serif" font-weight="700" font-size="46" transform="matrix(6.12323e-17 -1 1 6.12323e-17 1201.29 4263)">-</text></g><g clip-path="url(#clip37)"><text font-family="Calibri,Calibri_MSFontService,sans-serif" font-weight="700" font-size="46" transform="matrix(6.12323e-17 -1 1 6.12323e-17 1201.29 4249)">Auslastung in %</text></g><g clip-path="url(#clip38)"><path d="M1898.5 4664.5 1986.5 4664.5" stroke="#000080" stroke-width="9.16667" stroke-linecap="round" stroke-linejoin="round" stroke-miterlimit="10" fill="none" fill-rule="evenodd"/></g><g clip-path="url(#clip39)"><text font-family="Calibri,Calibri_MSFontService,sans-serif" font-weight="400" font-size="46" transform="matrix(1 0 0 1 1996.11 4678)">CPU%</text></g><g clip-path="url(#clip40)"><path d="M2149.5 4664.5 2237.5 4664.5" stroke="#FF00FF" stroke-width="9.16667" stroke-linecap="round" stroke-linejoin="round" stroke-miterlimit="10" fill="none" fill-rule="evenodd"/></g><g clip-path="url(#clip41)"><text font-family="Calibri,Calibri_MSFontService,sans-serif" font-weight="400" font-size="46" transform="matrix(1 0 0 1 2246.38 4678)">IO/sec</text></g></g></svg>