<svg width="2007" height="1017" xmlns="http://www.w3.org/2000/svg" xmlns:xlink="http://www.w3.org/1999/xlink" overflow="hidden"><defs><clipPath id="clip0"><rect x="1100" y="3575" width="2007" height="1017"/></clipPath><clipPath id="clip1"><rect x="1100" y="3575" width="2007" height="1017"/></clipPath><clipPath id="clip2"><rect x="1100" y="3575" width="2007" height="1017"/></clipPath><clipPath id="clip3"><rect x="1100" y="3575" width="2007" height="1017"/></clipPath><clipPath id="clip4"><rect x="1100" y="3575" width="2007" height="1017"/></clipPath><clipPath id="clip5"><rect x="1100" y="3575" width="2007" height="1017"/></clipPath><clipPath id="clip6"><rect x="1100" y="3575" width="2007" height="1017"/></clipPath><clipPath id="clip7"><rect x="1339" y="3625" width="1579" height="696"/></clipPath><clipPath id="clip8"><rect x="1339" y="3625" width="1579" height="696"/></clipPath><clipPath id="clip9"><rect x="1100" y="3575" width="2007" height="1017"/></clipPath><clipPath id="clip10"><rect x="1100" y="3575" width="2007" height="1017"/></clipPath><clipPath id="clip11"><rect x="1100" y="3575" width="2007" height="1017"/></clipPath><clipPath id="clip12"><rect x="1100" y="3575" width="2007" height="1017"/></clipPath><clipPath id="clip13"><rect x="1100" y="3575" width="2007" height="1017"/></clipPath><clipPath id="clip14"><rect x="1100" y="3575" width="2007" height="1017"/></clipPath><clipPath id="clip15"><rect x="1100" y="3575" width="2007" height="1017"/></clipPath><clipPath id="clip16"><rect x="1100" y="3575" width="2007" height="1017"/></clipPath><clipPath id="clip17"><rect x="1100" y="3575" width="2007" height="1017"/></clipPath><clipPath id="clip18"><rect x="1100" y="3575" width="2007" height="1017"/></clipPath><clipPath id="clip19"><rect x="1100" y="3575" width="2007" height="1017"/></clipPath><clipPath id="clip20"><rect x="1100" y="3575" width="2007" height="1017"/></clipPath><clipPath id="clip21"><rect x="1100" y="3575" width="2007" height="1017"/></clipPath><clipPath id="clip22"><rect x="1100" y="3575" width="2007" height="1017"/></clipPath><clipPath id="clip23"><rect x="1100" y="3575" width="2007" height="1017"/></clipPath><clipPath id="clip24"><rect x="1100" y="3575" width="2007" height="1017"/></clipPath><clipPath id="clip25"><rect x="1100" y="3575" width="2007" height="1017"/></clipPath><clipPath id="clip26"><rect x="1100" y="3575" width="2007" height="1017"/></clipPath><clipPath id="clip27"><rect x="1100" y="3575" width="2007" height="1017"/></clipPath><clipPath id="clip28"><rect x="1100" y="3575" width="2007" height="1017"/></clipPath><clipPath id="clip29"><rect x="1100" y="3575" width="2007" height="1017"/></clipPath><clipPath id="clip30"><rect x="1100" y="3575" width="2007" height="1017"/></clipPath><clipPath id="clip31"><rect x="1100" y="3575" width="2007" height="1017"/></clipPath><clipPath id="clip32"><rect x="1100" y="3575" width="2007" height="1017"/></clipPath><clipPath id="clip33"><rect x="1100" y="3575" width="2007" height="1017"/></clipPath><clipPath id="clip34"><rect x="1100" y="3575" width="2007" height="1017"/></clipPath><clipPath id="clip35"><rect x="1100" y="3575" width="2007" height="1017"/></clipPath><clipPath id="clip36"><rect x="1100" y="3575" width="2007" height="1017"/></clipPath><clipPath id="clip37"><rect x="1100" y="3575" width="2007" height="1017"/></clipPath><clipPath id="clip38"><rect x="1100" y="3575" width="2007" height="1017"/></clipPath><clipPath id="clip39"><rect x="1100" y="3575" width="2007" height="1017"/></clipPath><clipPath id="clip40"><rect x="1100" y="3575" width="2007" height="1017"/></clipPath><clipPath id="clip41"><rect x="1100" y="3575" width="2007" height="1017"/></clipPath><clipPath id="clip42"><rect x="1100" y="3575" width="2007" height="1017"/></clipPath><clipPath id="clip43"><rect x="1100" y="3575" width="2007" height="1017"/></clipPath><clipPath id="clip44"><rect x="1100" y="3575" width="2007" height="1017"/></clipPath><clipPath id="clip45"><rect x="1100" y="3575" width="2007" height="1017"/></clipPath><clipPath id="clip46"><rect x="1100" y="3575" width="2007" height="1017"/></clipPath><clipPath id="clip47"><rect x="1100" y="3575" width="2007" height="1017"/></clipPath><clipPath id="clip48"><rect x="1100" y="3575" width="2007" height="1017"/></clipPath><clipPath id="clip49"><rect x="1100" y="3575" width="2007" height="1017"/></clipPath><clipPath id="clip50"><rect x="1100" y="3575" width="2007" height="1017"/></clipPath><clipPath id="clip51"><rect x="1100" y="3575" width="2007" height="1017"/></clipPath><clipPath id="clip52"><rect x="1100" y="3575" width="2007" height="1017"/></clipPath><clipPath id="clip53"><rect x="1100" y="3575" width="2007" height="1017"/></clipPath><clipPath id="clip54"><rect x="1100" y="3575" width="2007" height="1017"/></clipPath><clipPath id="clip55"><rect x="1100" y="3575" width="2007" height="1017"/></clipPath><clipPath id="clip56"><rect x="1100" y="3575" width="2007" height="1017"/></clipPath><clipPath id="clip57"><rect x="1100" y="3575" width="2007" height="1017"/></clipPath><clipPath id="clip58"><rect x="1100" y="3575" width="2007" height="1017"/></clipPath></defs><g clip-path="url(#clip0)" transform="translate(-1100 -3575)"><rect x="1100" y="3575" width="2007" height="1017" fill="#FFFFFF"/><g clip-path="url(#clip1)"><rect x="1339" y="3626" width="1576" height="692" fill="#FFFFFF"/></g><g clip-path="url(#clip2)"><path d="M0 0 0.000360892 692" stroke="#898989" stroke-width="2.29167" stroke-linejoin="round" stroke-miterlimit="10" fill="none" fill-rule="evenodd" transform="matrix(1 0 0 -1 2915 4318)"/></g><g clip-path="url(#clip3)"><path d="M2915 4318 2929 4318M2915 4203.14 2929 4203.14M2915 4087.13 2929 4087.13M2915 3972.13 2929 3972.13M2915 3856.13 2929 3856.13M2915 3741.12 2929 3741.12M2915 3626 2929 3626" stroke="#898989" stroke-width="2.29167" stroke-linejoin="round" stroke-miterlimit="10" fill="none"/></g><g clip-path="url(#clip4)"><path d="M0 0 0.000360892 692" stroke="#898989" stroke-width="2.29167" stroke-linejoin="round" stroke-miterlimit="10" fill="none" fill-rule="evenodd" transform="matrix(1 0 0 -1 1339 4318)"/></g><g clip-path="url(#clip5)"><path d="M1325 4318 1339 4318M1325 4249.14 1339 4249.14M1325 4179.14 1339 4179.14M1325 4110.13 1339 4110.13M1325 4041.13 1339 4041.13M1325 3972.13 1339 3972.13M1325 3903.13 1339 3903.13M1325 3833.13 1339 3833.13M1325 3764.12 1339 3764.12M1325 3695.12 1339 3695.12M1325 3626 1339 3626" stroke="#898989" stroke-width="2.29167" stroke-linejoin="round" stroke-miterlimit="10" fill="none"/></g><g clip-path="url(#clip6)"><path d="M1339 4318 2915 4318" stroke="#898989" stroke-width="2.29167" stroke-linejoin="round" stroke-miterlimit="10" fill="none" fill-rule="evenodd"/></g><g clip-path="url(#clip7)"><path d="M1339.5 4190.5 1406.55 3811.63 1473.55 3795.62 1540.55 3795.62 1607.55 3795.62 1674.56 3794.5 1741.56 3794.5 1808.56 3796.62 1875.56 3794.5 1942.56 3794.5 2009.57 3795.62 2076.57 3794.62 2143.57 3795.62 2210.57 3794.62 2277.57 3794.5 2344.58 3795.62 2411.58 3794.62 2478.58 3794.62 2545.58 3794.62 2612.59 3794.62 2680.59 3796.62 2747.59 3794.5 2814.59 3798.62 2881.5 3894.63" stroke="#000080" stroke-width="9.16667" stroke-linecap="round" stroke-linejoin="round" stroke-miterlimit="10" fill="none"/></g><g clip-path="url(#clip8)"><path d="M1339.5 4318.5 1406.55 3787.62 1473.55 3833.63 1540.55 3741.5 1607.55 3833.63 1674.56 3833.63 1741.56 3856.63 1808.56 3971.63 1875.56 3856.63 1942.56 3902.63 2009.57 3833.63 2076.57 3810.62 2143.57 3902.63 2210.57 3856.63 2277.57 3948.63 2344.58 3787.62 2411.58 3856.63 2478.58 3856.63 2545.58 3948.63 2612.59 3902.63 2680.59 3810.62 2747.59 3833.63 2814.59 4017.63 2881.5 3833.63" stroke="#FF00FF" stroke-width="9.16667" stroke-linecap="round" stroke-linejoin="round" stroke-miterlimit="10" fill="none"/></g><g clip-path="url(#clip9)"><text font-family="Calibri,Calibri_MSFontService,sans-serif" font-weight="400" font-size="46" transform="matrix(1 0 0 1 2957.28 4332)">0</text></g><g clip-path="url(#clip10)"><text font-family="Calibri,Calibri_MSFontService,sans-serif" font-weight="400" font-size="46" transform="matrix(1 0 0 1 2957.28 4216)">1</text></g><g clip-path="url(#clip11)"><text font-family="Calibri,Calibri_MSFontService,sans-serif" font-weight="400" font-size="46" transform="matrix(1 0 0 1 2957.28 4101)">2</text></g><g clip-path="url(#clip12)"><text font-family="Calibri,Calibri_MSFontService,sans-serif" font-weight="400" font-size="46" transform="matrix(1 0 0 1 2957.28 3985)">3</text></g><g clip-path="url(#clip13)"><text font-family="Calibri,Calibri_MSFontService,sans-serif" font-weight="400" font-size="46" transform="matrix(1 0 0 1 2957.28 3870)">4</text></g><g clip-path="url(#clip14)"><text font-family="Calibri,Calibri_MSFontService,sans-serif" font-weight="400" font-size="46" transform="matrix(1 0 0 1 2957.28 3755)">5</text></g><g clip-path="url(#clip15)"><text font-family="Calibri,Calibri_MSFontService,sans-serif" font-weight="400" font-size="46" transform="matrix(1 0 0 1 2957.28 3639)">6</text></g><g clip-path="url(#clip16)"><text font-family="Calibri,Calibri_MSFontService,sans-serif" font-weight="400" font-size="46" transform="matrix(1 0 0 1 1273.46 4332)">0</text></g><g clip-path="url(#clip17)"><text font-family="Calibri,Calibri_MSFontService,sans-serif" font-weight="400" font-size="46" transform="matrix(1 0 0 1 1250.22 4262)">10</text></g><g clip-path="url(#clip18)"><text font-family="Calibri,Calibri_MSFontService,sans-serif" font-weight="400" font-size="46" transform="matrix(1 0 0 1 1250.22 4193)">20</text></g><g clip-path="url(#clip19)"><text font-family="Calibri,Calibri_MSFontService,sans-serif" font-weight="400" font-size="46" transform="matrix(1 0 0 1 1250.22 4124)">30</text></g><g clip-path="url(#clip20)"><text font-family="Calibri,Calibri_MSFontService,sans-serif" font-weight="400" font-size="46" transform="matrix(1 0 0 1 1250.22 4055)">40</text></g><g clip-path="url(#clip21)"><text font-family="Calibri,Calibri_MSFontService,sans-serif" font-weight="400" font-size="46" transform="matrix(1 0 0 1 1250.22 3985)">50</text></g><g clip-path="url(#clip22)"><text font-family="Calibri,Calibri_MSFontService,sans-serif" font-weight="400" font-size="46" transform="matrix(1 0 0 1 1250.22 3916)">60</text></g><g clip-path="url(#clip23)"><text font-family="Calibri,Calibri_MSFontService,sans-serif" font-weight="400" font-size="46" transform="matrix(1 0 0 1 1250.22 3847)">70</text></g><g clip-path="url(#clip24)"><text font-family="Calibri,Calibri_MSFontService,sans-serif" font-weight="400" font-size="46" transform="matrix(1 0 0 1 1250.22 3778)">80</text></g><g clip-path="url(#clip25)"><text font-family="Calibri,Calibri_MSFontService,sans-serif" font-weight="400" font-size="46" transform="matrix(1 0 0 1 1250.22 3709)">90</text></g><g clip-path="url(#clip26)"><text font-family="Calibri,Calibri_MSFontService,sans-serif" font-weight="400" font-size="46" transform="matrix(1 0 0 1 1226.98 3639)">100</text></g><g clip-path="url(#clip27)"><text font-family="Calibri,Calibri_MSFontService,sans-serif" font-weight="400" font-size="46" transform="matrix(6.12323e-17 -1 1 6.12323e-17 1355.24 4452)">13:21</text></g><g clip-path="url(#clip28)"><text font-family="Calibri,Calibri_MSFontService,sans-serif" font-weight="400" font-size="46" transform="matrix(6.12323e-17 -1 1 6.12323e-17 1422.28 4452)">13:22</text></g><g clip-path="url(#clip29)"><text font-family="Calibri,Calibri_MSFontService,sans-serif" font-weight="400" font-size="46" transform="matrix(6.12323e-17 -1 1 6.12323e-17 1489.33 4452)">13:23</text></g><g clip-path="url(#clip30)"><text font-family="Calibri,Calibri_MSFontService,sans-serif" font-weight="400" font-size="46" transform="matrix(6.12323e-17 -1 1 6.12323e-17 1556.37 4452)">13:24</text></g><g clip-path="url(#clip31)"><text font-family="Calibri,Calibri_MSFontService,sans-serif" font-weight="400" font-size="46" transform="matrix(6.12323e-17 -1 1 6.12323e-17 1623.42 4452)">13:25</text></g><g clip-path="url(#clip32)"><text font-family="Calibri,Calibri_MSFontService,sans-serif" font-weight="400" font-size="46" transform="matrix(6.12323e-17 -1 1 6.12323e-17 1690.46 4452)">13:26</text></g><g clip-path="url(#clip33)"><text font-family="Calibri,Calibri_MSFontService,sans-serif" font-weight="400" font-size="46" transform="matrix(6.12323e-17 -1 1 6.12323e-17 1757.51 4452)">13:27</text></g><g clip-path="url(#clip34)"><text font-family="Calibri,Calibri_MSFontService,sans-serif" font-weight="400" font-size="46" transform="matrix(6.12323e-17 -1 1 6.12323e-17 1824.55 4452)">13:28</text></g><g clip-path="url(#clip35)"><text font-family="Calibri,Calibri_MSFontService,sans-serif" font-weight="400" font-size="46" transform="matrix(6.12323e-17 -1 1 6.12323e-17 1891.6 4452)">13:29</text></g><g clip-path="url(#clip36)"><text font-family="Calibri,Calibri_MSFontService,sans-serif" font-weight="400" font-size="46" transform="matrix(6.12323e-17 -1 1 6.12323e-17 1958.64 4452)">13:30</text></g><g clip-path="url(#clip37)"><text font-family="Calibri,Calibri_MSFontService,sans-serif" font-weight="400" font-size="46" transform="matrix(6.12323e-17 -1 1 6.12323e-17 2025.69 4452)">13:31</text></g><g clip-path="url(#clip38)"><text font-family="Calibri,Calibri_MSFontService,sans-serif" font-weight="400" font-size="46" transform="matrix(6.12323e-17 -1 1 6.12323e-17 2092.73 4452)">13:32</text></g><g clip-path="url(#clip39)"><text font-family="Calibri,Calibri_MSFontService,sans-serif" font-weight="400" font-size="46" transform="matrix(6.12323e-17 -1 1 6.12323e-17 2159.78 4452)">13:33</text></g><g clip-path="url(#clip40)"><text font-family="Calibri,Calibri_MSFontService,sans-serif" font-weight="400" font-size="46" transform="matrix(6.12323e-17 -1 1 6.12323e-17 2226.82 4452)">13:34</text></g><g clip-path="url(#clip41)"><text font-family="Calibri,Calibri_MSFontService,sans-serif" font-weight="400" font-size="46" transform="matrix(6.12323e-17 -1 1 6.12323e-17 2293.87 4452)">13:35</text></g><g clip-path="url(#clip42)"><text font-family="Calibri,Calibri_MSFontService,sans-serif" font-weight="400" font-size="46" transform="matrix(6.12323e-17 -1 1 6.12323e-17 2360.91 4452)">13:36</text></g><g clip-path="url(#clip43)"><text font-family="Calibri,Calibri_MSFontService,sans-serif" font-weight="400" font-size="46" transform="matrix(6.12323e-17 -1 1 6.12323e-17 2427.96 4452)">13:37</text></g><g clip-path="url(#clip44)"><text font-family="Calibri,Calibri_MSFontService,sans-serif" font-weight="400" font-size="46" transform="matrix(6.12323e-17 -1 1 6.12323e-17 2495 4452)">13:38</text></g><g clip-path="url(#clip45)"><text font-family="Calibri,Calibri_MSFontService,sans-serif" font-weight="400" font-size="46" transform="matrix(6.12323e-17 -1 1 6.12323e-17 2562.05 4452)">13:39</text></g><g clip-path="url(#clip46)"><text font-family="Calibri,Calibri_MSFontService,sans-serif" font-weight="400" font-size="46" transform="matrix(6.12323e-17 -1 1 6.12323e-17 2629.09 4452)">13:40</text></g><g clip-path="url(#clip47)"><text font-family="Calibri,Calibri_MSFontService,sans-serif" font-weight="400" font-size="46" transform="matrix(6.12323e-17 -1 1 6.12323e-17 2696.14 4452)">13:41</text></g><g clip-path="url(#clip48)"><text font-family="Calibri,Calibri_MSFontService,sans-serif" font-weight="400" font-size="46" transform="matrix(6.12323e-17 -1 1 6.12323e-17 2763.18 4452)">13:42</text></g><g clip-path="url(#clip49)"><text font-family="Calibri,Calibri_MSFontService,sans-serif" font-weight="400" font-size="46" transform="matrix(6.12323e-17 -1 1 6.12323e-17 2830.23 4452)">13:43</text></g><g clip-path="url(#clip50)"><text font-family="Calibri,Calibri_MSFontService,sans-serif" font-weight="400" font-size="46" transform="matrix(6.12323e-17 -1 1 6.12323e-17 2897.27 4452)">13:44</text></g><g clip-path="url(#clip51)"><text font-family="Calibri,Calibri_MSFontService,sans-serif" font-weight="700" font-size="46" transform="matrix(6.12323e-17 -1 1 6.12323e-17 3038.27 4064)">Disk xfers</text></g><g clip-path="url(#clip52)"><text font-family="Calibri,Calibri_MSFontService,sans-serif" font-weight="700" font-size="46" transform="matrix(6.12323e-17 -1 1 6.12323e-17 1201.29 4183)">CPU</text></g><g clip-path="url(#clip53)"><text font-family="Calibri,Calibri_MSFontService,sans-serif" font-weight="700" font-size="46" transform="matrix(6.12323e-17 -1 1 6.12323e-17 1201.29 4089)">-</text></g><g clip-path="url(#clip54)"><text font-family="Calibri,Calibri_MSFontService,sans-serif" font-weight="700" font-size="46" transform="matrix(6.12323e-17 -1 1 6.12323e-17 1201.29 4075)">Auslastung in %</text></g><g clip-path="url(#clip55)"><path d="M1878.5 4523.5 1966.5 4523.5" stroke="#000080" stroke-width="9.16667" stroke-linecap="round" stroke-linejoin="round" stroke-miterlimit="10" fill="none" fill-rule="evenodd"/></g><g clip-path="url(#clip56)"><text font-family="Calibri,Calibri_MSFontService,sans-serif" font-weight="400" font-size="46" transform="matrix(1 0 0 1 1975.48 4537)">CPU%</text></g><g clip-path="url(#clip57)"><path d="M2128.5 4523.5 2216.5 4523.5" stroke="#FF00FF" stroke-width="9.16667" stroke-linecap="round" stroke-linejoin="round" stroke-miterlimit="10" fill="none" fill-rule="evenodd"/></g><g clip-path="url(#clip58)"><text font-family="Calibri,Calibri_MSFontService,sans-serif" font-weight="400" font-size="46" transform="matrix(1 0 0 1 2225.76 4537)">IO/sec</text></g></g></svg>