<svg width="2032" height="952" xmlns="http://www.w3.org/2000/svg" xmlns:xlink="http://www.w3.org/1999/xlink" overflow="hidden"><defs><clipPath id="clip0"><rect x="550" y="4813" width="2032" height="952"/></clipPath><clipPath id="clip1"><rect x="550" y="4812" width="2031" height="952"/></clipPath><clipPath id="clip2"><rect x="550" y="4812" width="2031" height="952"/></clipPath><clipPath id="clip3"><rect x="550" y="4812" width="2031" height="952"/></clipPath><clipPath id="clip4"><rect x="550" y="4812" width="2031" height="952"/></clipPath><clipPath id="clip5"><rect x="550" y="4812" width="2031" height="952"/></clipPath><clipPath id="clip6"><rect x="550" y="4812" width="2031" height="952"/></clipPath><clipPath id="clip7"><rect x="789" y="4863" width="1533" height="630"/></clipPath><clipPath id="clip8"><rect x="789" y="4863" width="1533" height="630"/></clipPath><clipPath id="clip9"><rect x="550" y="4812" width="2031" height="952"/></clipPath><clipPath id="clip10"><rect x="550" y="4812" width="2031" height="952"/></clipPath><clipPath id="clip11"><rect x="550" y="4812" width="2031" height="952"/></clipPath><clipPath id="clip12"><rect x="550" y="4812" width="2031" height="952"/></clipPath><clipPath id="clip13"><rect x="550" y="4812" width="2031" height="952"/></clipPath><clipPath id="clip14"><rect x="550" y="4812" width="2031" height="952"/></clipPath><clipPath id="clip15"><rect x="550" y="4812" width="2031" height="952"/></clipPath><clipPath id="clip16"><rect x="550" y="4812" width="2031" height="952"/></clipPath><clipPath id="clip17"><rect x="550" y="4812" width="2031" height="952"/></clipPath><clipPath id="clip18"><rect x="550" y="4812" width="2031" height="952"/></clipPath><clipPath id="clip19"><rect x="550" y="4812" width="2031" height="952"/></clipPath><clipPath id="clip20"><rect x="550" y="4812" width="2031" height="952"/></clipPath><clipPath id="clip21"><rect x="550" y="4812" width="2031" height="952"/></clipPath><clipPath id="clip22"><rect x="550" y="4812" width="2031" height="952"/></clipPath><clipPath id="clip23"><rect x="550" y="4812" width="2031" height="952"/></clipPath><clipPath id="clip24"><rect x="550" y="4812" width="2031" height="952"/></clipPath><clipPath id="clip25"><rect x="550" y="4812" width="2031" height="952"/></clipPath><clipPath id="clip26"><rect x="550" y="4812" width="2031" height="952"/></clipPath><clipPath id="clip27"><rect x="550" y="4812" width="2031" height="952"/></clipPath><clipPath id="clip28"><rect x="550" y="4812" width="2031" height="952"/></clipPath><clipPath id="clip29"><rect x="550" y="4812" width="2031" height="952"/></clipPath><clipPath id="clip30"><rect x="550" y="4812" width="2031" height="952"/></clipPath><clipPath id="clip31"><rect x="550" y="4812" width="2031" height="952"/></clipPath><clipPath id="clip32"><rect x="550" y="4812" width="2031" height="952"/></clipPath><clipPath id="clip33"><rect x="550" y="4812" width="2031" height="952"/></clipPath><clipPath id="clip34"><rect x="550" y="4812" width="2031" height="952"/></clipPath><clipPath id="clip35"><rect x="550" y="4812" width="2031" height="952"/></clipPath><clipPath id="clip36"><rect x="550" y="4812" width="2031" height="952"/></clipPath><clipPath id="clip37"><rect x="550" y="4812" width="2031" height="952"/></clipPath><clipPath id="clip38"><rect x="550" y="4812" width="2031" height="952"/></clipPath><clipPath id="clip39"><rect x="550" y="4812" width="2031" height="952"/></clipPath><clipPath id="clip40"><rect x="550" y="4812" width="2031" height="952"/></clipPath><clipPath id="clip41"><rect x="550" y="4812" width="2031" height="952"/></clipPath><clipPath id="clip42"><rect x="550" y="4812" width="2031" height="952"/></clipPath><clipPath id="clip43"><rect x="550" y="4812" width="2031" height="952"/></clipPath><clipPath id="clip44"><rect x="550" y="4812" width="2031" height="952"/></clipPath><clipPath id="clip45"><rect x="550" y="4812" width="2031" height="952"/></clipPath><clipPath id="clip46"><rect x="550" y="4812" width="2031" height="952"/></clipPath><clipPath id="clip47"><rect x="550" y="4812" width="2031" height="952"/></clipPath><clipPath id="clip48"><rect x="550" y="4812" width="2031" height="952"/></clipPath><clipPath id="clip49"><rect x="550" y="4812" width="2031" height="952"/></clipPath><clipPath id="clip50"><rect x="550" y="4812" width="2031" height="952"/></clipPath><clipPath id="clip51"><rect x="550" y="4812" width="2031" height="952"/></clipPath><clipPath id="clip52"><rect x="550" y="4812" width="2031" height="952"/></clipPath><clipPath id="clip53"><rect x="550" y="4812" width="2031" height="952"/></clipPath><clipPath id="clip54"><rect x="550" y="4812" width="2031" height="952"/></clipPath><clipPath id="clip55"><rect x="550" y="4812" width="2031" height="952"/></clipPath><clipPath id="clip56"><rect x="550" y="4812" width="2031" height="952"/></clipPath><clipPath id="clip57"><rect x="550" y="4812" width="2031" height="952"/></clipPath><clipPath id="clip58"><rect x="550" y="4812" width="2031" height="952"/></clipPath><clipPath id="clip59"><rect x="550" y="4812" width="2031" height="952"/></clipPath><clipPath id="clip60"><rect x="550" y="4812" width="2031" height="952"/></clipPath><clipPath id="clip61"><rect x="550" y="4812" width="2031" height="952"/></clipPath></defs><g clip-path="url(#clip0)" transform="translate(-550 -4813)"><rect x="550" y="4813" width="2032" height="952" fill="#FFFFFF"/><g clip-path="url(#clip1)"><rect x="789" y="4863" width="1530" height="627" fill="#FFFFFF"/></g><g clip-path="url(#clip2)"><path d="M0 0 0.000360892 627" stroke="#898989" stroke-width="2.29167" stroke-linejoin="round" stroke-miterlimit="10" fill="none" fill-rule="evenodd" transform="matrix(1 0 0 -1 2319 5490)"/></g><g clip-path="url(#clip3)"><path d="M2319 5490 2334 5490M2319 5386.18 2334 5386.18M2319 5281.17 2334 5281.17M2319 5177.17 2334 5177.17M2319 5072.17 2334 5072.17M2319 4968.16 2334 4968.16M2319 4863 2334 4863" stroke="#898989" stroke-width="2.29167" stroke-linejoin="round" stroke-miterlimit="10" fill="none"/></g><g clip-path="url(#clip4)"><path d="M0 0 0.000360892 627" stroke="#898989" stroke-width="2.29167" stroke-linejoin="round" stroke-miterlimit="10" fill="none" fill-rule="evenodd" transform="matrix(1 0 0 -1 789 5490)"/></g><g clip-path="url(#clip5)"><path d="M775 5490 789 5490M775 5427.18 789 5427.18M775 5365.18 789 5365.18M775 5302.17 789 5302.17M775 5239.17 789 5239.17M775 5177.17 789 5177.17M775 5114.17 789 5114.17M775 5051.17 789 5051.17M775 4989.16 789 4989.16M775 4926.16 789 4926.16M775 4863 789 4863" stroke="#898989" stroke-width="2.29167" stroke-linejoin="round" stroke-miterlimit="10" fill="none"/></g><g clip-path="url(#clip6)"><path d="M789 5490 2319 5490" stroke="#898989" stroke-width="2.29167" stroke-linejoin="round" stroke-miterlimit="10" fill="none" fill-rule="evenodd"/></g><g clip-path="url(#clip7)"><path d="M789.5 5376.5 818.527 5075.67 847.528 5073.67 876.529 5073.67 905.53 5072.67 934.531 5083.67 964.532 5079.67 993.533 5095.67 1022.53 5076.67 1051.53 5076.67 1080.54 5075.67 1109.54 5072.67 1138.54 5068.67 1168.54 5065.67 1197.54 5063.5 1226.54 5066.67 1255.54 5066.67 1284.54 5066.67 1313.54 5064.67 1342.54 5066.67 1371.55 5067.67 1401.55 5071.67 1430.55 5065.67 1459.55 5065.67 1488.55 5068.67 1517.55 5066.67 1546.55 5065.67 1575.55 5066.67 1605.55 5065.67 1634.55 5065.67 1663.55 5064.67 1692.56 5068.67 1721.56 5068.67 1750.56 5066.67 1779.56 5065.67 1809.56 5067.67 1838.56 5068.67 1867.56 5069.67 1896.56 5068.67 1925.56 5070.67 1954.56 5066.67 1983.57 5065.67 2013.57 5068.67 2042.57 5068.67 2071.57 5066.67 2100.57 5067.67 2129.57 5067.67 2158.57 5067.67 2187.57 5066.67 2217.57 5063.5 2246.57 5066.67 2275.57 5069.67 2304.5 5300.67" stroke="#000080" stroke-width="9.16667" stroke-linecap="round" stroke-linejoin="round" stroke-miterlimit="10" fill="none"/></g><g clip-path="url(#clip8)"><path d="M789.5 5464.5 818.527 4976.66 847.528 4914.5 876.529 4935.66 905.53 4954.66 934.531 5036.67 964.532 5171.67 993.533 5253.67 1022.53 5010.66 1051.53 4989.66 1080.54 5013.66 1109.54 5003.66 1138.54 4984.66 1168.54 4999.66 1197.54 5028.67 1226.54 5004.66 1255.54 5007.66 1284.54 5017.66 1313.54 5023.67 1342.54 4988.66 1371.55 4978.66 1401.55 4969.66 1430.55 5005.66 1459.55 5004.66 1488.55 5004.66 1517.55 4997.66 1546.55 5000.66 1575.55 5015.66 1605.55 5022.67 1634.55 5021.67 1663.55 5028.67 1692.56 4989.66 1721.56 4977.66 1750.56 4992.66 1779.56 5004.66 1809.56 4987.66 1838.56 4972.66 1867.56 4971.66 1896.56 4986.66 1925.56 4968.66 1954.56 5001.66 1983.57 5012.66 2013.57 4982.66 2042.57 4977.66 2071.57 4995.66 2100.57 4994.66 2129.57 4981.66 2158.57 4991.66 2187.57 4999.66 2217.57 5023.67 2246.57 4985.66 2275.57 4977.66 2304.5 5285.67" stroke="#FF00FF" stroke-width="9.16667" stroke-linecap="round" stroke-linejoin="round" stroke-miterlimit="10" fill="none"/></g><g clip-path="url(#clip9)"><text font-family="Calibri,Calibri_MSFontService,sans-serif" font-weight="400" font-size="46" transform="matrix(1 0 0 1 2361.63 5504)">0</text></g><g clip-path="url(#clip10)"><text font-family="Calibri,Calibri_MSFontService,sans-serif" font-weight="400" font-size="46" transform="matrix(1 0 0 1 2361.63 5399)">200</text></g><g clip-path="url(#clip11)"><text font-family="Calibri,Calibri_MSFontService,sans-serif" font-weight="400" font-size="46" transform="matrix(1 0 0 1 2361.63 5295)">400</text></g><g clip-path="url(#clip12)"><text font-family="Calibri,Calibri_MSFontService,sans-serif" font-weight="400" font-size="46" transform="matrix(1 0 0 1 2361.63 5190)">600</text></g><g clip-path="url(#clip13)"><text font-family="Calibri,Calibri_MSFontService,sans-serif" font-weight="400" font-size="46" transform="matrix(1 0 0 1 2361.63 5086)">800</text></g><g clip-path="url(#clip14)"><text font-family="Calibri,Calibri_MSFontService,sans-serif" font-weight="400" font-size="46" transform="matrix(1 0 0 1 2361.63 4981)">1000</text></g><g clip-path="url(#clip15)"><text font-family="Calibri,Calibri_MSFontService,sans-serif" font-weight="400" font-size="46" transform="matrix(1 0 0 1 2361.63 4877)">1200</text></g><g clip-path="url(#clip16)"><text font-family="Calibri,Calibri_MSFontService,sans-serif" font-weight="400" font-size="46" transform="matrix(1 0 0 1 723.456 5504)">0</text></g><g clip-path="url(#clip17)"><text font-family="Calibri,Calibri_MSFontService,sans-serif" font-weight="400" font-size="46" transform="matrix(1 0 0 1 700.219 5441)">10</text></g><g clip-path="url(#clip18)"><text font-family="Calibri,Calibri_MSFontService,sans-serif" font-weight="400" font-size="46" transform="matrix(1 0 0 1 700.219 5378)">20</text></g><g clip-path="url(#clip19)"><text font-family="Calibri,Calibri_MSFontService,sans-serif" font-weight="400" font-size="46" transform="matrix(1 0 0 1 700.219 5316)">30</text></g><g clip-path="url(#clip20)"><text font-family="Calibri,Calibri_MSFontService,sans-serif" font-weight="400" font-size="46" transform="matrix(1 0 0 1 700.219 5253)">40</text></g><g clip-path="url(#clip21)"><text font-family="Calibri,Calibri_MSFontService,sans-serif" font-weight="400" font-size="46" transform="matrix(1 0 0 1 700.219 5190)">50</text></g><g clip-path="url(#clip22)"><text font-family="Calibri,Calibri_MSFontService,sans-serif" font-weight="400" font-size="46" transform="matrix(1 0 0 1 700.219 5128)">60</text></g><g clip-path="url(#clip23)"><text font-family="Calibri,Calibri_MSFontService,sans-serif" font-weight="400" font-size="46" transform="matrix(1 0 0 1 700.219 5065)">70</text></g><g clip-path="url(#clip24)"><text font-family="Calibri,Calibri_MSFontService,sans-serif" font-weight="400" font-size="46" transform="matrix(1 0 0 1 700.219 5002)">80</text></g><g clip-path="url(#clip25)"><text font-family="Calibri,Calibri_MSFontService,sans-serif" font-weight="400" font-size="46" transform="matrix(1 0 0 1 700.219 4940)">90</text></g><g clip-path="url(#clip26)"><text font-family="Calibri,Calibri_MSFontService,sans-serif" font-weight="400" font-size="46" transform="matrix(1 0 0 1 676.981 4877)">100</text></g><g clip-path="url(#clip27)"><text font-family="Calibri,Calibri_MSFontService,sans-serif" font-weight="400" font-size="46" transform="matrix(6.12323e-17 -1 1 6.12323e-17 805.238 5625)">12:58</text></g><g clip-path="url(#clip28)"><text font-family="Calibri,Calibri_MSFontService,sans-serif" font-weight="400" font-size="46" transform="matrix(6.12323e-17 -1 1 6.12323e-17 863.521 5625)">13:00</text></g><g clip-path="url(#clip29)"><text font-family="Calibri,Calibri_MSFontService,sans-serif" font-weight="400" font-size="46" transform="matrix(6.12323e-17 -1 1 6.12323e-17 921.803 5625)">13:02</text></g><g clip-path="url(#clip30)"><text font-family="Calibri,Calibri_MSFontService,sans-serif" font-weight="400" font-size="46" transform="matrix(6.12323e-17 -1 1 6.12323e-17 980.085 5625)">13:04</text></g><g clip-path="url(#clip31)"><text font-family="Calibri,Calibri_MSFontService,sans-serif" font-weight="400" font-size="46" transform="matrix(6.12323e-17 -1 1 6.12323e-17 1038.37 5625)">13:06</text></g><g clip-path="url(#clip32)"><text font-family="Calibri,Calibri_MSFontService,sans-serif" font-weight="400" font-size="46" transform="matrix(6.12323e-17 -1 1 6.12323e-17 1096.65 5625)">13:08</text></g><g clip-path="url(#clip33)"><text font-family="Calibri,Calibri_MSFontService,sans-serif" font-weight="400" font-size="46" transform="matrix(6.12323e-17 -1 1 6.12323e-17 1154.93 5625)">13:10</text></g><g clip-path="url(#clip34)"><text font-family="Calibri,Calibri_MSFontService,sans-serif" font-weight="400" font-size="46" transform="matrix(6.12323e-17 -1 1 6.12323e-17 1213.21 5625)">13:12</text></g><g clip-path="url(#clip35)"><text font-family="Calibri,Calibri_MSFontService,sans-serif" font-weight="400" font-size="46" transform="matrix(6.12323e-17 -1 1 6.12323e-17 1271.5 5625)">13:14</text></g><g clip-path="url(#clip36)"><text font-family="Calibri,Calibri_MSFontService,sans-serif" font-weight="400" font-size="46" transform="matrix(6.12323e-17 -1 1 6.12323e-17 1329.78 5625)">13:16</text></g><g clip-path="url(#clip37)"><text font-family="Calibri,Calibri_MSFontService,sans-serif" font-weight="400" font-size="46" transform="matrix(6.12323e-17 -1 1 6.12323e-17 1388.06 5625)">13:18</text></g><g clip-path="url(#clip38)"><text font-family="Calibri,Calibri_MSFontService,sans-serif" font-weight="400" font-size="46" transform="matrix(6.12323e-17 -1 1 6.12323e-17 1446.34 5625)">13:20</text></g><g clip-path="url(#clip39)"><text font-family="Calibri,Calibri_MSFontService,sans-serif" font-weight="400" font-size="46" transform="matrix(6.12323e-17 -1 1 6.12323e-17 1504.62 5625)">13:22</text></g><g clip-path="url(#clip40)"><text font-family="Calibri,Calibri_MSFontService,sans-serif" font-weight="400" font-size="46" transform="matrix(6.12323e-17 -1 1 6.12323e-17 1562.91 5625)">13:24</text></g><g clip-path="url(#clip41)"><text font-family="Calibri,Calibri_MSFontService,sans-serif" font-weight="400" font-size="46" transform="matrix(6.12323e-17 -1 1 6.12323e-17 1621.19 5625)">13:26</text></g><g clip-path="url(#clip42)"><text font-family="Calibri,Calibri_MSFontService,sans-serif" font-weight="400" font-size="46" transform="matrix(6.12323e-17 -1 1 6.12323e-17 1679.47 5625)">13:28</text></g><g clip-path="url(#clip43)"><text font-family="Calibri,Calibri_MSFontService,sans-serif" font-weight="400" font-size="46" transform="matrix(6.12323e-17 -1 1 6.12323e-17 1737.75 5625)">13:30</text></g><g clip-path="url(#clip44)"><text font-family="Calibri,Calibri_MSFontService,sans-serif" font-weight="400" font-size="46" transform="matrix(6.12323e-17 -1 1 6.12323e-17 1796.04 5625)">13:32</text></g><g clip-path="url(#clip45)"><text font-family="Calibri,Calibri_MSFontService,sans-serif" font-weight="400" font-size="46" transform="matrix(6.12323e-17 -1 1 6.12323e-17 1854.32 5625)">13:34</text></g><g clip-path="url(#clip46)"><text font-family="Calibri,Calibri_MSFontService,sans-serif" font-weight="400" font-size="46" transform="matrix(6.12323e-17 -1 1 6.12323e-17 1912.6 5625)">13:36</text></g><g clip-path="url(#clip47)"><text font-family="Calibri,Calibri_MSFontService,sans-serif" font-weight="400" font-size="46" transform="matrix(6.12323e-17 -1 1 6.12323e-17 1970.88 5625)">13:38</text></g><g clip-path="url(#clip48)"><text font-family="Calibri,Calibri_MSFontService,sans-serif" font-weight="400" font-size="46" transform="matrix(6.12323e-17 -1 1 6.12323e-17 2029.16 5625)">13:40</text></g><g clip-path="url(#clip49)"><text font-family="Calibri,Calibri_MSFontService,sans-serif" font-weight="400" font-size="46" transform="matrix(6.12323e-17 -1 1 6.12323e-17 2087.45 5625)">13:42</text></g><g clip-path="url(#clip50)"><text font-family="Calibri,Calibri_MSFontService,sans-serif" font-weight="400" font-size="46" transform="matrix(6.12323e-17 -1 1 6.12323e-17 2145.73 5625)">13:44</text></g><g clip-path="url(#clip51)"><text font-family="Calibri,Calibri_MSFontService,sans-serif" font-weight="400" font-size="46" transform="matrix(6.12323e-17 -1 1 6.12323e-17 2204.01 5625)">13:46</text></g><g clip-path="url(#clip52)"><text font-family="Calibri,Calibri_MSFontService,sans-serif" font-weight="400" font-size="46" transform="matrix(6.12323e-17 -1 1 6.12323e-17 2262.29 5625)">13:48</text></g><g clip-path="url(#clip53)"><text font-family="Calibri,Calibri_MSFontService,sans-serif" font-weight="400" font-size="46" transform="matrix(6.12323e-17 -1 1 6.12323e-17 2320.58 5625)">13:50</text></g><g clip-path="url(#clip54)"><text font-family="Calibri,Calibri_MSFontService,sans-serif" font-weight="700" font-size="46" transform="matrix(6.12323e-17 -1 1 6.12323e-17 2512.33 5269)">Disk xfers</text></g><g clip-path="url(#clip55)"><text font-family="Calibri,Calibri_MSFontService,sans-serif" font-weight="700" font-size="46" transform="matrix(6.12323e-17 -1 1 6.12323e-17 651.292 5388)">CPU</text></g><g clip-path="url(#clip56)"><text font-family="Calibri,Calibri_MSFontService,sans-serif" font-weight="700" font-size="46" transform="matrix(6.12323e-17 -1 1 6.12323e-17 651.292 5294)">-</text></g><g clip-path="url(#clip57)"><text font-family="Calibri,Calibri_MSFontService,sans-serif" font-weight="700" font-size="46" transform="matrix(6.12323e-17 -1 1 6.12323e-17 651.292 5280)">Auslastung in %</text></g><g clip-path="url(#clip58)"><path d="M1340.5 5695.5 1428.5 5695.5" stroke="#000080" stroke-width="9.16667" stroke-linecap="round" stroke-linejoin="round" stroke-miterlimit="10" fill="none" fill-rule="evenodd"/></g><g clip-path="url(#clip59)"><text font-family="Calibri,Calibri_MSFontService,sans-serif" font-weight="400" font-size="46" transform="matrix(1 0 0 1 1437.52 5709)">CPU%</text></g><g clip-path="url(#clip60)"><path d="M1590.5 5695.5 1678.5 5695.5" stroke="#FF00FF" stroke-width="9.16667" stroke-linecap="round" stroke-linejoin="round" stroke-miterlimit="10" fill="none" fill-rule="evenodd"/></g><g clip-path="url(#clip61)"><text font-family="Calibri,Calibri_MSFontService,sans-serif" font-weight="400" font-size="46" transform="matrix(1 0 0 1 1687.79 5709)">IO/sec</text></g></g></svg>