<svg width="1650" height="990" xmlns="http://www.w3.org/2000/svg" xmlns:xlink="http://www.w3.org/1999/xlink" overflow="hidden"><defs><clipPath id="clip0"><rect x="165" y="1712" width="1650" height="990"/></clipPath><clipPath id="clip1"><rect x="165" y="1711" width="1650" height="990"/></clipPath><clipPath id="clip2"><rect x="165" y="1711" width="1650" height="990"/></clipPath><clipPath id="clip3"><rect x="165" y="1711" width="1650" height="990"/></clipPath><clipPath id="clip4"><rect x="165" y="1711" width="1650" height="990"/></clipPath><clipPath id="clip5"><rect x="165" y="1711" width="1650" height="990"/></clipPath><clipPath id="clip6"><rect x="165" y="1711" width="1650" height="990"/></clipPath><clipPath id="clip7"><rect x="165" y="1711" width="1650" height="990"/></clipPath><clipPath id="clip8"><rect x="165" y="1711" width="1650" height="990"/></clipPath><clipPath id="clip9"><rect x="165" y="1711" width="1650" height="990"/></clipPath><clipPath id="clip10"><rect x="165" y="1711" width="1650" height="990"/></clipPath><clipPath id="clip11"><rect x="165" y="1711" width="1650" height="990"/></clipPath><clipPath id="clip12"><rect x="165" y="1711" width="1650" height="990"/></clipPath><clipPath id="clip13"><rect x="165" y="1711" width="1650" height="990"/></clipPath><clipPath id="clip14"><rect x="165" y="1711" width="1650" height="990"/></clipPath><clipPath id="clip15"><rect x="165" y="1711" width="1650" height="990"/></clipPath><clipPath id="clip16"><rect x="165" y="1711" width="1650" height="990"/></clipPath><clipPath id="clip17"><rect x="165" y="1711" width="1650" height="990"/></clipPath><clipPath id="clip18"><rect x="165" y="1711" width="1650" height="990"/></clipPath><clipPath id="clip19"><rect x="165" y="1711" width="1650" height="990"/></clipPath><clipPath id="clip20"><rect x="165" y="1711" width="1650" height="990"/></clipPath><clipPath id="clip21"><rect x="165" y="1711" width="1650" height="990"/></clipPath><clipPath id="clip22"><rect x="165" y="1711" width="1650" height="990"/></clipPath><clipPath id="clip23"><rect x="165" y="1711" width="1650" height="990"/></clipPath><clipPath id="clip24"><rect x="165" y="1711" width="1650" height="990"/></clipPath><clipPath id="clip25"><rect x="165" y="1711" width="1650" height="990"/></clipPath></defs><g clip-path="url(#clip0)" transform="translate(-165 -1712)"><rect x="165" y="1712" width="1650" height="990" fill="#FFFFFF"/><g clip-path="url(#clip1)"><path d="M990 1813.21C1159 1813.21 1296.01 1950.21 1296.01 2119.22 1296.01 2288.22 1159 2425.23 990 2425.23 838.018 2425.23 709.068 2313.68 687.181 2163.29L990 2119.22Z" stroke="#FFFFFF" stroke-width="6.875" stroke-linejoin="round" stroke-miterlimit="10" fill="#4472C4" fill-rule="evenodd"/></g><g clip-path="url(#clip2)"><path d="M687.181 2163.29C677.78 2098.69 689.284 2032.77 720.011 1975.18L990 2119.22Z" stroke="#FFFFFF" stroke-width="6.875" stroke-linejoin="round" stroke-miterlimit="10" fill="#ED7D31" fill-rule="evenodd"/></g><g clip-path="url(#clip3)"><path d="M720.011 1975.18C736.34 1944.57 757.756 1916.96 783.342 1893.53L990 2119.22Z" stroke="#FFFFFF" stroke-width="6.875" stroke-linejoin="round" stroke-miterlimit="10" fill="#A5A5A5" fill-rule="evenodd"/></g><g clip-path="url(#clip4)"><path d="M783.342 1893.53C797.059 1880.97 811.893 1869.69 827.659 1859.82L990 2119.22Z" stroke="#FFFFFF" stroke-width="6.875" stroke-linejoin="round" stroke-miterlimit="10" fill="#FFC000" fill-rule="evenodd"/></g><g clip-path="url(#clip5)"><path d="M827.659 1859.82C836.897 1854.04 846.437 1848.76 856.238 1843.99L990 2119.22Z" stroke="#FFFFFF" stroke-width="6.875" stroke-linejoin="round" stroke-miterlimit="10" fill="#5B9BD5" fill-rule="evenodd"/></g><g clip-path="url(#clip6)"><path d="M856.239 1843.99C897.92 1823.73 943.657 1813.21 990 1813.21L990 2119.22Z" stroke="#FFFFFF" stroke-width="6.875" stroke-linejoin="round" stroke-miterlimit="10" fill="#70AD47" fill-rule="evenodd"/></g><g clip-path="url(#clip7)"><path d="M804.5 1875.5 785.526 1855.5 765.5 1855.5" stroke="#A6A6A6" stroke-width="3.4375" stroke-linejoin="round" stroke-miterlimit="10" fill="none"/></g><g clip-path="url(#clip8)"><text fill="#404040" font-family="Calibri,Calibri_MSFontService,sans-serif" font-weight="400" font-size="41" transform="matrix(1 0 0 1 1141.25 2291)">73%</text></g><g clip-path="url(#clip9)"><text fill="#404040" font-family="Calibri,Calibri_MSFontService,sans-serif" font-weight="400" font-size="41" transform="matrix(1 0 0 1 708.125 2098)">10%</text></g><g clip-path="url(#clip10)"><text fill="#404040" font-family="Calibri,Calibri_MSFontService,sans-serif" font-weight="400" font-size="41" transform="matrix(1 0 0 1 763.125 1981)">5%</text></g><g clip-path="url(#clip11)"><text fill="#404040" font-family="Calibri,Calibri_MSFontService,sans-serif" font-weight="400" font-size="41" transform="matrix(1 0 0 1 708.125 1857)">3%</text></g><g clip-path="url(#clip12)"><text fill="#404040" font-family="Calibri,Calibri_MSFontService,sans-serif" font-weight="400" font-size="41" transform="matrix(1 0 0 1 783.75 1830)">2%</text></g><g clip-path="url(#clip13)"><text fill="#404040" font-family="Calibri,Calibri_MSFontService,sans-serif" font-weight="400" font-size="41" transform="matrix(1 0 0 1 910.938 1882)">7%</text></g><g clip-path="url(#clip14)"><rect x="302.5" y="2553.5" width="22" height="23" stroke="#FFFFFF" stroke-width="6.875" stroke-linejoin="round" stroke-miterlimit="10" fill="#4472C4"/></g><g clip-path="url(#clip15)"><text fill="#595959" font-family="Calibri,Calibri_MSFontService,sans-serif" font-weight="400" font-size="41" transform="matrix(1 0 0 1 334.325 2577)">Relationale Datenbanken</text></g><g clip-path="url(#clip16)"><rect x="830.5" y="2553.5" width="23.0001" height="23" stroke="#FFFFFF" stroke-width="6.875" stroke-linejoin="round" stroke-miterlimit="10" fill="#ED7D31"/></g><g clip-path="url(#clip17)"><text fill="#595959" font-family="Calibri,Calibri_MSFontService,sans-serif" font-weight="400" font-size="41" transform="matrix(1 0 0 1 862.796 2577)">Document Stores</text></g><g clip-path="url(#clip18)"><rect x="1244.5" y="2553.5" width="22" height="23" stroke="#FFFFFF" stroke-width="6.875" stroke-linejoin="round" stroke-miterlimit="10" fill="#A5A5A5"/></g><g clip-path="url(#clip19)"><text fill="#595959" font-family="Calibri,Calibri_MSFontService,sans-serif" font-weight="400" font-size="41" transform="matrix(1 0 0 1 1276.27 2577)">Key-Value Stores</text></g><g clip-path="url(#clip20)"><rect x="302.5" y="2631.5" width="22" height="22" stroke="#FFFFFF" stroke-width="6.875" stroke-linejoin="round" stroke-miterlimit="10" fill="#FFC000"/></g><g clip-path="url(#clip21)"><text fill="#595959" font-family="Calibri,Calibri_MSFontService,sans-serif" font-weight="400" font-size="41" transform="matrix(1 0 0 1 334.325 2654)">Wide column stores</text></g><g clip-path="url(#clip22)"><rect x="830.5" y="2631.5" width="23.0001" height="22" stroke="#FFFFFF" stroke-width="6.875" stroke-linejoin="round" stroke-miterlimit="10" fill="#5B9BD5"/></g><g clip-path="url(#clip23)"><text fill="#595959" font-family="Calibri,Calibri_MSFontService,sans-serif" font-weight="400" font-size="41" transform="matrix(1 0 0 1 862.796 2654)">Graphdatenbanken</text></g><g clip-path="url(#clip24)"><rect x="1244.5" y="2631.5" width="22" height="22" stroke="#FFFFFF" stroke-width="6.875" stroke-linejoin="round" stroke-miterlimit="10" fill="#70AD47"/></g><g clip-path="url(#clip25)"><text fill="#595959" font-family="Calibri,Calibri_MSFontService,sans-serif" font-weight="400" font-size="41" transform="matrix(1 0 0 1 1276.27 2654)">Andere</text></g></g></svg>